<?xml version="1.0" encoding="UTF-8" standalone="no"?>
<!-- Created with Inkscape (http://www.inkscape.org/) -->

<svg
   xmlns:osb="http://www.openswatchbook.org/uri/2009/osb"
   xmlns:dc="http://purl.org/dc/elements/1.1/"
   xmlns:cc="http://creativecommons.org/ns#"
   xmlns:rdf="http://www.w3.org/1999/02/22-rdf-syntax-ns#"
   xmlns:svg="http://www.w3.org/2000/svg"
   xmlns="http://www.w3.org/2000/svg"
   xmlns:xlink="http://www.w3.org/1999/xlink"
   xmlns:sodipodi="http://sodipodi.sourceforge.net/DTD/sodipodi-0.dtd"
   xmlns:inkscape="http://www.inkscape.org/namespaces/inkscape"
   width="1602.4377mm"
   height="657.20831mm"
   viewBox="0 0 1602.4377 657.20832"
   version="1.1"
   id="svg8"
   inkscape:version="0.92.4 (5da689c313, 2019-01-14)"
   sodipodi:docname="24hr-delivery.svg">
  <defs
     id="defs2">
    <linearGradient
       id="linearGradient4268"
       osb:paint="solid">
      <stop
         style="stop-color:#0d040d;stop-opacity:1;"
         offset="0"
         id="stop4266" />
    </linearGradient>
    <linearGradient
       gradientUnits="userSpaceOnUse"
       y2="132.32001"
       x2="819.92999"
       y1="598.64001"
       x1="819.92999"
       id="f98c7255-8898-49c2-b340-75dadcc4ae5e">
      <stop
         id="stop877"
         stop-opacity="0.25"
         stop-color="gray"
         offset="0" />
      <stop
         id="stop879"
         stop-opacity="0.12"
         stop-color="gray"
         offset="0.54" />
      <stop
         id="stop881"
         stop-opacity="0.1"
         stop-color="gray"
         offset="1" />
    </linearGradient>
    <linearGradient
       xlink:href="#f98c7255-8898-49c2-b340-75dadcc4ae5e"
       y2="216.24001"
       x2="855.67999"
       y1="218.69"
       x1="855.67999"
       id="92d33834-2d44-41fb-b7c9-5faa6db61f67" />
    <linearGradient
       xlink:href="#f98c7255-8898-49c2-b340-75dadcc4ae5e"
       gradientTransform="rotate(90,629.01,560.64)"
       y2="395.19"
       x2="476.17001"
       y1="658.02002"
       x1="476.17001"
       id="2353f27f-2b2f-460e-adf7-0d1e44be71db" />
    <linearGradient
       xlink:href="#f98c7255-8898-49c2-b340-75dadcc4ae5e"
       gradientTransform="rotate(90,643.61,568.06)"
       y2="463.92001"
       x2="476.5"
       y1="725.77002"
       x1="476.5"
       id="4f6991c1-2d70-49f7-ad45-4cbe0a2e669a" />
    <linearGradient
       xlink:href="#f98c7255-8898-49c2-b340-75dadcc4ae5e"
       gradientTransform="rotate(90,617.54,562.87)"
       y2="457.32001"
       x2="456.73999"
       y1="719.16998"
       x1="456.73999"
       id="0ab0c4d5-5a87-488b-b190-408bea02e292" />
    <linearGradient
       xlink:href="#f98c7255-8898-49c2-b340-75dadcc4ae5e"
       gradientTransform="translate(123.74,-187.29)"
       y2="464.42001"
       x2="450.42999"
       y1="726.27002"
       x1="450.42999"
       id="7820c60a-6dd2-4e9e-820c-a335a5d419d8" />
    <linearGradient
       xlink:href="#f98c7255-8898-49c2-b340-75dadcc4ae5e"
       gradientTransform="rotate(90,999.905,155.125)"
       y2="74.839996"
       x2="1003.59"
       y1="245.50999"
       x1="1003.59"
       id="2438f751-850d-4f24-a458-729e3ad7bb58" />
    <linearGradient
       xlink:href="#f98c7255-8898-49c2-b340-75dadcc4ae5e"
       y2="427.42001"
       x2="864.78998"
       y1="849.53003"
       x1="864.78998"
       id="68c414b5-14a5-48aa-8252-53bc3664f500" />
    <linearGradient
       gradientUnits="userSpaceOnUse"
       y2="406.10999"
       x2="1001.2"
       y1="623.60999"
       x1="1001.2"
       id="78f90e6d-b24a-44d2-9f86-3fdf1c79ab28">
      <stop
         id="stop5747"
         stop-opacity="0.25"
         stop-color="gray"
         offset="0" />
      <stop
         id="stop5749"
         stop-opacity="0.12"
         stop-color="gray"
         offset="0.54" />
      <stop
         id="stop5751"
         stop-opacity="0.1"
         stop-color="gray"
         offset="1" />
    </linearGradient>
    <linearGradient
       xlink:href="#78f90e6d-b24a-44d2-9f86-3fdf1c79ab28"
       y2="223.13"
       x2="846.10999"
       y1="465.37"
       x1="846.10999"
       id="a2d5f515-de48-4f00-acad-c4726f878aac"
       gradientTransform="matrix(1.2219845,0,0,1.2219845,-281.95135,-543.71182)" />
    <linearGradient
       xlink:href="#78f90e6d-b24a-44d2-9f86-3fdf1c79ab28"
       y2="407.89001"
       x2="913.67999"
       y1="630.19"
       x1="913.67999"
       id="70d1009e-dace-48dc-ab15-aedd5e3b03e6" />
    <linearGradient
       xlink:href="#78f90e6d-b24a-44d2-9f86-3fdf1c79ab28"
       y2="223.03999"
       x2="775.54999"
       y1="469.82001"
       x1="775.54999"
       id="9d354d98-a887-4f91-9102-a75a5431dd3b"
       gradientTransform="matrix(1.2219845,0,0,1.2219845,-281.95135,-543.71182)" />
    <linearGradient
       xlink:href="#78f90e6d-b24a-44d2-9f86-3fdf1c79ab28"
       y2="518.27002"
       x2="868.84998"
       y1="666.47998"
       x1="868.84998"
       id="ad5409f9-492b-4351-8333-b0e7b9fbef2b" />
    <linearGradient
       xlink:href="#78f90e6d-b24a-44d2-9f86-3fdf1c79ab28"
       y2="314.10999"
       x2="716.56"
       y1="479.17999"
       x1="716.56"
       id="bff858af-3bff-4656-bc49-4e0ce7b6f418"
       gradientTransform="matrix(1.2219845,0,0,1.2219845,-225.85933,-561.7036)" />
    <linearGradient
       xlink:href="#78f90e6d-b24a-44d2-9f86-3fdf1c79ab28"
       y2="522.65997"
       x2="835.31"
       y1="671.87"
       x1="835.31"
       id="9646795a-0dc7-4a1c-aa48-1a0444241a64" />
    <linearGradient
       xlink:href="#78f90e6d-b24a-44d2-9f86-3fdf1c79ab28"
       y2="316.57001"
       x2="694.5"
       y1="482.20999"
       x1="694.5"
       id="e954bb2d-a63d-48e0-a08e-512ca674347f"
       gradientTransform="matrix(1.2219845,0,0,1.2219845,-225.85933,-561.7036)" />
    <linearGradient
       xlink:href="#78f90e6d-b24a-44d2-9f86-3fdf1c79ab28"
       y2="235.33"
       x2="546.26001"
       y1="486.32999"
       x1="546.26001"
       id="d9f3a3cc-a090-4b27-9824-db9019e9fbdf"
       gradientTransform="matrix(1.2219845,0,0,1.2219845,-225.85933,-561.7036)" />
    <linearGradient
       xlink:href="#78f90e6d-b24a-44d2-9f86-3fdf1c79ab28"
       y2="390.79001"
       x2="622.57001"
       y1="508.79001"
       x1="622.57001"
       id="bebe624b-dd80-4bfd-b5fb-36f1f92addf2"
       gradientTransform="matrix(1.2219845,0,0,1.2219845,-404.63566,-866.53986)" />
    <linearGradient
       xlink:href="#78f90e6d-b24a-44d2-9f86-3fdf1c79ab28"
       y2="13.33"
       x2="249.25999"
       y1="486.32999"
       x1="249.25999"
       id="a99917ae-4a89-472a-9152-7d4c890b2f20" />
    <linearGradient
       xlink:href="#78f90e6d-b24a-44d2-9f86-3fdf1c79ab28"
       y2="2.3699999"
       x2="250.25999"
       y1="175.33"
       x1="250.25999"
       id="3d13e601-7b74-41be-a4f6-2a2c5df3e3e7" />
    <linearGradient
       xlink:href="#78f90e6d-b24a-44d2-9f86-3fdf1c79ab28"
       y2="560.79999"
       x2="257.42999"
       y1="684.35999"
       x1="257.42999"
       id="1919e53f-dd67-48bc-94b3-535fb113a6c8" />
    <linearGradient
       xlink:href="#78f90e6d-b24a-44d2-9f86-3fdf1c79ab28"
       y2="349.10999"
       x2="106.14"
       y1="486.72"
       x1="106.14"
       id="595c306e-168d-4085-ab46-670711e52ff5"
       gradientTransform="matrix(1.1050527,0,0,1.1050527,-113.10664,-504.83616)" />
    <linearGradient
       xlink:href="#78f90e6d-b24a-44d2-9f86-3fdf1c79ab28"
       y2="560.79999"
       x2="208.42999"
       y1="684.35999"
       x1="208.42999"
       id="c7fb197d-4001-483a-882b-f14ca460811a" />
    <linearGradient
       xlink:href="#78f90e6d-b24a-44d2-9f86-3fdf1c79ab28"
       y2="349.10999"
       x2="57.139999"
       y1="486.72"
       x1="57.139999"
       id="6a841889-cb28-426a-925d-d1c1f8724da8"
       gradientTransform="matrix(1.1050527,0,0,1.1050527,-113.10664,-504.83616)" />
    <linearGradient
       xlink:href="#78f90e6d-b24a-44d2-9f86-3fdf1c79ab28"
       y2="561.46002"
       x2="221.48"
       y1="685.84998"
       x1="221.48"
       id="5c82545c-e5e3-4953-955f-bf0089f1e97a" />
    <linearGradient
       xlink:href="#78f90e6d-b24a-44d2-9f86-3fdf1c79ab28"
       y2="348.16"
       x2="79.75"
       y1="486.25"
       x1="79.75"
       id="53fdcf2b-8327-4d89-b36d-71a6ad642ea4"
       gradientTransform="matrix(1.1050527,0,0,1.1050527,-113.10664,-504.83616)" />
    <linearGradient
       gradientUnits="userSpaceOnUse"
       y2="255.28"
       x2="791.07001"
       y1="652.59998"
       x1="791.07001"
       id="2fa7ee9e-16f3-4285-a1b9-f91a38b07546"
       gradientTransform="matrix(0.26458333,0,0,0.26458333,-715.2217,-736.70074)">
      <stop
         id="stop5771"
         stop-opacity="0.25"
         stop-color="#b3b3b3"
         offset="0" />
      <stop
         id="stop5773"
         stop-opacity="0.1"
         stop-color="#b3b3b3"
         offset="0.54" />
      <stop
         id="stop5775"
         stop-opacity="0.05"
         stop-color="#b3b3b3"
         offset="1" />
    </linearGradient>
    <linearGradient
       gradientUnits="userSpaceOnUse"
       y2="377.85001"
       x2="668.28998"
       y1="396.98001"
       x1="668.28998"
       id="1d6e68af-1823-4deb-b27c-c7781de2c421">
      <stop
         id="stop5778"
         stop-opacity="0.12"
         offset="0" />
      <stop
         id="stop5780"
         stop-opacity="0.09"
         offset="0.55" />
      <stop
         id="stop5782"
         stop-opacity="0.02"
         offset="1" />
    </linearGradient>
    <linearGradient
       xlink:href="#1d6e68af-1823-4deb-b27c-c7781de2c421"
       y2="316.56"
       x2="756.12"
       y1="375.04001"
       x1="756.12"
       id="4b1a7092-3747-45a4-a541-b9b6a299c3dc"
       gradientTransform="matrix(0.26458333,0,0,0.26458333,-715.2217,-736.70074)" />
    <linearGradient
       inkscape:collect="always"
       xlink:href="#78f90e6d-b24a-44d2-9f86-3fdf1c79ab28"
       id="linearGradient6065"
       gradientUnits="userSpaceOnUse"
       x1="1001.2"
       y1="623.60999"
       x2="1001.2"
       y2="406.10999" />
  </defs>
  <sodipodi:namedview
     id="base"
     pagecolor="#ffffff"
     bordercolor="#666666"
     borderopacity="1.0"
     inkscape:pageopacity="0.0"
     inkscape:pageshadow="2"
     inkscape:zoom="0.13391522"
     inkscape:cx="1916.7159"
     inkscape:cy="705.29688"
     inkscape:document-units="mm"
     inkscape:current-layer="layer1"
     showgrid="false"
     showguides="true"
     inkscape:guide-bbox="true"
     inkscape:window-width="1600"
     inkscape:window-height="838"
     inkscape:window-x="-8"
     inkscape:window-y="-8"
     inkscape:window-maximized="1" />
  <metadata
     id="metadata5">
    <rdf:RDF>
      <cc:Work
         rdf:about="">
        <dc:format>image/svg+xml</dc:format>
        <dc:type
           rdf:resource="http://purl.org/dc/dcmitype/StillImage" />
        <dc:title />
      </cc:Work>
    </rdf:RDF>
  </metadata>
  <g
     inkscape:label="Layer 1"
     inkscape:groupmode="layer"
     id="layer1"
     transform="translate(601.9647,617.88305)">
    <g
       id="g6935"
       transform="matrix(1.0994406,0,0,1.0994406,14.979142,-3.5074047)">
      <circle
         id="circle5792"
         stroke-miterlimit="10"
         r="222.40118"
         cy="-319.09085"
         cx="624.27533"
         style="opacity:0.3;fill:none;stroke:#ff9800;stroke-width:4.88793802;stroke-miterlimit:10;stroke-dasharray:14.66381422" />
      <g
         transform="matrix(1.2219845,0,0,1.2219845,-281.95135,-543.71182)"
         data-name="&lt;Group&gt;"
         id="ff8ee4b4-5abc-4927-bead-5d69132ee8f9">
        <path
           id="path5794"
           transform="translate(-146.3,-249.46)"
           d="m 912.36,518.33 a 45,45 0 0 1 -12.22,-30.79 45.71,45.71 0 0 1 22.42,-39.07 26.53,26.53 0 0 1 -4.68,-15 c 0,-15.09 12.66,-27.32 28.28,-27.32 a 28.15,28.15 0 0 1 27.13,19.67 42.43,42.43 0 0 1 36.08,-19.67 c 23.27,0 42.14,18.23 42.14,40.71 a 39.4,39.4 0 0 1 -2.58,14.05 c 0.85,-0.06 1.71,-0.13 2.58,-0.13 18.68,0 33.82,14.63 33.82,32.68 a 31.94,31.94 0 0 1 -0.17,3.3 c 14.94,6.22 25.4,20.57 25.4,37.28 0,22.41 -18.8,40.58 -42,40.58 a 43.65,43.65 0 0 1 -7.27,-0.62 c 0.12,1.35 0.2,2.72 0.2,4.1 0,25.15 -21.1,45.54 -47.13,45.54 a 48,48 0 0 1 -26.84,-8.11 35.78,35.78 0 0 1 -22.79,8.11 c -19.45,0 -35.21,-15.23 -35.21,-34 0,-0.81 0.07,-1.61 0.13,-2.41 h -0.13 c -20.82,0 -37.7,-16.31 -37.7,-36.43 a 36.3,36.3 0 0 1 20.54,-32.47 z"
           inkscape:connector-curvature="0"
           style="fill:url(#linearGradient6065)" />
      </g>
      <path
         d="m 658.81788,-215.34014 a 52.667535,52.667535 0 0 1 -14.285,-36.01188 53.461824,53.461824 0 0 1 26.22379,-45.70224 31.026187,31.026187 0 0 1 -5.47447,-17.58434 c 0,-17.64545 14.81046,-31.95492 33.07911,-31.95492 a 32.993582,32.993582 0 0 1 31.77158,22.99776 49.637011,49.637011 0 0 1 42.12181,-22.98553 c 27.22583,0 49.28266,21.32364 49.28266,47.6574 a 46.093256,46.093256 0 0 1 -3.01834,16.43572 c 1.00203,-0.0734 2.00407,-0.14641 3.01834,-0.14641 21.84908,0 39.55562,17.10775 39.55562,38.22364 a 37.356067,37.356067 0 0 1 -0.20782,3.8615 c 17.47436,7.33191 29.70643,24.06085 29.70643,43.60039 0,26.21156 -21.99571,47.4619 -49.12377,47.4619 a 51.054515,51.054515 0 0 1 -8.55388,-0.721 c 0.14641,1.57636 0.23231,3.17718 0.23231,4.7902 0,29.41316 -24.68412,53.254035 -55.12375,53.254035 a 56.211287,56.211287 0 0 1 -31.39275,-9.482575 41.85297,41.85297 0 0 1 -26.55374,9.507005 c -22.74111,0 -41.1809,-17.816465 -41.1809,-39.787755 0,-0.95317 0.0734,-1.88187 0.14641,-2.8228 h -0.14641 c -24.35412,0 -44.10141,-19.0752 -44.10141,-42.6106 a 42.463962,42.463962 0 0 1 24.02422,-37.97927 z"
         data-name="&lt;Path&gt;"
         id="c200c6c4-addf-434c-9e0f-5ce7230e9a19"
         inkscape:connector-curvature="0"
         style="fill:#009688;stroke-width:1.22198451" />
      <line
         y2="24.962873"
         x2="752.25031"
         y1="-271.05032"
         x1="752.25031"
         data-name="&lt;Path&gt;"
         id="4f2fbb80-d4ec-4696-8eab-975803e285fc"
         style="fill:#795548;stroke-width:1.22198451" />
      <rect
         id="rect5799"
         height="296.00131"
         width="16.117975"
         y="-271.05032"
         x="743.9165"
         style="fill:url(#a2d5f515-de48-4f00-acad-c4726f878aac);stroke-width:1.22198451" />
      <rect
         id="rect5801"
         height="296.00131"
         width="8.9204874"
         y="-271.05032"
         x="747.79004"
         style="fill:#795548;stroke-width:1.22198451" />
      <line
         y2="-236.30986"
         x2="700.2915"
         y1="-182.39569"
         x1="753.1546"
         data-name="&lt;Path&gt;"
         id="964f69dd-bb5e-4ecb-a4f0-6b0cfaf1e31d"
         style="fill:#795548;stroke-width:1.22198451" />
      <rect
         id="rect5804"
         transform="rotate(-44.429998)"
         height="75.506424"
         width="8.9204874"
         y="321.48923"
         x="661.05493"
         style="fill:#795548;stroke-width:1.22198451" />
      <line
         y2="-174.50186"
         x2="807.9483"
         y1="-136.05823"
         x1="753.1546"
         data-name="&lt;Path&gt;"
         id="72c4e71e-02d3-4be2-bc6f-3754e61bbdeb"
         style="fill:#795548;stroke-width:1.22198451" />
      <rect
         id="rect5807"
         transform="rotate(-35.059999)"
         height="8.9204874"
         width="66.940308"
         y="316.78302"
         x="694.66595"
         style="fill:#795548;stroke-width:1.22198451" />
      <g
         transform="matrix(1.2219845,0,0,1.2219845,-281.95135,-543.71182)"
         data-name="&lt;Group&gt;"
         id="09ddf46a-2bb3-497c-83d6-f7ff730d3d58">
        <path
           id="path5809"
           transform="translate(-146.3,-249.46)"
           d="m 999.45,522.58 a 47.74,47.74 0 0 0 -9.85,-71.4 28.23,28.23 0 0 0 4.52,-15.37 c 0,-15.42 -12.22,-27.92 -27.3,-27.92 a 27.39,27.39 0 0 0 -26.2,20.1 40.49,40.49 0 0 0 -34.83,-20.1 c -22.47,0 -40.69,18.63 -40.69,41.61 a 42.37,42.37 0 0 0 2.49,14.36 c -0.82,-0.06 -1.65,-0.13 -2.49,-0.13 -18,0 -32.66,15 -32.66,33.4 0,1.14 0.06,2.26 0.17,3.37 a 41.51,41.51 0 0 0 -24.53,38.1 c 0,22.91 18.16,41.48 40.55,41.48 a 39.87,39.87 0 0 0 7,-0.63 c -0.12,1.38 -0.19,2.78 -0.19,4.19 0,25.7 20.37,46.54 45.51,46.54 a 44.59,44.59 0 0 0 25.91,-8.29 33.4,33.4 0 0 0 22,8.29 c 18.78,0 34,-15.57 34,-34.77 0,-0.83 -0.07,-1.65 -0.12,-2.47 h 0.12 c 20.11,0 36.4,-16.67 36.4,-37.23 a 37.32,37.32 0 0 0 -19.81,-33.13 z"
           inkscape:connector-curvature="0"
           style="fill:url(#70d1009e-dace-48dc-ab15-aedd5e3b03e6)" />
      </g>
      <path
         d="m 754.15711,-210.23225 a 54.757127,54.757127 0 0 0 -11.30333,-81.87294 32.382589,32.382589 0 0 0 5.18119,-17.63326 c 0,-17.69434 -14.01616,-32.02821 -31.31945,-32.02821 a 31.417222,31.417222 0 0 0 -29.99972,23.04663 46.435414,46.435414 0 0 0 -39.95892,-23.05887 c -25.77164,0 -46.66759,21.37254 -46.66759,47.73074 a 48.598324,48.598324 0 0 0 2.85946,16.47234 c -0.94093,-0.0734 -1.89405,-0.14641 -2.85946,-0.14641 -20.68818,0 -37.45379,17.1078 -37.45379,38.30922 0,1.30751 0.0609,2.59059 0.19536,3.86147 a 47.657397,47.657397 0 0 0 -28.10566,43.7104 c 0,26.27266 20.77375,47.57187 46.52097,47.57187 a 45.738881,45.738881 0 0 0 8.05285,-0.72101 c -0.1344,1.5886 -0.21983,3.18937 -0.21983,4.80239 0,29.48651 23.36432,53.376205 52.19093,53.376205 a 51.14005,51.14005 0 0 0 29.71869,-9.506946 38.309214,38.309214 0 0 0 25.23399,9.506946 c 21.53134,0 38.99351,-17.853105 38.99351,-39.885495 0,-0.95312 -0.0734,-1.89406 -0.1344,-2.83499 h 0.1344 c 23.05886,0 41.7552,-19.12406 41.7552,-42.70837 a 42.769459,42.769459 0 0 0 -22.81444,-37.99148 z"
         data-name="&lt;Path&gt;"
         id="c2060184-c570-49c2-acda-2f80a9472e25"
         inkscape:connector-curvature="0"
         style="fill:#00897b;stroke-width:1.22198451" />
      <rect
         id="rect5813"
         height="301.56137"
         width="12.122087"
         y="-271.16025"
         x="659.6972"
         style="fill:url(#9d354d98-a887-4f91-9102-a75a5431dd3b);stroke-width:1.22198451" />
      <rect
         id="rect5815"
         height="297.32104"
         width="6.0977025"
         y="-266.92001"
         x="663.14313"
         style="fill:#795548;stroke-width:1.22198451" />
      <rect
         id="rect5817"
         transform="rotate(-47.199999)"
         height="6.0977025"
         width="73.661224"
         y="364.28098"
         x="581.77789"
         style="fill:#795548;stroke-width:1.22198451" />
      <rect
         id="rect5819"
         transform="rotate(-53.400001)"
         height="64.63076"
         width="6.097703"
         y="391.15652"
         x="498.31372"
         style="fill:#795548;stroke-width:1.22198451" />
      <rect
         id="rect5848"
         height="306.71811"
         width="344.59961"
         y="-274.13409"
         x="269.362"
         style="fill:url(#d9f3a3cc-a090-4b27-9824-db9019e9fbdf);stroke-width:1.22198451" />
      <rect
         id="rect5850"
         height="296.94223"
         width="562.11285"
         y="-274.13409"
         x="43.295048"
         style="fill:#ffffff;stroke-width:1.22198451" />
      <path
         id="path5852"
         d="M 632.30376,-244.80637 H 79.966738 V -389.00054 H 612.14099 a 20.162744,20.162744 0 0 1 20.16277,20.16273 z"
         inkscape:connector-curvature="0"
         style="fill:url(#bebe624b-dd80-4bfd-b5fb-36f1f92addf2);stroke-width:1.22198451" />
      <path
         id="path5854"
         d="M 79.954497,-383.29384 H 607.38747 a 20.162744,20.162744 0 0 1 20.16277,20.16272 V -248.5212 H 79.954497 Z"
         inkscape:connector-curvature="0"
         style="fill:#f97526;stroke-width:1.22198451" />
      <path
         id="path5856"
         d="M 79.954497,-383.29384 H 607.38747 a 20.162744,20.162744 0 0 1 20.16277,20.16272 V -248.5212 H 79.954497 Z"
         inkscape:connector-curvature="0"
         style="opacity:0.7;fill:#ffffff;stroke-width:1.22198451" />
      <polygon
         transform="matrix(1.2219845,0,0,1.2219845,-225.85933,-561.7036)"
         id="polygon5858"
         points="93.26,123.18 93.26,215.75 93.26,486.32 405.26,486.32 405.26,215.75 405.26,123.18 249.26,13.32 "
         style="fill:url(#a99917ae-4a89-472a-9152-7d4c890b2f20)" />
      <polygon
         transform="matrix(1.2219845,0,0,1.2219845,-225.85933,-561.7036)"
         id="polygon5860"
         points="250.26,13.32 102.26,121.33 102.26,212.32 398.26,212.32 398.26,121.33 "
         style="fill:#f97526" />
      <polygon
         transform="matrix(1.2219845,0,0,1.2219845,-225.85933,-561.7036)"
         id="polygon5862"
         points="250.26,13.32 102.26,121.33 102.26,212.32 398.26,212.32 398.26,121.33 "
         style="opacity:0.5;fill:#ffffff" />
      <rect
         id="rect5864"
         height="325.04788"
         width="361.70743"
         y="-302.23962"
         x="-100.89909"
         style="fill:#ffffff;stroke-width:1.22198451" />
      <polygon
         transform="matrix(1.2219845,0,0,1.2219845,-225.85933,-561.7036)"
         id="polygon5866"
         points="430.26,133.38 417.26,175.32 250.26,56.07 81.26,175.32 70.26,133.38 250.26,2.37 "
         style="fill:url(#3d13e601-7b74-41be-a4f6-2a2c5df3e3e7)" />
      <polygon
         transform="matrix(1.2219845,0,0,1.2219845,-225.85933,-561.7036)"
         id="polygon5868"
         points="422.8,131.47 415.73,169.18 250.26,48.75 84.8,169.18 77.73,131.47 250.26,5.91 "
         style="fill:#f97526" />
      <polygon
         transform="matrix(1.2219845,0,0,1.2219845,-225.85933,-561.7036)"
         id="polygon5870"
         points="422.8,131.47 415.73,169.18 250.26,48.75 84.8,169.18 77.73,131.47 250.26,5.91 "
         style="opacity:0.2" />
      <rect
         id="rect5872"
         height="254.17279"
         width="127.43031"
         y="-231.36455"
         x="115.03918"
         style="fill:#f2f2f2;stroke-width:0.96275234" />
      <rect
         id="rect5874"
         height="43.99144"
         width="127.43032"
         y="-231.36455"
         x="115.03918"
         style="fill:#a1b7c3;fill-opacity:1;stroke-width:0.96275234" />
      <rect
         id="rect5876"
         height="43.99144"
         width="127.43031"
         y="-21.183073"
         x="115.03918"
         style="fill:#a1b7c3;fill-opacity:1;stroke-width:0.96275234" />
      <path
         id="path5878"
         d="m 423.74766,-68.583995 a 1.8329768,1.8329768 0 0 0 0,-3.665953 1.8329768,1.8329768 0 0 0 0,3.665953 z"
         inkscape:connector-curvature="0"
         style="fill:#00ff00;stroke-width:1.22198451" />
      <rect
         id="rect5880"
         height="185.74165"
         width="100.20273"
         y="-162.93349"
         x="373.23087"
         style="fill:#f2f2f2;stroke-width:1.22198451" />
      <rect
         id="rect5882"
         height="68.431137"
         width="94.092804"
         y="-202.03703"
         x="499.09521"
         style="fill:#f2f2f2;stroke-width:1.22198451" />
      <rect
         id="rect5884"
         height="30.549612"
         width="94.092804"
         y="-202.03703"
         x="499.09521"
         style="opacity:0.2;fill:#f97526;stroke-width:1.22198451" />
      <line
         id="line6689"
         stroke-miterlimit="10"
         y2="35.105999"
         x2="121.86484"
         y1="35.105999"
         x1="-150.63405"
         style="fill:none;stroke:#3f3d56;stroke-width:0.33070254;stroke-miterlimit:10" />
    </g>
    <path
       style="fill:#333333;stroke:#3f3d56;stroke-width:4.93289232;stroke-linecap:butt;stroke-linejoin:miter;stroke-miterlimit:4;stroke-dasharray:none;stroke-opacity:1"
       d="M -580.27364,36.858844 902.22993,30.444366"
       id="path16141"
       inkscape:connector-curvature="0" />
    <g
       id="g16671"
       transform="matrix(1.0663187,0,0,1.0663187,82.098795,-2.2249198)">
      <g
         transform="matrix(-1.133979,0,0,1.133979,-437.66012,-3.0779436)"
         id="g4237">
        <path
           id="path3966"
           d="m 170.92302,-51.183805 h 8.84987 v -14.172734 l -44.28172,-63.761131 c -8.29976,0 -56.674738,0 -56.674738,0 v -47.82488 H -144.33941 v 28.34547 h 15.93624 c 3.54319,0 7.08637,3.54318 7.08637,7.08637 0,3.54318 -3.54318,7.07018 -7.08637,7.07018 h -15.93624 v -14.09184 h -50.65619 c -3.54318,0 -7.08637,3.54318 -7.08637,7.08637 0,3.54318 3.54319,7.08637 7.08637,7.08637 h 50.65619 v 10.56483 h 46.045207 c 3.543179,0 7.086367,3.54318 7.086367,7.08637 0,3.54318 -3.543188,7.07019 -7.086367,7.07019 h -46.045207 v -14.10803 h -20.54722 c -3.54319,0 -7.08637,3.54319 -7.08637,7.08637 0,3.54319 3.54318,7.08637 7.08637,7.08637 h 20.54722 v 10.564835 h 15.93624 c 3.54319,0 7.08637,3.543188 7.08637,7.08637 0,3.543185 -3.54318,7.086367 -7.08637,7.086367 h -15.93624 v -14.108017 h -50.65619 c -3.54318,0 -7.08637,3.543183 -7.08637,7.086365 0,3.543185 3.54319,7.086367 7.08637,7.086367 h 50.65619 v 12.328337 h 46.045207 c 3.543179,0 7.086367,3.543182 7.086367,7.086367 0,3.543183 -3.543188,7.086368 -7.086367,7.086368 h -46.045207 v -14.140376 h -20.54722 c -3.54319,0 -7.08637,3.543184 -7.08637,7.086367 0,3.543182 3.54318,7.086366 7.08637,7.086366 h 20.54722 v 54.8788929 h 18.07185 c 1.86058,-19.6412079 18.55723,-35.4318319 38.602906,-35.4318319 19.430883,0 35.739235,14.868426 38.408753,33.6521519 h 128.072333 4.093263 c 2.669511,-18.7837259 18.977865,-33.6521519 38.408755,-33.6521519 19.43088,0 35.73922,14.868426 38.40876,33.6521519 h 20.0295 V -37.011073 h -8.84989 c -3.54317,0 -7.08635,-3.543184 -7.08635,-7.086365 0,-3.543186 3.55937,-7.086367 7.10255,-7.086367 z M 154.77646,-73.88283 c -0.55008,1.310494 -2.84749,2.847492 -4.28742,2.847492 H 99.104787 c -2.847491,0 -5.71116,-2.847492 -5.71116,-5.71116 v -35.674522 c 0,-2.84749 2.847491,-5.71116 5.71116,-5.71116 h 27.115853 c 1.42378,0 2.8475,1.42375 4.28744,2.84749 l 24.26838,35.674523 c 1.42373,1.439922 0.76041,3.850582 0,5.727337 z"
           inkscape:connector-curvature="0"
           style="fill:#f55f44;fill-opacity:1;stroke-width:16.17891884" />
        <path
           id="path3968"
           d="m -87.664654,-28.436247 c -17.359976,0 -30.367836,13.024031 -30.367836,30.3678329 0,17.3599801 13.02404,30.3678321 30.367836,30.3678321 17.359981,0 30.367832,-13.02403 30.367832,-30.3678321 0,-17.3438019 -13.007851,-30.3678329 -30.367832,-30.3678329 z m 0,41.951937 c -6.39067,0 -11.584109,-5.1772521 -11.584109,-11.5841041 0,-6.390673 5.193439,-11.5841051 11.584109,-11.5841051 6.390674,0 11.584105,5.1772521 11.584105,11.5841051 0,6.406852 -5.193431,11.5841041 -11.584105,11.5841041 z"
           inkscape:connector-curvature="0"
           style="fill:#3f3d56;fill-opacity:1;stroke-width:16.17891884" />
        <path
           id="path3970"
           d="m 121.43171,-28.436247 c -17.35999,0 -30.367846,13.024031 -30.367846,30.3678329 0,17.3599801 13.024036,30.3678321 30.367846,30.3678321 17.35998,0 30.36785,-13.02403 30.36785,-30.3678321 0.017,-17.3438019 -13.00787,-30.3678329 -30.36785,-30.3678329 z m 0,41.951937 c -6.39067,0 -11.58412,-5.1772521 -11.58412,-11.5841041 0,-6.390673 5.17727,-11.5841051 11.58412,-11.5841051 6.39066,0 11.58411,5.1772521 11.58411,11.5841051 0,6.406852 -5.17725,11.5841041 -11.58411,11.5841041 z"
           inkscape:connector-curvature="0"
           style="fill:#3f3d56;fill-opacity:1;stroke-width:16.17891884" />
      </g>
      <g
         id="g16661">
        <circle
           style="opacity:1;fill:#ffffff;fill-opacity:1;fill-rule:nonzero;stroke:#ffffff;stroke-width:8;stroke-linecap:round;stroke-linejoin:miter;stroke-miterlimit:4;stroke-dasharray:none;stroke-opacity:1;paint-order:markers fill stroke"
           id="path4249-2"
           cx="473.86334"
           cy="-206.05734"
           r="55.862019"
           transform="scale(-1,1)" />
        <path
           inkscape:connector-curvature="0"
           d="m -473.86334,-152.08683 c 29.91138,0 53.75375,-24.27589 53.75375,-53.75377 0,-29.47786 -24.27588,-54.18725 -53.75375,-54.18725 -29.47786,0 -53.75375,24.2759 -53.75375,53.75377 0,29.47786 23.84239,54.18725 53.75375,54.18725 z m 0,-98.40406 c 24.27589,0 44.21682,19.94092 44.21682,44.21681 0,24.27589 -19.94093,44.21679 -44.21682,44.21679 -24.27589,0 -44.21679,-19.9409 -44.21679,-44.21679 0,-24.27589 19.9409,-44.21681 44.21679,-44.21681 z"
           id="path829"
           style="fill:#016868;fill-opacity:1;stroke:#ffffff;stroke-width:8.98758888;stroke-miterlimit:4;stroke-dasharray:none;stroke-opacity:0" />
        <path
           inkscape:connector-curvature="0"
           d="m -453.39921,-229.68299 c -1.3005,-1.30049 -3.03449,-1.73398 -4.33498,-0.4335 l -16.03943,13.00494 c 0,0 0,0 0,0 -6.06899,0 -10.83745,4.76848 -10.83745,10.83745 0,6.06897 4.76846,10.83745 10.83745,10.83745 6.06897,0 10.83745,-4.76848 10.83745,-10.83745 0,-0.43351 0,-1.3005 0,-1.734 l 10.40396,-18.20691 c 0,-1.30049 0,-2.60099 -0.867,-3.46799 z"
           id="path831"
           style="fill:#016868;fill-opacity:1;stroke-width:4.33498049" />
      </g>
    </g>
    <g
       id="g7242"
       transform="matrix(1.7073404,0,0,1.7073404,161.75776,-24.132911)">
      <path
         id="path6669"
         d="M -14.268137,33.683847 H -141.53364 A 15.735859,15.735859 0 0 1 -157.2695,17.947989 v -58.306744 a 6.2340174,6.2340174 0 0 1 1.9453,-4.524361 l 67.438126,-63.925734 a 14.514323,14.514323 0 0 1 19.970376,0 l 64.298683,60.949791 a 16.294885,16.294885 0 0 1 5.084743,11.826072 v 53.980976 a 15.735859,15.735859 0 0 1 -15.735865,15.735858 z"
         inkscape:connector-curvature="0"
         style="fill:#3f3d56;stroke-width:0.33070254" />
      <path
         id="path6671"
         d="M -157.2695,-39.401416 H 0.14491 v 63.583424 a 9.501838,9.501838 0 0 1 -9.501838,9.501838 H -147.76766 a 9.501838,9.501838 0 0 1 -9.50184,-9.501838 z"
         inkscape:connector-curvature="0"
         style="opacity:0.1;stroke-width:0.33070254" />
      <rect
         id="rect6675"
         rx="8.6581564"
         height="117.0687"
         width="117.0687"
         y="-89.502853"
         x="-136.60059"
         style="fill:#a0b5b1;stroke-width:0.33070254" />
      <polygon
         transform="matrix(0.33070254,0,0,0.33070254,-236.95366,-167.71121)"
         id="polygon6677"
         points="657.454,590.492 303.454,590.492 303.454,395.942 480.454,481.492 657.454,395.942 "
         style="opacity:0.1" />
      <path
         id="path6679"
         d="M -78.066239,-4.8429984 -153.06752,-41.093619 a 3.0430752,3.0430752 0 0 0 -4.36733,2.739828 v 62.370446 a 9.501838,9.501838 0 0 0 9.50184,9.501841 H -8.199468 A 9.501838,9.501838 0 0 0 1.30237,24.016655 v -61.301999 a 3.7133563,3.7133563 0 0 0 -5.329294,-3.34332 z"
         inkscape:connector-curvature="0"
         style="fill:#3f3d56;stroke-width:0.33070254" />
      <rect
         id="rect6681"
         height="4.6298356"
         width="32.739552"
         y="-78.75502"
         x="-126.51416"
         style="fill:#f2f2f2;stroke-width:0.33070254" />
      <rect
         id="rect6683"
         height="2.6456203"
         width="97.226547"
         y="-61.889194"
         x="-129.15979"
         style="fill:#f2f2f2;stroke-width:0.33070254" />
      <rect
         id="rect6685"
         height="2.6456203"
         width="97.226547"
         y="-52.960224"
         x="-129.15979"
         style="fill:#f2f2f2;stroke-width:0.33070254" />
      <rect
         id="rect6687"
         height="2.6456203"
         width="97.226547"
         y="-44.031258"
         x="-129.15979"
         style="fill:#f2f2f2;stroke-width:0.33070254" />
      <path
         id="path6703"
         d="m 1.057287,-113.88257 c -0.198753,1.77076 -1.549381,3.19718 -2.04982,4.90733 -0.753235,2.57403 0.549221,5.33618 2.330861,7.34086 a 16.257046,16.257046 0 0 0 11.321151,5.375424 4.8283431,4.8283431 0 0 0 1.871813,-0.204004 4.0069276,4.0069276 0 0 0 1.424098,-0.973231 c 1.341743,-1.347239 2.06199,-3.213939 2.349026,-5.093549 0.287037,-1.87962 0.175488,-3.79453 0.06325,-5.69262 a 3.2146337,3.2146337 0 0 0 -0.210327,-1.1482 2.9419728,2.9419728 0 0 0 -0.739031,-0.90852 17.219599,17.219599 0 0 0 -3.171397,-2.30383 3.6406249,3.6406249 0 0 1 -1.328889,-1.01686 3.2862176,3.2862176 0 0 1 -0.410785,-1.21743 l -0.350363,-1.78542 a 3.5084398,3.5084398 0 0 0 -0.514527,-1.4473 c -0.618943,-0.83495 -1.802891,-0.94857 -2.841429,-0.98931 l -3.804782,-0.14925 c -1.183505,-0.0464 -2.74292,-0.38582 -3.898282,-0.15339 -1.078881,0.21705 -0.720509,1.21124 -0.524531,2.1165 a 15.300479,15.300479 0 0 1 0.483967,3.3428 z"
         inkscape:connector-curvature="0"
         style="fill:#a0616a;stroke-width:0.33070254" />
      <path
         id="path6705"
         d="m 1.057287,-113.88257 c -0.198753,1.77076 -1.549381,3.19718 -2.04982,4.90733 -0.753235,2.57403 0.549221,5.33618 2.330861,7.34086 a 16.257046,16.257046 0 0 0 11.321151,5.375424 4.8283431,4.8283431 0 0 0 1.871813,-0.204004 4.0069276,4.0069276 0 0 0 1.424098,-0.973231 c 1.341743,-1.347239 2.06199,-3.213939 2.349026,-5.093549 0.287037,-1.87962 0.175488,-3.79453 0.06325,-5.69262 a 3.2146337,3.2146337 0 0 0 -0.210327,-1.1482 2.9419728,2.9419728 0 0 0 -0.739031,-0.90852 17.219599,17.219599 0 0 0 -3.171397,-2.30383 3.6406249,3.6406249 0 0 1 -1.328889,-1.01686 3.2862176,3.2862176 0 0 1 -0.410785,-1.21743 l -0.350363,-1.78542 a 3.5084398,3.5084398 0 0 0 -0.514527,-1.4473 c -0.618943,-0.83495 -1.802891,-0.94857 -2.841429,-0.98931 l -3.804782,-0.14925 c -1.183505,-0.0464 -2.74292,-0.38582 -3.898282,-0.15339 -1.078881,0.21705 -0.720509,1.21124 -0.524531,2.1165 a 15.300479,15.300479 0 0 1 0.483967,3.3428 z"
         inkscape:connector-curvature="0"
         style="opacity:0.1;stroke-width:0.33070254" />
      <path
         id="path6707"
         d="m 25.260774,-34.17968 q -0.808568,8.865576 -1.617119,17.728411 c -0.421976,4.649902 -0.852121,9.3188665 -1.679731,13.9088623 -0.285866,1.58172382 -0.620728,3.1552925 -1.0182,4.7152362 -1.1053,4.3313666 -2.708784,8.5647295 -3.226063,13.0050125 -0.01634,0.127946 -0.02993,0.25861 -0.04355,0.389307 a 11.30625,11.30625 0 0 1 -0.55266,2.88576 c -0.258632,0.67788 -0.656114,1.295874 -0.936513,1.965596 -0.558094,1.339428 -0.631606,2.820427 -0.699664,4.271464 A 18.414179,18.414179 0 0 0 9.146757,22.522931 C 8.071398,22.362302 6.873544,22.247965 6.14121,21.444841 5.329917,20.557328 5.419762,19.198841 5.555866,18.006421 Q 6.197003,12.452692 6.835407,6.9044057 A 28.934845,28.934845 0 0 1 7.643959,2.1891695 C 7.790982,1.6746261 7.967928,1.168261 8.147619,0.6618959 8.395351,-0.0350432 8.645809,-0.73198554 8.833658,-1.4479863 A 25.408485,25.408485 0 0 0 9.399926,-4.96264 c 0.438304,-3.7242728 0.966455,-7.440384 1.42927,-11.161932 l 0.02451,-0.196007 c 0.694214,-5.640866 1.222366,-11.308949 1.069912,-16.990643 -0.02179,-0.841218 -0.05718,-1.682456 -0.111628,-2.526399 -0.07622,-1.222366 -0.187839,-1.870302 0.824901,-2.635302 1.118912,-0.843953 2.591716,-1.434724 3.871276,-1.987381 0.688781,-0.299461 8.273444,-2.991938 8.450406,-2.401161 a 14.778306,14.778306 0 0 1 0.555369,3.871273 43.074998,43.074998 0 0 1 -0.253166,4.810512 z"
         inkscape:connector-curvature="0"
         style="fill:#f55f44;fill-opacity:1;stroke-width:0.33070254" />
      <path
         id="path6709"
         d="m 21.963924,-2.5424067 c -0.285866,1.58172382 -0.620728,3.1552925 -1.0182,4.7152362 -1.1053,4.3313666 -2.708784,8.5647295 -3.226063,13.0050125 -0.01634,0.127946 -0.02993,0.25861 -0.04355,0.389307 C 14.29485,10.737569 11.447207,5.5431878 8.147635,0.6618893 8.395368,-0.0350498 8.645825,-0.73199215 8.833674,-1.4479929 a 25.408485,25.408485 0 0 0 0.566269,-3.5146537 c 0.438303,-3.7242728 0.966455,-7.4403834 1.42927,-11.1619314 l 0.02451,-0.196008 a 11.562555,11.562555 0 0 0 0.824884,2.28955 c 2.216058,4.5028986 7.481213,6.7788398 10.056628,11.0884197 q 0.118418,0.2001214 0.228691,0.4002096 z"
         inkscape:connector-curvature="0"
         style="opacity:0.1;stroke-width:0.33070254" />
      <path
         id="path6711"
         d="m -5.472776,-42.137273 c 0.111679,3.611543 0.689806,7.190498 1.266737,10.757423 l 1.190347,7.359352 c 0.651484,4.027795 1.329755,8.137673 3.235832,11.745231 1.425853,2.6986321 3.480154,5.0014627 5.338587,7.4225988 4.568781,5.9521332 8.001047,12.6946487 12.333254,18.8211182 1.259219,1.780751 3.059137,3.706557 5.208194,3.334728 1.410447,-0.244038 2.434874,-1.41834 3.543564,-2.323741 1.307108,-1.067438 2.882479,-1.848511 3.910931,-3.18651 1.028452,-1.338 1.229956,-3.5620337 -0.163397,-4.5141495 A 7.3508131,7.3508131 0 0 0 28.796503,6.6262353 C 26.63652,5.8047702 25.238452,3.69547 24.348885,1.5626271 23.459318,-0.5702158 22.920352,-2.8635784 21.734979,-4.8473207 19.159828,-9.1568841 13.893919,-11.432726 11.677323,-15.937219 c -1.241484,-2.522903 -1.359806,-5.43077 -1.454701,-8.240988 l -0.241909,-7.163708 c -0.02646,-0.783391 -0.04715,-1.598143 0.271305,-2.314376 0.847871,-1.906913 3.407873,-2.084527 5.480733,-2.326277 a 18.748271,18.748271 0 0 0 6.716598,-2.119105 c 1.193913,-0.644715 2.360324,-1.4666 2.999033,-2.663733 0.582717,-1.092192 0.663134,-2.373228 0.731467,-3.609258 l 0.717727,-12.982658 c 0.06175,-1.116951 0.118061,-2.271847 -0.275607,-3.31893 -0.988493,-2.629244 -4.308571,-3.488406 -7.114692,-3.362961 -5.221793,0.233437 -10.042321,2.479684 -14.965817,3.996597 a 38.048835,38.048835 0 0 1 -3.709626,0.967586 c -1.104983,0.221746 -2.442282,0.129738 -3.496148,0.485028 -1.874184,0.63185 -1.826596,4.730495 -2.092355,6.430666 a 54.13384,54.13384 0 0 0 -0.716107,10.022063 z"
         inkscape:connector-curvature="0"
         style="fill:#f55f44;fill-opacity:1;stroke-width:0.33070254" />
      <path
         id="path6713"
         d="m 22.391156,17.847505 c 0.46046,0.464369 0.610973,1.144677 0.730918,1.787543 a 61.047312,61.047312 0 0 1 1.033776,10.811456 1.7654489,1.7654489 0 0 0 0.194586,0.979574 1.2307062,1.2307062 0 0 0 0.508597,0.408729 c 1.330827,0.634287 2.875512,-0.249681 3.98446,-1.221099 2.055739,-1.800815 3.795235,-4.217936 3.911999,-6.948391 a 16.131462,16.131462 0 0 1 0.07375,-2.107287 c 0.180564,-1.027949 0.780832,-1.923597 1.309746,-2.823333 a 23.828014,23.828014 0 0 0 2.16449,-4.852018 c 0.20218,-0.636047 0.33665,-1.436922 -0.16175,-1.880811 a 1.8127923,1.8127923 0 0 0 -0.59246,-0.307997 L 29.537571,9.461725 c -0.520952,-0.193428 -1.817263,3.136482 -2.02301,3.50052 -0.503289,0.890476 -1.003722,1.395994 -2.013423,1.601539 -1.030667,0.209811 -2.25758,-0.09125 -3.219277,0.422969 -1.626811,0.869833 -0.811815,1.931812 0.109298,2.860752 z"
         inkscape:connector-curvature="0"
         style="fill:#1a1a1a;stroke-width:0.33070254" />
      <path
         id="path6715"
         d="m 13.114976,19.902421 a 1.8433823,1.8433823 0 0 0 -0.45759,-0.580148 2.0697382,2.0697382 0 0 0 -0.922991,-0.313569 C 10.589906,18.814377 9.233385,18.686421 8.443465,19.537094 7.70289,20.334633 7.830207,21.63387 7.211059,22.52896 7.015055,22.812319 6.749484,23.045848 6.579546,23.345564 A 3.0788175,3.0788175 0 0 0 6.3025,24.810222 c -0.03195,1.38738 -0.06386,2.777114 0.03198,4.161561 0.08031,1.160104 0.275862,2.375767 1.001328,3.284627 1.16442,1.458762 3.264536,1.668523 5.128644,1.763203 l 1.50974,0.07668 a 2.9473037,2.9473037 0 0 0 1.237264,-0.113431 2.0367407,2.0367407 0 0 0 1.067206,-1.174202 c 0.785872,-1.953288 -0.458684,-4.057744 -1.225305,-6.018667 -0.881141,-2.253914 -0.722919,-4.756588 -1.938377,-6.887572 z"
         inkscape:connector-curvature="0"
         style="fill:#1a1a1a;stroke-width:0.33070254" />
      <path
         id="path6717"
         d="m 0.619876,-123.86006 a 1.2478531,1.2478531 0 0 1 0.08488,-0.58208 c 0.221128,-0.39099 0.798535,-0.28458 1.2341,-0.17477 1.751652,0.44162 3.597332,0.0419 5.400845,0.14504 1.803513,0.10317 3.835042,1.00479 4.197667,2.77447 a 13.169967,13.169967 0 0 0 3.329718,-3.42123 c 0.500535,-0.74904 0.936821,-1.60701 0.86868,-2.50532 -0.09828,-1.29569 -1.18538,-2.26469 -2.19196,-3.08641 l -3.000543,-2.44951 a 4.5215999,4.5215999 0 0 0 -1.343466,-0.85415 c -0.692891,-0.23678 -1.448497,-0.12397 -2.180729,-0.1235 -2.184194,0.001 -4.512968,-0.99262 -6.455545,0.006 -0.811458,0.41712 -1.422222,1.13192 -2.011002,1.82889 l -2.678029,3.17009 a 1.693369,1.693369 0 0 0 -0.428081,0.72592 c -0.07619,0.38696 0.122525,0.76884 0.19187,1.15707 0.126497,0.7082 -0.178526,1.46402 0.05598,2.14413 0.389313,1.12906 1.760191,1.28889 2.598284,1.93616 0.312362,0.24125 0.80191,1.05883 1.174076,1.04884 0.671495,-0.018 1.135802,-1.21787 1.153259,-1.73957 z"
         inkscape:connector-curvature="0"
         style="fill:#3f3d56;stroke-width:0.33070254" />
      <circle
         id="circle6719"
         r="8.5756292"
         cy="-123.09126"
         cx="5.1638556"
         style="fill:#a0616a;stroke-width:0.33070254" />
      <path
         id="path6721"
         d="m 7.172417,-104.32333 a 4.1541993,4.1541993 0 0 0 -4.044268,-2.78313 1.2331567,1.2331567 0 0 1 -0.745982,-0.0943 1.0282005,1.0282005 0 0 1 -0.306591,-0.38332 14.980494,14.980494 0 0 1 -1.250386,-2.95599 c -0.136809,-0.45391 -0.323894,-0.98903 -0.783048,-1.10704 a 1.0578645,1.0578645 0 0 0 -0.998205,0.43421 8.7933177,8.7933177 0 0 1 -0.713458,0.89669 c -1.078553,0.96436 -2.990444,0.0854 -4.135207,0.97016 -0.186989,0.14451 -0.341308,0.32965 -0.537703,0.4611 a 2.5112493,2.5112493 0 0 1 -0.629657,0.26996 60.393341,60.393341 0 0 0 -6.490411,2.54203 c 0.761465,4.58579 1.541735,9.251529 3.326632,13.543786 0.849407,2.042638 1.811996,4.04317 2.492175,6.148207 1.507084,4.664116 1.573899,9.654497 1.590815,14.556025 0.01157,3.354666 -0.0051,6.780953 -1.090452,9.955214 a 9.3958974,9.3958974 0 0 0 -0.612908,2.186876 c -0.06555,0.7564 0.154627,1.590402 0.767495,2.03854 a 2.6251994,2.6251994 0 0 0 1.184335,0.415981 c 1.880626,0.275948 3.776556,-0.224547 5.628309,-0.653399 4.963256,-1.149429 10.025181,-1.807154 15.07739,-2.463148 l 8.465935,-1.099256 a 4.9149474,4.9149474 0 0 0 1.75156,-0.452688 c 1.549169,-0.848203 1.696239,-3.178488 0.734199,-4.659655 -0.461211,-0.710088 -1.111938,-1.292631 -1.499458,-2.045472 -0.387521,-0.752841 -0.420521,-1.805596 0.246605,-2.327024 1.357028,-1.060659 0.952245,-3.028535 1.016966,-4.749679 q 0.271451,-7.218813 -0.07345,-14.443265 a 28.758425,28.758425 0 0 1 -0.0478,-2.995504 26.527136,26.527136 0 0 1 0.933689,-4.998519 l 2.572446,-10.12876 c -0.672011,-1.06193 -1.958718,-1.73567 -3.177621,-2.04157 -1.218904,-0.30589 -2.488425,-0.39592 -3.688815,-0.76789 -2.459197,-0.76203 -4.64857,-2.69588 -7.216809,-2.51565 a 1.3102236,1.3102236 0 0 0 -0.559341,0.13658 c -0.579232,0.32814 -0.487502,1.16287 -0.524527,1.82756 -0.08191,1.47059 -1.163541,2.69967 -2.358012,3.5614 -1.194471,0.86174 -2.558645,1.49009 -3.655715,2.47285 a 1.6314218,1.6314218 0 0 0 -0.648725,1.24811 z"
         inkscape:connector-curvature="0"
         style="fill:#3f3d56;stroke-width:0.33070254" />
      <path
         id="path6723"
         d="m -26.807081,-94.715898 a 10.124438,10.124438 0 0 1 -1.80381,0.92814 5.929351,5.929351 0 0 0 -1.727921,0.838559 2.7079148,2.7079148 0 0 0 -0.600857,0.742378 3.3014531,3.3014531 0 0 0 3.044312,4.918869 6.6271069,6.6271069 0 0 0 2.251248,-0.671224 l 6.048539,-2.621025 c 1.02374,-0.443618 2.129592,-0.963509 2.613463,-1.968848 a 0.45742445,0.45742445 0 0 0 0.05889,-0.312514 0.51663012,0.51663012 0 0 0 -0.248441,-0.261169 13.514821,13.514821 0 0 1 -3.521955,-3.321037 c -0.248156,-0.336923 -0.551794,-1.132465 -0.90257,-1.334468 -1.280289,-0.737298 -4.186152,2.397306 -5.2109,3.062339 z"
         inkscape:connector-curvature="0"
         style="fill:#a0616a;stroke-width:0.33070254" />
      <path
         id="path6725"
         d="m 37.854348,-96.866625 2.22997,2.547372 c 0.47873,0.546873 0.95798,1.09438 1.39437,1.675607 a 19.558052,19.558052 0 0 1 2.55401,4.811503 c 0.48473,1.271948 0.88705,2.626794 0.71766,3.977396 a 9.7299301,9.7299301 0 0 1 -0.55774,2.022765 25.180264,25.180264 0 0 1 -1.51528,3.649491 20.789784,20.789784 0 0 1 -1.70514,2.555312 59.672128,59.672128 0 0 1 -5.6529,6.465986 c -0.76237,0.754683 -1.08209,1.974955 -1.41395,2.995073 -0.61213,1.881602 -2.068653,3.347104 -3.477155,4.736795 a 9.6688461,9.6688461 0 0 1 -1.492983,1.28478 4.8628287,4.8628287 0 0 1 -2.717098,0.773814 2.9823053,2.9823053 0 0 1 -1.223855,-0.253345 c -0.963868,-0.457709 -1.453751,-1.572295 -1.554163,-2.634585 a 5.6041051,5.6041051 0 0 1 0.468907,-2.817807 c 1.279634,-2.834656 4.565679,-4.063011 6.888402,-6.131278 1.362005,-1.212795 2.403546,-2.736193 3.430785,-4.243089 a 14.666062,14.666062 0 0 0 1.73508,-3.041309 c 0.51872,-1.384089 0.31681,-3.022621 0.77,-4.429555 0.19155,-0.594706 0.53212,-1.131684 0.7381,-1.721555 0.20597,-0.589871 0.25783,-1.290097 -0.10249,-1.800533 a 2.6168194,2.6168194 0 0 0 -1.00963,-0.73916 c -1.48381,-0.753099 -3.145647,-1.722299 -3.429631,-3.361879 a 3.6017971,3.6017971 0 0 1 0.664381,-2.567674 10.698111,10.698111 0 0 1 1.87112,-1.961 c 0.64894,-0.573832 1.74026,-1.21929 2.38923,-1.793125 z"
         inkscape:connector-curvature="0"
         style="fill:#a0616a;stroke-width:0.33070254" />
      <path
         id="path6727"
         d="m -28.238705,-91.160006 c -0.393758,-0.795402 -0.886032,-1.60691 -1.680581,-2.002404 a 3.0967978,3.0967978 0 0 0 -2.442837,-0.01025 9.1848894,9.1848894 0 0 0 -2.143806,1.296354 l -1.922119,1.416895 a 4.7315134,4.7315134 0 0 0 -1.141149,1.05335 4.4462957,4.4462957 0 0 0 -0.594341,1.630661 11.6561,11.6561 0 0 0 -0.3022,4.033463 c 0.30503,2.167544 1.611844,4.059854 3.050235,5.709808 0.898803,1.031008 2.008496,2.071458 3.37557,2.115435 0.590112,0.01898 1.246398,-0.213618 1.491829,-0.750606 a 1.8720112,1.8720112 0 0 0 0.13324,-0.668816 c 0.147675,-2.41768 -0.717188,-4.779187 -1.725728,-6.981418 a 4.4762639,4.4762639 0 0 1 -0.556433,-1.876003 0.5147352,0.5147352 0 0 1 0.08217,-0.314194 0.53073459,0.53073459 0 0 1 0.32814,-0.160215 c 1.380372,-0.273038 3.758001,0.799308 4.726358,-0.733604 0.627766,-0.993752 -0.232239,-2.85729 -0.67835,-3.758455 z"
         inkscape:connector-curvature="0"
         style="fill:#a0616a;stroke-width:0.33070254" />
      <path
         id="path6729"
         d="m 0.170141,-126.55849 a 1.2478531,1.2478531 0 0 1 0.08487,-0.58207 c 0.221127,-0.391 0.798537,-0.28459 1.234102,-0.17477 1.751649,0.44161 3.597329,0.0419 5.400842,0.14503 1.803513,0.10317 3.835042,1.00479 4.19767,2.77448 a 13.169967,13.169967 0 0 0 3.329719,-3.42124 c 0.500531,-0.74904 0.936817,-1.60701 0.868676,-2.50532 -0.09828,-1.29568 -1.18538,-2.26468 -2.191956,-3.08641 l -3.000547,-2.44951 a 4.5215073,4.5215073 0 0 0 -1.343466,-0.85414 c -0.692891,-0.23678 -1.448497,-0.12397 -2.180728,-0.1235 -2.184195,0.001 -4.512969,-0.99263 -6.455542,0.006 -0.811458,0.41712 -1.422223,1.13191 -2.011002,1.82889 l -2.67803,3.17008 a 1.693369,1.693369 0 0 0 -0.428081,0.72593 c -0.07619,0.38695 0.122526,0.76883 0.191874,1.15707 0.126497,0.7082 -0.17853,1.46402 0.05597,2.14412 0.389316,1.12906 1.76019,1.28889 2.598286,1.93617 0.312359,0.24124 0.801908,1.05882 1.174074,1.04884 0.671475,-0.018 1.135798,-1.21788 1.153259,-1.73958 z"
         inkscape:connector-curvature="0"
         style="fill:#3f3d56;stroke-width:0.33070254" />
      <path
         id="path6731"
         d="m -18.043801,-103.05728 a 3.4860909,3.4860909 0 0 0 -0.897616,0.8356 c -0.314415,0.47538 -0.378324,1.07552 -0.648399,1.57741 -0.577945,1.073973 -1.929732,1.45605 -2.77302,2.337134 a 0.8730051,0.8730051 0 0 0 -0.266457,0.45714 1.0187159,1.0187159 0 0 0 0.226532,0.657993 l 4.06655,6.392995 c 1.353965,0.119215 2.652895,-0.729063 4.007436,-0.616459 0.505757,0.04205 1.023287,0.216733 1.508282,0.06728 a 4.3251659,4.3251659 0 0 0 0.96789,-0.591941 c 0.808118,-0.510971 1.884422,-0.570508 2.562412,-1.244655 0.650664,-0.64698 0.733684,-1.65923 0.725925,-2.576778 a 10.357878,10.357878 0 0 0 -0.241743,-2.370423 c -0.598697,-2.453876 -2.475441,-4.336996 -3.651978,-6.510676 -0.572777,-1.05825 -0.884454,-1.67775 -2.096796,-0.95113 -1.218633,0.73038 -2.342145,1.69782 -3.489018,2.53651 z"
         inkscape:connector-curvature="0"
         style="fill:#3f3d56;stroke-width:0.33070254" />
      <path
         id="path6733"
         d="m 31.343793,-106.29021 a 9.5138359,9.5138359 0 0 1 2.045788,1.79194 c 0.619507,0.7988 0.970377,1.7764 1.565477,2.59354 0.57682,0.79206 1.36201,1.40549 2.01629,2.134841 0.99225,1.106104 1.66435,2.455542 2.32434,3.786874 a 56.571478,56.571478 0 0 1 -5.26021,5.94507 1.6965569,1.6965569 0 0 1 -0.798731,0.52506 1.2884998,1.2884998 0 0 1 -1.129151,-0.460338 c -0.29287,-0.307266 -0.500445,-0.686069 -0.780431,-1.005121 a 4.0218654,4.0218654 0 0 0 -2.486179,-1.202435 17.07481,17.07481 0 0 0 -2.816865,-0.03879 1.1136375,1.1136375 0 0 1 -0.6016,-0.101102 1.0105807,1.0105807 0 0 1 -0.328249,-0.376509 c -1.101005,-1.873506 -0.746865,-4.225743 -0.358425,-6.363814 l 0.891329,-4.906096 a 11.01125,11.01125 0 0 1 0.741825,-2.72671 c 0.337558,-0.7215 1.092529,-1.945 2.020778,-1.729 0.935749,0.21772 2.166766,1.56634 2.954014,2.13259 z"
         inkscape:connector-curvature="0"
         style="fill:#3f3d56;stroke-width:0.33070254" />
      <ellipse
         id="ellipse6735"
         ry="13.583465"
         rx="13.558805"
         cy="-87.659325"
         cx="-131.8054"
         style="fill:#ffffff;stroke-width:0.33070254" />
      <g
         transform="translate(0,-165.55357)"
         id="g7210">
        <g
           id="g7205"
           transform="translate(-69.748275)"
           style="stroke:none;stroke-opacity:1">
          <circle
             r="21.109463"
             cy="92.345726"
             cx="-59.795044"
             id="path7095"
             style="opacity:1;fill:#ffffff;fill-opacity:1;fill-rule:nonzero;stroke:none;stroke-width:3.2852149;stroke-linecap:round;stroke-linejoin:miter;stroke-miterlimit:4;stroke-dasharray:none;stroke-opacity:1;paint-order:markers fill stroke" />
          <path
             id="path6737"
             d="m -59.795044,69.192295 a 23.153431,23.153431 0 1 0 23.153431,23.153448 23.221503,23.221503 0 0 0 -23.153431,-23.153448 z m -4.75313,35.498235 -11.866134,-11.866139 3.328301,-3.328302 8.54897,8.548961 18.044085,-18.044084 3.328306,3.328306 -21.383533,21.361268 z"
             inkscape:connector-curvature="0"
             style="fill:#00c34a;fill-opacity:1;stroke:none;stroke-width:0.47251904;stroke-opacity:1" />
        </g>
      </g>
    </g>
  </g>
</svg>
