<?xml version="1.0" encoding="UTF-8" standalone="no"?>
<!-- Created with Inkscape (http://www.inkscape.org/) -->

<svg
   xmlns:dc="http://purl.org/dc/elements/1.1/"
   xmlns:cc="http://creativecommons.org/ns#"
   xmlns:rdf="http://www.w3.org/1999/02/22-rdf-syntax-ns#"
   xmlns:svg="http://www.w3.org/2000/svg"
   xmlns="http://www.w3.org/2000/svg"
   xmlns:sodipodi="http://sodipodi.sourceforge.net/DTD/sodipodi-0.dtd"
   xmlns:inkscape="http://www.inkscape.org/namespaces/inkscape"
   width="84.656555mm"
   height="20.84211mm"
   viewBox="0 0 84.656544 20.84211"
   version="1.1"
   id="svg8"
   inkscape:version="0.92.4 (5da689c313, 2019-01-14)"
   sodipodi:docname="foursquare-logo.svg">
  <defs
     id="defs2" />
  <sodipodi:namedview
     id="base"
     pagecolor="#ffffff"
     bordercolor="#666666"
     borderopacity="1.0"
     inkscape:pageopacity="0.0"
     inkscape:pageshadow="2"
     inkscape:zoom="1.6959792"
     inkscape:cx="82.640494"
     inkscape:cy="11.481726"
     inkscape:document-units="mm"
     inkscape:current-layer="layer1"
     showgrid="false"
     inkscape:window-width="1600"
     inkscape:window-height="838"
     inkscape:window-x="-8"
     inkscape:window-y="-8"
     inkscape:window-maximized="1"
     showguides="true"
     inkscape:guide-bbox="true" />
  <metadata
     id="metadata5">
    <rdf:RDF>
      <cc:Work
         rdf:about="">
        <dc:format>image/svg+xml</dc:format>
        <dc:type
           rdf:resource="http://purl.org/dc/dcmitype/StillImage" />
        <dc:title></dc:title>
      </cc:Work>
    </rdf:RDF>
  </metadata>
  <g
     inkscape:label="Layer 1"
     inkscape:groupmode="layer"
     id="layer1"
     transform="translate(-62.556365,-150.64984)">
    <g
       id="g1647">
      <rect
         y="150.66476"
         x="62.566849"
         height="20.827188"
         width="20.827188"
         id="rect895"
         style="opacity:1;fill:#ffffff;fill-opacity:1;fill-rule:nonzero;stroke:none;stroke-width:0.43426996;stroke-linecap:round;stroke-linejoin:miter;stroke-miterlimit:4;stroke-dasharray:none;stroke-opacity:1;paint-order:markers fill stroke" />
      <g
         transform="matrix(0.10847494,0,0,0.10847494,61.966315,147.90966)"
         style="fill:#808080;fill-opacity:1"
         id="g893">
        <path
           style="opacity:1;fill:#808080;fill-opacity:1;fill-rule:nonzero;stroke:none;stroke-width:21.59730148;stroke-linecap:round;stroke-linejoin:miter;stroke-miterlimit:4;stroke-dasharray:none;stroke-opacity:1;paint-order:markers fill stroke"
           d="m 231.87006,343.60626 v -71.42857 h 40.71429 40.71428 v -36.42857 -36.42857 h -40.71428 -40.71429 l -0.0455,-24.64286 c -0.025,-13.55357 -0.43037,-30.58929 -0.90077,-37.85714 l -0.85528,-13.21429 h 54.4722 54.4722 v 145.71429 145.71428 h -53.57143 -53.57143 z"
           id="path828"
           inkscape:connector-curvature="0"
           transform="scale(0.26458333)" />
        <path
           style="opacity:1;fill:#808080;fill-opacity:1;fill-rule:nonzero;stroke:none;stroke-width:10.79865074;stroke-linecap:round;stroke-linejoin:miter;stroke-miterlimit:4;stroke-dasharray:none;stroke-opacity:1;paint-order:markers fill stroke"
           d="M 50.209709,269.40313 V 123.3317 h 53.571431 53.57143 v 37.85715 37.85714 H 115.92399 74.495423 v 36.78571 36.78572 h 41.428567 41.42858 l 0.006,42.32143 c 0.004,23.27678 0.215,55.41964 0.46997,71.42857 l 0.46353,29.10714 H 104.2511 50.209709 Z"
           id="path830"
           inkscape:connector-curvature="0"
           transform="scale(0.26458333)" />
        <path
           style="opacity:1;fill:#808080;fill-opacity:1;fill-rule:nonzero;stroke:none;stroke-width:10.79865074;stroke-linecap:round;stroke-linejoin:miter;stroke-miterlimit:4;stroke-dasharray:none;stroke-opacity:1;paint-order:markers fill stroke"
           d="M 20.923994,269.40313 V 95.474562 H 194.85257 368.78114 V 269.40313 443.3317 H 194.85257 20.923994 Z m 329.823026,0.17857 0.18015,-157.67857 H 194.49702 38.066852 v 157.38095 c 0,86.55953 0.215007,157.59597 0.477795,157.85875 0.262787,0.26279 70.575293,0.39672 156.249993,0.29762 l 155.77221,-0.18017 z"
           id="path832"
           inkscape:connector-curvature="0"
           transform="scale(0.26458333)" />
      </g>
      <g
         transform="matrix(0.10847494,0,0,0.10847494,62.013059,147.90966)"
         style="fill:#808080;fill-opacity:1"
         id="g888">
        <path
           style="opacity:1;fill:#808080;fill-opacity:1;fill-rule:nonzero;stroke:none;stroke-width:15.27159786;stroke-linecap:round;stroke-linejoin:miter;stroke-miterlimit:4;stroke-dasharray:none;stroke-opacity:1;paint-order:markers fill stroke"
           d="M 426.76658,269.26986 V 123.28659 h 2.39673 c 2.81674,0 9.5605,6.86915 12.60766,12.84209 1.10877,2.17336 3.91044,10.28714 6.22593,18.03063 11.59907,38.78968 26.95766,75.48586 43.98139,105.08444 12.19194,21.19769 27.92975,41.70363 38.44809,50.0968 6.33184,5.05253 6.18054,4.03185 3.41637,23.04761 -1.09027,7.50039 -1.99086,15.47619 -2.00131,17.72402 -0.019,4.085 -0.0244,4.09051 -11.34683,11.53149 -20.09897,13.20884 -29.30727,24.64524 -36.0833,44.81429 l -2.77425,8.25764 -27.43524,0.26877 -27.43524,0.26877 z"
           id="path834"
           inkscape:connector-curvature="0"
           transform="scale(0.26458333)" />
        <path
           style="opacity:1;fill:#808080;fill-opacity:1;fill-rule:nonzero;stroke:none;stroke-width:15.27159786;stroke-linecap:round;stroke-linejoin:miter;stroke-miterlimit:4;stroke-dasharray:none;stroke-opacity:1;paint-order:markers fill stroke"
           d="m 654.82168,411.93768 c -4.33689,-12.44106 -13.80845,-24.86585 -33.2188,-43.57635 l -15.01445,-14.47311 -0.98906,-9.48733 c -0.54398,-5.21805 -1.4969,-14.13367 -2.1176,-19.81252 l -1.12853,-10.32517 6.11104,-6.84742 c 36.60413,-41.01493 63.00569,-93.30209 76.21388,-150.9383 2.94768,-12.86272 6.36182,-19.60348 13.86901,-27.38252 5.41206,-5.60802 5.78662,-5.80837 10.85914,-5.80837 h 5.25374 v 145.96704 145.96704 h -29.34697 -29.34697 z"
           id="path836"
           inkscape:connector-curvature="0"
           transform="scale(0.26458333)" />
        <path
           style="opacity:1;fill:#808080;fill-opacity:1;fill-rule:nonzero;stroke:none;stroke-width:15.27159786;stroke-linecap:round;stroke-linejoin:miter;stroke-miterlimit:4;stroke-dasharray:none;stroke-opacity:1;paint-order:markers fill stroke"
           d="m 618.96788,254.10134 c 0.30094,-1.11117 2.67572,-9.52069 5.27727,-18.68782 2.60156,-9.16714 6.91337,-24.39518 9.5818,-33.84011 10.24216,-36.25219 17.65466,-48.85324 25.6543,-43.61168 9.64759,6.32135 -0.67165,34.41015 -29.9386,81.4924 -9.56711,15.39078 -11.502,18.07081 -10.57477,14.64721 z"
           id="path838"
           inkscape:connector-curvature="0"
           transform="scale(0.26458333)" />
        <path
           style="opacity:1;fill:#808080;fill-opacity:1;fill-rule:nonzero;stroke:none;stroke-width:15.27159786;stroke-linecap:round;stroke-linejoin:miter;stroke-miterlimit:4;stroke-dasharray:none;stroke-opacity:1;paint-order:markers fill stroke"
           d="M 397.47216,269.75871 V 96.012468 H 571.21839 744.96463 V 269.75871 443.50494 H 571.21839 397.47216 Z m 329.30972,-0.50508 V 111.16476 H 570.71332 414.64475 V 269.25363 427.3425 h 156.06857 156.06856 z"
           id="path840"
           inkscape:connector-curvature="0"
           transform="scale(0.26458333)" />
        <path
           style="opacity:1;fill:#808080;fill-opacity:1;fill-rule:nonzero;stroke:none;stroke-width:1.90894973;stroke-linecap:round;stroke-linejoin:miter;stroke-miterlimit:4;stroke-dasharray:none;stroke-opacity:1;paint-order:markers fill stroke"
           d="m 606.27008,277.03058 c 0,-0.14279 0.0509,-0.29109 0.11319,-0.32957 0.0623,-0.0385 0.22964,-0.29336 0.37195,-0.5664 0.39662,-0.76093 0.58064,-1.07717 0.66702,-1.14631 0.0434,-0.0347 0.18544,-0.26225 0.31568,-0.50561 0.13023,-0.24336 0.36464,-0.62147 0.5209,-0.84024 0.15626,-0.21877 0.2841,-0.43541 0.2841,-0.48141 0,-0.046 0.14206,-0.26987 0.31568,-0.4975 0.17362,-0.22763 0.31567,-0.47479 0.31567,-0.54926 0,-0.0745 0.0426,-0.15434 0.0947,-0.17749 0.11294,-0.0502 0.91545,-1.21447 0.91545,-1.32812 0,-0.0435 0.14205,-0.26533 0.31567,-0.49296 0.17362,-0.22762 0.31568,-0.47448 0.31568,-0.54856 0,-0.0741 0.0502,-0.13469 0.11154,-0.13469 0.0613,0 0.14493,-0.0994 0.18574,-0.22097 0.0754,-0.22462 0.34097,-0.6744 0.46593,-0.78919 0.1061,-0.0974 1.13082,-1.66282 1.13082,-1.72744 0,-0.0315 0.14206,-0.24341 0.31568,-0.47104 0.17362,-0.22763 0.31567,-0.45352 0.31567,-0.50198 0,-0.0485 0.0584,-0.15674 0.1298,-0.24062 0.0714,-0.0839 0.32709,-0.43643 0.56821,-0.78345 0.51855,-0.74628 0.57082,-0.53726 0.10996,0.43973 -0.18065,0.38296 -0.40079,0.86675 -0.48921,1.0751 -0.0884,0.20834 -0.30996,0.68236 -0.4923,1.05337 -0.18235,0.37101 -0.33154,0.74982 -0.33154,0.84179 0,0.092 -0.0426,0.18617 -0.0947,0.20932 -0.13722,0.061 -0.53664,0.85178 -0.53664,1.06248 0,0.0985 -0.0459,0.17917 -0.10197,0.17917 -0.0561,0 -0.20796,0.24149 -0.3375,0.53664 -0.31882,0.72643 -1.90723,3.27614 -2.74828,4.41153 -0.75245,1.01578 -1.88048,2.21559 -2.40804,2.56125 -0.32975,0.21606 -0.33886,0.21505 -0.33886,-0.0376 z"
           id="path842"
           inkscape:connector-curvature="0"
           transform="scale(0.26458333)" />
        <path
           style="opacity:1;fill:#808080;fill-opacity:1;fill-rule:nonzero;stroke:none;stroke-width:1.90894973;stroke-linecap:round;stroke-linejoin:miter;stroke-miterlimit:4;stroke-dasharray:none;stroke-opacity:1;paint-order:markers fill stroke"
           d="m 618.26564,257.53962 c 0,-0.10894 0.0852,-0.26881 0.18941,-0.35526 0.24097,-0.19999 0.23852,-0.0124 -0.004,0.30824 -0.14841,0.19621 -0.18539,0.20559 -0.18539,0.047 z"
           id="path844"
           inkscape:connector-curvature="0"
           transform="scale(0.26458333)" />
      </g>
      <g
         style="fill:#808080;fill-opacity:1"
         transform="matrix(0.10847494,0,0,0.10847494,62.016689,147.85226)"
         id="g880">
        <path
           style="opacity:1;fill:#808080;fill-opacity:1;fill-rule:nonzero;stroke:none;stroke-width:15.27159786;stroke-linecap:round;stroke-linejoin:miter;stroke-miterlimit:4;stroke-dasharray:none;stroke-opacity:1;paint-order:markers fill stroke"
           d="m 426.64009,708.00126 c 0,-46.94683 0.22272,-85.35789 0.49494,-85.35789 0.83386,0 9.17391,17.16991 14.51631,29.88514 9.64275,22.95033 20.26821,58.80291 25.94643,87.54885 l 1.74669,8.84258 15.26585,4.93802 c 50.07428,16.19742 90.02898,19.38869 132.44354,10.57858 13.91289,-2.88991 35.03133,-9.67466 48.50084,-15.58193 l 9.26265,-4.06228 2.3001,-10.81939 c 6.43236,-30.25724 19.01089,-67.06308 33.2141,-97.18743 l 4.04832,-8.5863 0.0769,82.57997 0.0768,82.57997 H 570.58683 426.64009 Z"
           id="path850"
           inkscape:connector-curvature="0"
           transform="scale(0.26458333)" />
        <path
           style="opacity:1;fill:#808080;fill-opacity:1;fill-rule:nonzero;stroke:none;stroke-width:30.54319572;stroke-linecap:round;stroke-linejoin:miter;stroke-miterlimit:4;stroke-dasharray:none;stroke-opacity:1;paint-order:markers fill stroke"
           d="m 653.05488,658.19077 c -1.65982,-21.32197 -1.67511,-44.83991 -0.037,-56.79165 1.0184,-7.4299 2.08463,-9.37334 5.14261,-9.37334 5.58123,0 13.77569,-9.03771 13.77569,-15.19328 0,-11.49907 -10.43918,-19.20758 -20.71889,-15.29924 -7.44063,2.82892 -10.28317,9.20771 -8.82946,19.81367 0.98734,7.20342 -0.0911,12.32 -5.60768,26.60413 -7.06669,18.29799 -14.1645,33.25039 -22.98789,48.42678 l -5.11255,8.79367 -8.02605,-20.9155 c -4.41433,-11.50353 -11.84608,-31.6618 -16.515,-44.79615 l -8.48894,-23.88065 6.72698,-6.72697 c 7.07143,-7.07144 8.27968,-12.56259 4.37667,-19.89076 -3.58948,-6.7395 -8.04072,-9.32887 -16.15793,-9.39939 -5.82264,-0.0506 -8.50952,1.25844 -12.6269,6.15168 -6.86243,8.15553 -6.60281,14.3037 0.96812,22.92651 l 6.19848,7.05968 -3.2801,17.50479 c -4.0663,21.70042 -11.49127,44.87974 -18.98845,59.27822 l -5.70664,10.95972 -5.7654,-9.83791 c -3.17097,-5.41085 -11.95514,-23.78252 -19.52038,-40.82594 -11.3104,-25.48076 -13.36974,-31.70784 -11.58737,-35.03823 4.78682,-8.94427 -3.18436,-20.06002 -14.38517,-20.06002 -8.68756,0 -15.99596,7.08938 -15.99596,15.51657 0,5.8089 8.3538,14.788 13.75816,14.788 3.26703,0 4.03255,2.03569 5.12823,13.63706 1.8947,20.06161 1.5947,68.78515 -0.43123,70.03725 -0.96134,0.59414 -13.24093,-13.63018 -27.28798,-31.60961 -23.15126,-29.6323 -25.42933,-33.28021 -24.356,-39.00157 0.92332,-4.9217 0.0365,-7.67553 -4.02675,-12.50445 -5.1923,-6.1707 -5.21083,-6.3264 -5.21083,-43.7818 v -37.58908 h 143.44166 143.44166 v 38.73179 c 0,33.59035 -0.45508,39.23465 -3.42822,42.51992 -2.03,2.24313 -3.34253,6.80994 -3.21818,11.19721 0.18566,6.55118 -2.84002,11.3359 -26.13133,41.32274 -14.48775,18.65251 -26.54188,33.91366 -26.78695,33.91366 -0.24508,0 -1.02946,-7.50038 -1.74308,-16.66751 z"
           id="path848"
           inkscape:connector-curvature="0"
           transform="scale(0.26458333)" />
        <path
           style="opacity:1;fill:#808080;fill-opacity:1;fill-rule:nonzero;stroke:none;stroke-width:15.27159786;stroke-linecap:round;stroke-linejoin:miter;stroke-miterlimit:4;stroke-dasharray:none;stroke-opacity:1;paint-order:markers fill stroke"
           d="M 397.34567,649.91749 V 476.17126 H 571.09191 744.83814 V 649.91749 823.66373 H 571.09191 397.34567 Z M 728.6757,710.13775 V 612.7742 l 2.57361,-1.68628 c 4.23204,-2.77295 6.50979,-7.521 6.51399,-13.57874 0.004,-5.09811 -0.27895,-5.71893 -4.54191,-9.9819 l -4.54569,-4.54569 V 537.65765 492.3337 H 571.09191 413.50811 v 46.31045 c 0,45.7793 -0.0244,46.33251 -2.12372,48.2324 -6.63723,6.00661 -6.63723,17.03972 0,23.04633 l 2.12372,1.92194 v 97.82824 97.82823 h 157.5838 157.58379 z"
           id="path852"
           inkscape:connector-curvature="0"
           transform="scale(0.26458333)" />
      </g>
      <g
         style="fill:#808080;fill-opacity:1"
         transform="matrix(0.10847494,0,0,0.10847494,61.966315,147.85226)"
         id="g875">
        <path
           style="opacity:1;fill:#808080;fill-opacity:1;fill-rule:nonzero;stroke:none;stroke-width:15.27159786;stroke-linecap:round;stroke-linejoin:miter;stroke-miterlimit:4;stroke-dasharray:none;stroke-opacity:1;paint-order:markers fill stroke"
           d="M 20.558769,649.91749 V 476.17126 H 142.76172 264.96468 l -3.51004,7.70225 c -1.93051,4.23624 -3.51002,7.87279 -3.51002,8.08122 0,0.20843 -1.09936,0.37897 -2.44303,0.37897 -2.10883,0 -2.74141,-0.89667 -4.62439,-6.55502 -3.29548,-9.90292 -4.00078,-9.81625 -6.07653,0.74664 l -1.14143,5.80838 H 140.6953 37.731362 v 157.58379 157.5838 H 194.30501 350.87865 V 649.91749 492.3337 h -16.16244 c -8.88934,0 -16.16244,-0.31168 -16.16244,-0.69261 0,-0.38093 1.70864,-2.76742 3.79697,-5.3033 6.53717,-7.93814 7.04754,-8.67454 5.2944,-7.63925 -0.83337,0.49213 -5.66927,3.76137 -10.74642,7.26497 -5.07717,3.5036 -10.19107,6.37019 -11.36422,6.37019 -1.17316,0 -2.13302,-0.12104 -2.13302,-0.26898 0,-0.14794 1.30645,-3.67084 2.90322,-7.82868 l 2.90323,-7.55971 29.92673,-0.26757 29.92674,-0.26757 V 649.90246 823.66373 H 194.81008 20.558769 Z"
           id="path854"
           inkscape:connector-curvature="0"
           transform="scale(0.26458333)" />
        <path
           style="opacity:1;fill:#808080;fill-opacity:1;fill-rule:nonzero;stroke:none;stroke-width:15.27159786;stroke-linecap:round;stroke-linejoin:miter;stroke-miterlimit:4;stroke-dasharray:none;stroke-opacity:1;paint-order:markers fill stroke"
           d="m 50.863345,794.75719 c 0,-1.30715 7.133878,-10.18594 11.796153,-14.68144 13.185785,-12.7141 27.540074,-17.88386 55.497042,-19.98747 11.96677,-0.90043 15.86697,-0.80861 24.72276,0.58204 14.18089,2.22686 42.58104,2.25561 55.47833,0.0562 14.9701,-2.55295 26.70068,-6.3099 40.06261,-12.83085 43.84283,-21.3964 75.03491,-64.90823 95.94409,-133.83855 l 4.28985,-14.14214 0.0513,97.73226 0.0513,97.73226 h -143.9467 c -79.1707,0 -143.946735,-0.28002 -143.946735,-0.62227 z"
           id="path856"
           inkscape:connector-curvature="0"
           transform="scale(0.26458333)" />
        <path
           style="opacity:1;fill:#808080;fill-opacity:1;fill-rule:nonzero;stroke:none;stroke-width:15.27159786;stroke-linecap:round;stroke-linejoin:miter;stroke-miterlimit:4;stroke-dasharray:none;stroke-opacity:1;paint-order:markers fill stroke"
           d="m 243.04487,653.2056 c -2.39921,-0.28183 -3.283,-0.89542 -3.283,-2.27928 0,-2.95192 8.49421,-31.82007 12.64791,-42.98481 12.38982,-33.30258 29.31776,-65.81369 48.75509,-93.637 l 7.58617,-10.85914 h 15.00289 15.00289 v 44.27615 44.27615 l -17.93021,17.65835 c -26.43146,26.03068 -39.15554,35.44129 -54.90264,40.60542 -7.51961,2.46599 -16.79202,3.6592 -22.8791,2.94416 z"
           id="path858"
           inkscape:connector-curvature="0"
           transform="scale(0.26458333)" />
        <path
           style="opacity:1;fill:#808080;fill-opacity:1;fill-rule:nonzero;stroke:none;stroke-width:15.27159786;stroke-linecap:round;stroke-linejoin:miter;stroke-miterlimit:4;stroke-dasharray:none;stroke-opacity:1;paint-order:markers fill stroke"
           d="m 133.17943,648.71668 c -0.9524,-3.79464 2.80736,-12.41528 10.73073,-24.60415 9.85377,-15.15849 15.88616,-22.71419 26.17429,-32.78388 7.72186,-7.55791 9.38474,-9.85667 13.88377,-19.1929 12.20669,-25.33095 16.66548,-52.83213 10.85021,-66.92261 -0.6822,-1.65297 0.75338,-1.76777 22.10693,-1.76777 19.73298,0 22.83651,0.20813 22.83651,1.53142 0,3.72693 -9.96464,28.73198 -17.70579,44.43053 -15.80613,32.0538 -32.54375,55.80247 -55.53027,78.79073 -14.97597,14.97712 -22.94689,21.00552 -29.50954,22.31805 -2.81912,0.56383 -3.30035,0.33814 -3.83684,-1.79942 z"
           id="path860"
           inkscape:connector-curvature="0"
           transform="scale(0.26458333)" />
        <path
           style="opacity:1;fill:#808080;fill-opacity:1;fill-rule:nonzero;stroke:none;stroke-width:15.27159786;stroke-linecap:round;stroke-linejoin:miter;stroke-miterlimit:4;stroke-dasharray:none;stroke-opacity:1;paint-order:markers fill stroke"
           d="m 49.944376,635.52282 -0.09118,-132.07745 h 71.720824 c 39.44646,0 71.72083,0.36001 71.72083,0.80001 0,0.44 -2.33394,4.87205 -5.18655,9.84899 -13.80864,24.09192 -30.76108,40.92002 -66.91573,66.42493 -45.819889,32.32316 -56.63983,42.59804 -63.350868,60.15952 -2.523309,6.60301 -3.033345,19.95895 -1.047167,27.42142 3.239387,12.17102 11.718866,28.21735 21.818881,41.28942 3.145139,4.07063 5.574761,7.49435 5.399162,7.60827 -4.864309,3.15547 -15.173214,12.32465 -18.698647,16.63139 -5.509811,6.73088 -10.932296,17.66827 -13.459669,27.14878 -1.778219,6.67032 -1.820729,3.8824 -1.909882,-125.25528 z"
           id="path862"
           inkscape:connector-curvature="0"
           transform="scale(0.26458333)" />
        <path
           style="opacity:1;fill:#808080;fill-opacity:1;fill-rule:nonzero;stroke:none;stroke-width:1.34983134;stroke-linecap:round;stroke-linejoin:miter;stroke-miterlimit:4;stroke-dasharray:none;stroke-opacity:1;paint-order:markers fill stroke"
           d="m 274.69095,491.84764 c -0.093,-0.093 -0.19637,-0.33039 -0.22967,-0.52748 -0.0333,-0.19709 -0.11663,-0.43237 -0.18518,-0.52283 -0.0685,-0.0905 -0.12615,-0.26494 -0.12802,-0.3877 -0.002,-0.12277 -0.0649,-0.34112 -0.14002,-0.48523 -0.0751,-0.1441 -0.1718,-0.40526 -0.21478,-0.58035 -0.0849,-0.34579 -0.20131,-0.69666 -0.46169,-1.39151 -0.0924,-0.24648 -0.16794,-0.52884 -0.16794,-0.62745 0,-0.0986 -0.0546,-0.25855 -0.12126,-0.35542 -0.0667,-0.0969 -0.15065,-0.33683 -0.18656,-0.53326 -0.0359,-0.19643 -0.10742,-0.4081 -0.15889,-0.47038 -0.0515,-0.0623 -0.12511,-0.26318 -0.16364,-0.44643 -0.0859,-0.40867 -0.33107,-1.13863 -0.49663,-1.47882 -0.0677,-0.13902 -0.12438,-0.33991 -0.12605,-0.44643 -0.002,-0.10651 -0.0807,-0.35437 -0.17554,-0.5508 -0.0949,-0.19642 -0.17388,-0.42945 -0.17554,-0.51782 -0.002,-0.0884 -0.0579,-0.26918 -0.12503,-0.40179 -0.0671,-0.1326 -0.15077,-0.39976 -0.18595,-0.59368 -0.0352,-0.19392 -0.1209,-0.43389 -0.1905,-0.53326 -0.0696,-0.0994 -0.12655,-0.28333 -0.12655,-0.4088 0,-0.12547 -0.057,-0.30943 -0.12655,-0.4088 -0.0696,-0.0994 -0.15447,-0.33934 -0.1886,-0.53326 -0.0341,-0.19392 -0.1178,-0.44157 -0.18595,-0.55034 -0.0682,-0.10876 -0.12527,-0.28956 -0.12693,-0.40178 -0.002,-0.11222 -0.0807,-0.36475 -0.17555,-0.56118 -0.0949,-0.19643 -0.17387,-0.43986 -0.17554,-0.54097 -0.002,-0.10111 -0.062,-0.26182 -0.13412,-0.35714 -0.0721,-0.0953 -0.13236,-0.26592 -0.13392,-0.37911 -0.002,-0.11318 -0.0848,-0.38566 -0.18494,-0.60551 -0.10015,-0.21984 -0.15804,-0.43862 -0.12865,-0.48617 0.0591,-0.0956 16.31286,-0.12601 16.40819,-0.0307 0.0584,0.0584 -0.25805,0.69566 -0.44999,0.90598 -0.0613,0.0672 -0.13598,0.2198 -0.16593,0.33913 -0.0299,0.11933 -0.0863,0.21697 -0.12533,0.21697 -0.039,0 -0.11546,0.11049 -0.16995,0.24554 -0.0545,0.13504 -0.19438,0.40625 -0.31085,0.60267 -0.11646,0.19643 -0.3268,0.57813 -0.46741,0.84822 -0.14062,0.27009 -0.30595,0.5441 -0.36741,0.60892 -0.0614,0.0648 -0.13624,0.21549 -0.16619,0.33482 -0.0299,0.11934 -0.0863,0.21697 -0.12533,0.21697 -0.039,0 -0.11546,0.11049 -0.16996,0.24554 -0.0545,0.13504 -0.19713,0.40625 -0.31697,0.60268 -0.11984,0.19643 -0.2399,0.40736 -0.26679,0.46875 l -0.0978,0.22321 c -0.0269,0.0614 -0.14695,0.27232 -0.26679,0.46875 -0.11984,0.19643 -0.26248,0.46764 -0.31697,0.60268 -0.0545,0.13505 -0.13141,0.24554 -0.17091,0.24554 -0.0395,0 -0.1164,0.11049 -0.1709,0.24553 -0.0545,0.13505 -0.19713,0.40625 -0.31697,0.60268 -0.21417,0.35104 -0.24089,0.40129 -0.35604,0.66964 -0.0316,0.0737 -0.15504,0.29465 -0.2743,0.49107 -0.11926,0.19643 -0.26048,0.45678 -0.31382,0.57854 -0.0534,0.12177 -0.12543,0.24231 -0.16019,0.26786 -0.0348,0.0256 -0.11358,0.14691 -0.17515,0.26968 -0.0616,0.12276 -0.27123,0.50446 -0.4659,0.84821 -0.19468,0.34375 -0.41597,0.74554 -0.49176,0.89286 -0.0758,0.14732 -0.21438,0.38839 -0.30797,0.53571 -0.0936,0.14732 -0.29721,0.50893 -0.45248,0.80357 -0.15527,0.29465 -0.37846,0.69643 -0.49599,0.89286 -0.11752,0.19643 -0.27551,0.47768 -0.35109,0.625 -0.0756,0.14732 -0.21637,0.38839 -0.31287,0.53571 -0.0965,0.14733 -0.21811,0.3738 -0.27022,0.50328 -0.11356,0.28211 -0.35862,0.34494 -1.34551,0.34494 -0.57099,0 -0.73491,-0.0318 -0.87225,-0.16913 z"
           id="path864"
           inkscape:connector-curvature="0"
           transform="scale(0.26458333)" />
        <path
           style="opacity:1;fill:#808080;fill-opacity:1;fill-rule:nonzero;stroke:none;stroke-width:1.34983134;stroke-linecap:round;stroke-linejoin:miter;stroke-miterlimit:4;stroke-dasharray:none;stroke-opacity:1;paint-order:markers fill stroke"
           d="m 291.38769,491.80531 c -0.13813,-0.16644 -0.26344,-0.84449 -0.31568,-1.70818 -0.0267,-0.44197 -0.10876,-1.08483 -0.18229,-1.42858 -0.0735,-0.34375 -0.13613,-0.88616 -0.13912,-1.20535 -0.003,-0.3192 -0.0457,-0.76116 -0.095,-0.98215 -0.0493,-0.22098 -0.12809,-0.84375 -0.17518,-1.38392 -0.0471,-0.54018 -0.14566,-1.25124 -0.21905,-1.58013 -0.0734,-0.32889 -0.13583,-0.85121 -0.13876,-1.16071 -0.003,-0.30951 -0.0446,-0.76363 -0.0927,-1.00916 -0.0481,-0.24554 -0.144,-1.00893 -0.2132,-1.69643 -0.0692,-0.6875 -0.16425,-1.39063 -0.21121,-1.5625 -0.0469,-0.17188 -0.10977,-0.76004 -0.13959,-1.30704 -0.0469,-0.85986 -0.035,-1.00192 0.088,-1.0491 0.21721,-0.0834 17.74507,-0.0623 17.87713,0.0215 0.0815,0.0517 -2.2561,2.44631 -7.92096,8.11425 -5.6654,5.6685 -8.06187,8.01042 -8.12238,7.93751 z"
           id="path866"
           inkscape:connector-curvature="0"
           transform="scale(0.26458333)" />
      </g>
      <g
         transform="matrix(0.76014266,0,0,0.76014266,20.635083,37.604903)"
         aria-label="Foursquare Church"
         style="font-style:normal;font-variant:normal;font-weight:normal;font-stretch:normal;font-size:9.49972248px;line-height:1.25;font-family:Arial;-inkscape-font-specification:Arial;letter-spacing:0px;word-spacing:0px;fill:#808080;fill-opacity:1;stroke:none;stroke-width:0.04947772"
         id="text956">
        <path
           d="m 86.030655,159.284 v -6.8001 h 4.587512 v 0.80247 h -3.687636 v 2.10589 h 3.191313 v 0.80247 h -3.191313 v 3.08927 z"
           style="fill:#808080;fill-opacity:1;stroke-width:0.04947772"
           id="path1053"
           inkscape:connector-curvature="0" />
        <path
           d="m 91.374249,156.82093 q 0,-1.36836 0.76072,-2.02704 0.635479,-0.54734 1.549271,-0.54734 1.015839,0 1.660596,0.66795 0.644757,0.66331 0.644757,1.83686 0,0.9509 -0.28759,1.49824 -0.28295,0.54271 -0.830298,0.84422 -0.542709,0.3015 -1.187465,0.3015 -1.034394,0 -1.674512,-0.66331 -0.635479,-0.66331 -0.635479,-1.91108 z m 0.858129,0 q 0,0.94627 0.41283,1.4194 0.41283,0.46849 1.039032,0.46849 0.621564,0 1.034394,-0.47313 0.412829,-0.47313 0.412829,-1.44259 0,-0.91379 -0.417468,-1.38228 -0.41283,-0.47313 -1.029755,-0.47313 -0.626202,0 -1.039032,0.46849 -0.41283,0.46849 -0.41283,1.41475 z"
           style="fill:#808080;fill-opacity:1;stroke-width:0.04947772"
           id="path1055"
           inkscape:connector-curvature="0" />
        <path
           d="m 100.20138,159.284 v -0.72362 q -0.575175,0.83494 -1.563183,0.83494 -0.436023,0 -0.816383,-0.16699 -0.375721,-0.16698 -0.561263,-0.41746 -0.180902,-0.25512 -0.255119,-0.62157 -0.05102,-0.24584 -0.05102,-0.77927 v -3.05216 h 0.834937 v 2.7321 q 0,0.65403 0.05102,0.88132 0.07886,0.32934 0.333974,0.51952 0.25512,0.18554 0.630841,0.18554 0.375722,0 0.705058,-0.19018 0.329336,-0.19482 0.463853,-0.52416 0.139155,-0.33397 0.139155,-0.96481 v -2.63933 h 0.83494 v 4.92613 z"
           style="fill:#808080;fill-opacity:1;stroke-width:0.04947772"
           id="path1057"
           inkscape:connector-curvature="0" />
        <path
           d="m 102.25162,159.284 v -4.92613 h 0.75144 v 0.74681 q 0.28759,-0.52416 0.52879,-0.69115 0.24585,-0.16698 0.53807,-0.16698 0.42211,0 0.85813,0.26903 l -0.28759,0.77464 q -0.30614,-0.18091 -0.61228,-0.18091 -0.27368,0 -0.49169,0.16699 -0.21801,0.16235 -0.31078,0.45458 -0.13916,0.4453 -0.13916,0.97409 v 2.57903 z"
           style="fill:#808080;fill-opacity:1;stroke-width:0.04947772"
           id="path1059"
           inkscape:connector-curvature="0" />
        <path
           d="m 105.09968,157.81358 0.82566,-0.12988 q 0.0696,0.49632 0.385,0.76072 0.32005,0.2644 0.89059,0.2644 0.57518,0 0.85349,-0.23193 0.27832,-0.23656 0.27832,-0.55198 0,-0.28296 -0.24585,-0.4453 -0.17162,-0.11133 -0.85349,-0.28295 -0.91843,-0.23193 -1.27559,-0.39892 -0.35253,-0.17162 -0.53807,-0.46849 -0.18091,-0.30151 -0.18091,-0.66331 0,-0.32934 0.14844,-0.60765 0.15307,-0.28295 0.41283,-0.46849 0.19481,-0.1438 0.52879,-0.24121 0.33861,-0.10204 0.72361,-0.10204 0.57982,0 1.01584,0.16698 0.44066,0.16699 0.6494,0.45458 0.20873,0.28295 0.28758,0.76072 l -0.81638,0.11132 q -0.0557,-0.38036 -0.3247,-0.59373 -0.26439,-0.21337 -0.75144,-0.21337 -0.57518,0 -0.82102,0.19018 -0.24584,0.19018 -0.24584,0.4453 0,0.16235 0.10205,0.29223 0.10204,0.13451 0.32006,0.22265 0.12524,0.0464 0.73752,0.21337 0.88596,0.23656 1.23385,0.38964 0.35253,0.14843 0.55199,0.43602 0.19946,0.28759 0.19946,0.71433 0,0.41747 -0.24585,0.78855 -0.2412,0.36645 -0.70042,0.57054 -0.45921,0.19946 -1.03903,0.19946 -0.96017,0 -1.46577,-0.39891 -0.50097,-0.39892 -0.64012,-1.18283 z"
           style="fill:#808080;fill-opacity:1;stroke-width:0.04947772"
           id="path1061"
           inkscape:connector-curvature="0" />
        <path
           d="m 113.3238,161.17188 v -2.41204 q -0.19481,0.27368 -0.54734,0.45458 -0.34789,0.1809 -0.74217,0.1809 -0.87668,0 -1.51216,-0.70042 -0.63084,-0.70042 -0.63084,-1.92035 0,-0.74217 0.25512,-1.33126 0.25975,-0.5891 0.7468,-0.8906 0.49169,-0.30614 1.07614,-0.30614 0.91379,0 1.43795,0.76999 v -0.65867 h 0.75144 v 6.81401 z m -2.57438,-4.36486 q 0,0.9509 0.39891,1.42867 0.39891,0.47313 0.95554,0.47313 0.53343,0 0.91843,-0.44994 0.385,-0.45458 0.385,-1.37765 0,-0.98336 -0.40819,-1.47969 -0.40356,-0.49632 -0.9509,-0.49632 -0.54271,0 -0.92307,0.46385 -0.37572,0.45922 -0.37572,1.43795 z"
           style="fill:#808080;fill-opacity:1;stroke-width:0.04947772"
           id="path1063"
           inkscape:connector-curvature="0" />
        <path
           d="m 118.69987,159.284 v -0.72362 q -0.57518,0.83494 -1.56319,0.83494 -0.43602,0 -0.81638,-0.16699 -0.37572,-0.16698 -0.56126,-0.41746 -0.18091,-0.25512 -0.25512,-0.62157 -0.051,-0.24584 -0.051,-0.77927 v -3.05216 h 0.83494 v 2.7321 q 0,0.65403 0.051,0.88132 0.0789,0.32934 0.33398,0.51952 0.25512,0.18554 0.63084,0.18554 0.37572,0 0.70506,-0.19018 0.32933,-0.19482 0.46385,-0.52416 0.13915,-0.33397 0.13915,-0.96481 v -2.63933 h 0.83494 v 4.92613 z"
           style="fill:#808080;fill-opacity:1;stroke-width:0.04947772"
           id="path1065"
           inkscape:connector-curvature="0" />
        <path
           d="m 123.97388,158.67635 q -0.46385,0.39427 -0.89523,0.55662 -0.42675,0.16235 -0.91843,0.16235 -0.81175,0 -1.24777,-0.39427 -0.43602,-0.39892 -0.43602,-1.01584 0,-0.36181 0.16235,-0.65868 0.16698,-0.3015 0.43138,-0.4824 0.26903,-0.18091 0.60301,-0.27368 0.24584,-0.0649 0.74216,-0.12524 1.01121,-0.1206 1.48897,-0.28759 0.005,-0.17162 0.005,-0.21801 0,-0.51024 -0.23656,-0.71897 -0.32006,-0.28295 -0.9509,-0.28295 -0.5891,0 -0.87205,0.20873 -0.27831,0.2041 -0.41283,0.72825 l -0.81638,-0.11132 q 0.11133,-0.52416 0.36645,-0.84422 0.25512,-0.32469 0.73752,-0.49632 0.48241,-0.17626 1.11789,-0.17626 0.63084,0 1.02512,0.14843 0.39427,0.14843 0.57981,0.37572 0.18555,0.22265 0.25976,0.5659 0.0417,0.21337 0.0417,0.77 v 1.11325 q 0,1.16427 0.051,1.47505 0.0557,0.30615 0.21338,0.5891 h -0.87205 q -0.12988,-0.25976 -0.16699,-0.60765 z m -0.0696,-1.86469 q -0.45457,0.18554 -1.36372,0.31542 -0.51488,0.0742 -0.72825,0.16698 -0.21338,0.0928 -0.32934,0.27368 -0.11596,0.17626 -0.11596,0.39427 0,0.33398 0.25048,0.55663 0.25512,0.22265 0.74216,0.22265 0.48241,0 0.85813,-0.20874 0.37572,-0.21337 0.55199,-0.57981 0.13451,-0.28295 0.13451,-0.83494 z"
           style="fill:#808080;fill-opacity:1;stroke-width:0.04947772"
           id="path1067"
           inkscape:connector-curvature="0" />
        <path
           d="m 126.03803,159.284 v -4.92613 h 0.75144 v 0.74681 q 0.28759,-0.52416 0.5288,-0.69115 0.24584,-0.16698 0.53807,-0.16698 0.4221,0 0.85813,0.26903 l -0.28759,0.77464 q -0.30615,-0.18091 -0.61229,-0.18091 -0.27367,0 -0.49169,0.16699 -0.21801,0.16235 -0.31078,0.45458 -0.13915,0.4453 -0.13915,0.97409 v 2.57903 z"
           style="fill:#808080;fill-opacity:1;stroke-width:0.04947772"
           id="path1069"
           inkscape:connector-curvature="0" />
        <path
           d="m 132.59228,157.69762 0.86277,0.10668 q -0.2041,0.75608 -0.75608,1.17355 -0.55199,0.41747 -1.41012,0.41747 -1.08077,0 -1.71625,-0.66331 -0.63085,-0.66795 -0.63085,-1.86933 0,-1.24313 0.64012,-1.92963 0.64012,-0.6865 1.6606,-0.6865 0.98801,0 1.61421,0.67258 0.6262,0.67259 0.6262,1.89253 0,0.0742 -0.005,0.22265 h -3.67372 q 0.0464,0.81174 0.45922,1.24312 0.41283,0.43139 1.02975,0.43139 0.45922,0 0.78392,-0.24121 0.32469,-0.2412 0.51487,-0.76999 z m -2.74137,-1.34982 h 2.75065 q -0.0557,-0.62156 -0.31542,-0.93234 -0.39891,-0.48241 -1.03439,-0.48241 -0.57518,0 -0.96946,0.385 -0.38964,0.385 -0.43138,1.02975 z"
           style="fill:#808080;fill-opacity:1;stroke-width:0.04947772"
           id="path1071"
           inkscape:connector-curvature="0" />
        <path
           d="m 142.10128,156.89979 0.89988,0.22729 q -0.28295,1.10861 -1.02048,1.69306 -0.73289,0.57982 -1.79511,0.57982 -1.09934,0 -1.79048,-0.4453 -0.6865,-0.44994 -1.04831,-1.29879 -0.35717,-0.84885 -0.35717,-1.82294 0,-1.06223 0.40356,-1.85078 0.40819,-0.79319 1.15499,-1.20138 0.75145,-0.41283 1.65132,-0.41283 1.02048,0 1.71626,0.51951 0.69578,0.51952 0.96945,1.46114 l -0.88596,0.20874 q -0.23656,-0.74217 -0.6865,-1.08078 -0.44994,-0.33861 -1.1318,-0.33861 -0.78392,0 -1.31271,0.37572 -0.52415,0.37572 -0.73753,1.0112 -0.21337,0.63084 -0.21337,1.30343 0,0.8674 0.25048,1.5168 0.25512,0.64475 0.78855,0.96481 0.53344,0.32006 1.155,0.32006 0.75608,0 1.28024,-0.43602 0.52415,-0.43602 0.70969,-1.29415 z"
           style="fill:#808080;fill-opacity:1;stroke-width:0.04947772"
           id="path1073"
           inkscape:connector-curvature="0" />
        <path
           d="m 144.00772,159.284 v -6.8001 h 0.83494 v 2.43987 q 0.58445,-0.67722 1.47505,-0.67722 0.54735,0 0.9509,0.21801 0.40356,0.21337 0.57518,0.59373 0.17627,0.38036 0.17627,1.10397 v 3.12174 h -0.83494 v -3.12174 q 0,-0.6262 -0.27367,-0.90915 -0.26904,-0.28759 -0.76536,-0.28759 -0.37109,0 -0.70042,0.19482 -0.3247,0.19018 -0.46386,0.51951 -0.13915,0.32934 -0.13915,0.90916 v 2.69499 z"
           style="fill:#808080;fill-opacity:1;stroke-width:0.04947772"
           id="path1075"
           inkscape:connector-curvature="0" />
        <path
           d="m 152.52407,159.284 v -0.72362 q -0.57518,0.83494 -1.56318,0.83494 -0.43603,0 -0.81639,-0.16699 -0.37572,-0.16698 -0.56126,-0.41746 -0.1809,-0.25512 -0.25512,-0.62157 -0.051,-0.24584 -0.051,-0.77927 v -3.05216 h 0.83493 v 2.7321 q 0,0.65403 0.051,0.88132 0.0788,0.32934 0.33397,0.51952 0.25512,0.18554 0.63084,0.18554 0.37572,0 0.70506,-0.19018 0.32934,-0.19482 0.46385,-0.52416 0.13916,-0.33397 0.13916,-0.96481 v -2.63933 h 0.83494 v 4.92613 z"
           style="fill:#808080;fill-opacity:1;stroke-width:0.04947772"
           id="path1077"
           inkscape:connector-curvature="0" />
        <path
           d="m 154.57431,159.284 v -4.92613 h 0.75144 v 0.74681 q 0.28759,-0.52416 0.52879,-0.69115 0.24585,-0.16698 0.53807,-0.16698 0.42211,0 0.85813,0.26903 l -0.28759,0.77464 q -0.30614,-0.18091 -0.61228,-0.18091 -0.27368,0 -0.49169,0.16699 -0.21801,0.16235 -0.31078,0.45458 -0.13916,0.4453 -0.13916,0.97409 v 2.57903 z"
           style="fill:#808080;fill-opacity:1;stroke-width:0.04947772"
           id="path1079"
           inkscape:connector-curvature="0" />
        <path
           d="m 160.97085,157.47961 0.82102,0.10668 q -0.13452,0.84885 -0.69114,1.33126 -0.55199,0.47777 -1.35909,0.47777 -1.0112,0 -1.62813,-0.65867 -0.61228,-0.66331 -0.61228,-1.89716 0,-0.79783 0.26439,-1.3962 0.2644,-0.59837 0.80247,-0.89524 0.54271,-0.3015 1.17819,-0.3015 0.80246,0 1.3127,0.40819 0.51024,0.40355 0.65404,1.15035 l -0.81175,0.12524 q -0.11596,-0.49632 -0.41283,-0.7468 -0.29223,-0.25048 -0.70969,-0.25048 -0.63084,0 -1.02512,0.45458 -0.39428,0.44993 -0.39428,1.42867 0,0.99264 0.38036,1.44258 0.38036,0.44994 0.99265,0.44994 0.49169,0 0.82102,-0.30151 0.32934,-0.3015 0.41747,-0.9277 z"
           style="fill:#808080;fill-opacity:1;stroke-width:0.04947772"
           id="path1081"
           inkscape:connector-curvature="0" />
        <path
           d="m 162.5062,159.284 v -6.8001 h 0.83494 v 2.43987 q 0.58445,-0.67722 1.47505,-0.67722 0.54735,0 0.9509,0.21801 0.40355,0.21337 0.57518,0.59373 0.17626,0.38036 0.17626,1.10397 v 3.12174 h -0.83493 v -3.12174 q 0,-0.6262 -0.27368,-0.90915 -0.26903,-0.28759 -0.76536,-0.28759 -0.37108,0 -0.70041,0.19482 -0.3247,0.19018 -0.46386,0.51951 -0.13915,0.32934 -0.13915,0.90916 v 2.69499 z"
           style="fill:#808080;fill-opacity:1;stroke-width:0.04947772"
           id="path1083"
           inkscape:connector-curvature="0" />
      </g>
      <g
         transform="matrix(1.0203816,0,0,0.94370066,-1.9575208,8.5995662)"
         aria-label="AJEBO CAMP"
         style="font-style:normal;font-variant:normal;font-weight:normal;font-stretch:normal;font-size:8.45006943px;line-height:1.25;font-family:Heebo;-inkscape-font-specification:Heebo;letter-spacing:0px;word-spacing:0px;fill:#808080;fill-opacity:1;stroke:#808080;stroke-width:0.20381285;stroke-miterlimit:4;stroke-dasharray:none;stroke-opacity:1"
         id="text960">
        <path
           d="m 90.129736,168.17817 h -2.504489 l -0.569389,1.57201 h -0.825202 l 2.294062,-6.00747 h 0.528129 0.173292 l 2.298188,6.00747 h -0.821076 z m -0.235183,-0.64778 -1.019124,-2.80569 -1.014999,2.80569 z"
           style="font-style:normal;font-variant:normal;font-weight:normal;font-stretch:normal;font-family:Heebo;-inkscape-font-specification:Heebo;fill:#808080;fill-opacity:1;stroke:#808080;stroke-width:0.20381285;stroke-miterlimit:4;stroke-dasharray:none;stroke-opacity:1"
           id="path1086"
           inkscape:connector-curvature="0" />
        <path
           d="m 95.65859,163.74271 v 4.24979 q 0,0.58177 -0.243435,0.9985 -0.239309,0.4126 -0.668414,0.62715 -0.429105,0.21455 -0.986116,0.21455 -0.565264,0 -0.994369,-0.19392 -0.424979,-0.19392 -0.664287,-0.58177 -0.239309,-0.39197 -0.239309,-0.96961 h 0.800446 q 0,0.54876 0.297073,0.8252 0.297073,0.27645 0.800446,0.27645 0.317703,0 0.565263,-0.13616 0.247561,-0.14029 0.387845,-0.40848 0.144411,-0.27231 0.144411,-0.65191 v -4.24979 z"
           style="font-style:normal;font-variant:normal;font-weight:normal;font-stretch:normal;font-family:Heebo;-inkscape-font-specification:Heebo;fill:#808080;fill-opacity:1;stroke:#808080;stroke-width:0.20381285;stroke-miterlimit:4;stroke-dasharray:none;stroke-opacity:1"
           id="path1088"
           inkscape:connector-curvature="0" />
        <path
           d="m 100.82848,169.10653 v 0.64365 h -3.172902 -0.643657 v -6.00747 h 0.800446 2.974853 v 0.64779 h -2.974853 v 1.93509 h 2.595263 v 0.64366 h -2.595263 v 2.13728 z"
           style="font-style:normal;font-variant:normal;font-weight:normal;font-stretch:normal;font-family:Heebo;-inkscape-font-specification:Heebo;fill:#808080;fill-opacity:1;stroke:#808080;stroke-width:0.20381285;stroke-miterlimit:4;stroke-dasharray:none;stroke-opacity:1"
           id="path1090"
           inkscape:connector-curvature="0" />
        <path
           d="m 104.85134,166.58553 q 0.49925,0.13204 0.77569,0.52401 0.27644,0.38784 0.27644,0.90772 0,0.55288 -0.24343,0.94486 -0.24344,0.38784 -0.69317,0.59001 -0.44561,0.19805 -1.04801,0.19805 h -1.79894 -0.30532 v -6.00747 h 1.97223 q 0.94486,0 1.45236,0.39197 0.5075,0.39197 0.5075,1.20892 0,0.4126 -0.23931,0.73856 -0.23519,0.32595 -0.65604,0.50337 z m -2.2363,-2.19503 v 1.91446 h 1.19242 q 0.33833,0 0.59415,-0.11552 0.25993,-0.11553 0.40022,-0.33421 0.14441,-0.21868 0.14441,-0.51988 0,-0.49099 -0.2847,-0.71792 -0.28469,-0.22693 -0.87471,-0.22693 z m 1.30382,4.71603 q 0.55701,0 0.87059,-0.28883 0.31358,-0.29294 0.31358,-0.79219 0,-0.51988 -0.28057,-0.80457 -0.28057,-0.2847 -0.86646,-0.2847 h -1.34096 v 2.17029 z"
           style="font-style:normal;font-variant:normal;font-weight:normal;font-stretch:normal;font-family:Heebo;-inkscape-font-specification:Heebo;fill:#808080;fill-opacity:1;stroke:#808080;stroke-width:0.20381285;stroke-miterlimit:4;stroke-dasharray:none;stroke-opacity:1"
           id="path1092"
           inkscape:connector-curvature="0" />
        <path
           d="m 111.70465,166.94037 q 0,0.89122 -0.29708,1.54313 -0.29294,0.65191 -0.83758,1.00262 -0.54463,0.34658 -1.27494,0.34658 -0.70967,0 -1.26255,-0.35071 -0.54876,-0.35071 -0.85821,-1.00262 -0.30533,-0.65603 -0.30533,-1.539 v -0.38372 q 0,-0.88297 0.30533,-1.539 0.30532,-0.65604 0.85408,-1.00675 0.54876,-0.35071 1.25843,-0.35071 0.73031,0 1.27494,0.35071 0.54876,0.35071 0.84583,1.00675 0.29708,0.65191 0.29708,1.539 z m -0.7922,-0.39197 q 0,-0.70967 -0.19392,-1.2048 -0.1898,-0.49924 -0.55701,-0.75506 -0.36309,-0.25581 -0.87472,-0.25581 -0.49099,0 -0.85821,0.25994 -0.36721,0.25581 -0.56526,0.75506 -0.19805,0.49512 -0.19805,1.20067 v 0.39197 q 0,0.70967 0.19805,1.20892 0.20217,0.49925 0.56939,0.75919 0.36721,0.25581 0.86233,0.25581 0.77569,0 1.19655,-0.57352 0.42085,-0.57351 0.42085,-1.6504 z"
           style="font-style:normal;font-variant:normal;font-weight:normal;font-stretch:normal;font-family:Heebo;-inkscape-font-specification:Heebo;fill:#808080;fill-opacity:1;stroke:#808080;stroke-width:0.20381285;stroke-miterlimit:4;stroke-dasharray:none;stroke-opacity:1"
           id="path1094"
           inkscape:connector-curvature="0" />
        <path
           d="m 119.42441,167.84397 q -0.066,0.58589 -0.33421,1.03562 -0.26819,0.44561 -0.75918,0.70143 -0.48687,0.25168 -1.18829,0.25168 -0.6973,0 -1.22955,-0.34246 -0.53226,-0.34658 -0.82521,-0.97786 -0.29294,-0.63128 -0.29294,-1.46061 v -0.60652 q 0,-0.83346 0.29294,-1.46473 0.29708,-0.63128 0.84584,-0.97374 0.54875,-0.34659 1.28318,-0.34659 0.66429,0 1.13878,0.25169 0.47449,0.24756 0.73856,0.70142 0.26819,0.44974 0.33008,1.05626 h -0.80045 q -0.0949,-0.67254 -0.42085,-1.015 -0.32595,-0.34658 -0.98612,-0.34658 -0.524,0 -0.88709,0.26406 -0.36309,0.26406 -0.54876,0.74268 -0.18154,0.47862 -0.18154,1.12228 v 0.61477 q 0,0.61065 0.16917,1.0934 0.16916,0.48274 0.51575,0.76331 0.34658,0.28057 0.85821,0.28057 0.49099,0 0.79219,-0.15267 0.30533,-0.15679 0.45799,-0.44973 0.15679,-0.29295 0.23105,-0.74268 z"
           style="font-style:normal;font-variant:normal;font-weight:normal;font-stretch:normal;font-family:Heebo;-inkscape-font-specification:Heebo;fill:#808080;fill-opacity:1;stroke:#808080;stroke-width:0.20381285;stroke-miterlimit:4;stroke-dasharray:none;stroke-opacity:1"
           id="path1096"
           inkscape:connector-curvature="0" />
        <path
           d="M 123.81449,168.17817 H 121.31 l -0.56939,1.57201 h -0.8252 l 2.29406,-6.00747 h 0.52813 0.17329 l 2.29819,6.00747 H 124.388 Z m -0.23519,-0.64778 -1.01912,-2.80569 -1.015,2.80569 z"
           style="font-style:normal;font-variant:normal;font-weight:normal;font-stretch:normal;font-family:Heebo;-inkscape-font-specification:Heebo;fill:#808080;fill-opacity:1;stroke:#808080;stroke-width:0.20381285;stroke-miterlimit:4;stroke-dasharray:none;stroke-opacity:1"
           id="path1098"
           inkscape:connector-curvature="0" />
        <path
           d="m 132.00874,169.75018 h -0.79632 v -2.3477 l 0.0743,-2.50449 -1.96811,4.85219 h -0.60652 l -1.96398,-4.84806 0.0743,2.50036 v 2.3477 h -0.79632 v -6.00747 h 0.68492 0.34658 l 1.95985,4.90995 1.95986,-4.90995 h 1.0315 z"
           style="font-style:normal;font-variant:normal;font-weight:normal;font-stretch:normal;font-family:Heebo;-inkscape-font-specification:Heebo;fill:#808080;fill-opacity:1;stroke:#808080;stroke-width:0.20381285;stroke-miterlimit:4;stroke-dasharray:none;stroke-opacity:1"
           id="path1100"
           inkscape:connector-curvature="0" />
        <path
           d="m 135.62313,163.74271 q 0.66429,0 1.13878,0.23518 0.47861,0.23106 0.72205,0.64366 0.24756,0.4126 0.24756,0.95311 0,0.57764 -0.24343,0.98612 -0.24344,0.40847 -0.71793,0.62302 -0.47037,0.21043 -1.14703,0.21043 h -1.41935 v 2.35595 h -0.80044 v -6.00747 z m 0,3.00786 q 0.66841,0 0.98612,-0.31357 0.32182,-0.31358 0.32182,-0.85409 0,-0.32595 -0.14028,-0.59414 -0.13616,-0.27232 -0.43323,-0.43323 -0.29295,-0.16504 -0.73443,-0.16504 h -1.41935 v 2.36007 z"
           style="font-style:normal;font-variant:normal;font-weight:normal;font-stretch:normal;font-family:Heebo;-inkscape-font-specification:Heebo;fill:#808080;fill-opacity:1;stroke:#808080;stroke-width:0.20381285;stroke-miterlimit:4;stroke-dasharray:none;stroke-opacity:1"
           id="path1102"
           inkscape:connector-curvature="0" />
      </g>
    </g>
  </g>
</svg>
