<?xml version="1.0" encoding="UTF-8" standalone="no"?>
<!-- Creator: CorelDRAW X8 -->

<svg
   xmlns:dc="http://purl.org/dc/elements/1.1/"
   xmlns:cc="http://creativecommons.org/ns#"
   xmlns:rdf="http://www.w3.org/1999/02/22-rdf-syntax-ns#"
   xmlns:svg="http://www.w3.org/2000/svg"
   xmlns="http://www.w3.org/2000/svg"
   xmlns:xlink="http://www.w3.org/1999/xlink"
   xmlns:sodipodi="http://sodipodi.sourceforge.net/DTD/sodipodi-0.dtd"
   xmlns:inkscape="http://www.inkscape.org/namespaces/inkscape"
   xml:space="preserve"
   width="0.76301199in"
   height="0.10151407in"
   version="1.0"
   style="clip-rule:evenodd;fill-rule:evenodd;image-rendering:optimizeQuality;shape-rendering:geometricPrecision;text-rendering:geometricPrecision"
   viewBox="0 0 763.03776 101.51808"
   id="svg234"
   sodipodi:docname="ifinity-logo.svg"
   inkscape:version="0.92.4 (5da689c313, 2019-01-14)"><metadata
   id="metadata238"><rdf:RDF><cc:Work
       rdf:about=""><dc:format>image/svg+xml</dc:format><dc:type
         rdf:resource="http://purl.org/dc/dcmitype/StillImage" /><dc:title /></cc:Work></rdf:RDF></metadata><sodipodi:namedview
   pagecolor="#ffffff"
   bordercolor="#666666"
   borderopacity="1"
   objecttolerance="10"
   gridtolerance="10"
   guidetolerance="10"
   inkscape:pageopacity="0"
   inkscape:pageshadow="2"
   inkscape:window-width="1600"
   inkscape:window-height="838"
   id="namedview236"
   showgrid="false"
   inkscape:zoom="15.481407"
   inkscape:cx="36.624531"
   inkscape:cy="4.8726731"
   inkscape:window-x="-8"
   inkscape:window-y="-8"
   inkscape:window-maximized="1"
   inkscape:current-layer="g1419" />
 <defs
   id="defs76">
  <style
   type="text/css"
   id="style2">
   <![CDATA[
    .str0 {stroke:#FEFEFE;stroke-width:6.94488}
    .fil7 {fill:none}
    .fil14 {fill:#FEFEFE}
    .fil8 {fill:#FEFEFE;fill-rule:nonzero}
    .fil0 {fill:#373435;fill-rule:nonzero}
    .fil3 {fill:url(#id18)}
    .fil4 {fill:url(#id19)}
    .fil11 {fill:url(#id20)}
    .fil13 {fill:url(#id21)}
    .fil5 {fill:url(#id22)}
    .fil2 {fill:url(#id23)}
    .fil15 {fill:url(#id24)}
    .fil1 {fill:url(#id25)}
    .fil6 {fill:url(#id26)}
    .fil9 {fill:url(#id27)}
    .fil12 {fill:url(#id28)}
    .fil10 {fill:url(#id29)}
   ]]>
  </style>
    <clipPath
   id="id0">
     <rect
   x="1093"
   y="2210"
   width="3058"
   height="578"
   id="rect4" />
    </clipPath>
     <clipPath
   id="id1">
      <rect
   x="1113"
   y="2866"
   width="2197"
   height="1630"
   id="rect7" />
     </clipPath>
     <clipPath
   id="id2">
      <path
   d="m 1248,3531 935,-912 993,858 -934,912 z"
   id="path10"
   inkscape:connector-curvature="0" />
     </clipPath>
     <clipPath
   id="id3">
      <rect
   x="1556"
   y="3569"
   width="790"
   height="340"
   id="rect13" />
     </clipPath>
     <clipPath
   id="id4">
      <path
   d="m 1951,3201 c 189,0 343,153 343,342 0,190 -154,343 -343,343 -189,0 -342,-153 -342,-343 0,-189 153,-342 342,-342 z"
   id="path16"
   inkscape:connector-curvature="0" />
     </clipPath>
      <clipPath
   id="id5">
       <path
   d="m 1951,3201 c 189,0 343,153 343,342 0,190 -154,343 -343,343 -189,0 -342,-153 -342,-343 0,-189 153,-342 342,-342 z"
   id="path19"
   inkscape:connector-curvature="0" />
      </clipPath>
      <clipPath
   id="id6">
       <path
   d="m 1951,3201 c 189,0 343,153 343,342 0,190 -154,343 -343,343 -189,0 -342,-153 -342,-343 0,-189 153,-342 342,-342 z"
   id="path22"
   inkscape:connector-curvature="0" />
      </clipPath>
     <clipPath
   id="id7">
      <rect
   x="4777"
   y="3356"
   width="2197"
   height="1630"
   id="rect25" />
     </clipPath>
     <clipPath
   id="id8">
      <path
   d="m 4912,4021 935,-912 993,858 -935,912 z"
   id="path28"
   inkscape:connector-curvature="0" />
     </clipPath>
     <clipPath
   id="id9">
      <rect
   x="5220"
   y="4059"
   width="790"
   height="340"
   id="rect31" />
     </clipPath>
     <clipPath
   id="id10">
      <path
   d="m 5615,3691 c 189,0 342,153 342,343 0,189 -153,342 -342,342 -190,0 -343,-153 -343,-342 0,-190 153,-343 343,-343 z"
   id="path34"
   inkscape:connector-curvature="0" />
     </clipPath>
      <clipPath
   id="id11">
       <path
   d="m 5615,3691 c 189,0 342,153 342,343 0,189 -153,342 -342,342 -190,0 -343,-153 -343,-342 0,-190 153,-343 343,-343 z"
   id="path37"
   inkscape:connector-curvature="0" />
      </clipPath>
      <clipPath
   id="id12">
       <path
   d="m 5615,3691 c 189,0 342,153 342,343 0,189 -153,342 -342,342 -190,0 -343,-153 -343,-342 0,-190 153,-343 343,-343 z"
   id="path40"
   inkscape:connector-curvature="0" />
      </clipPath>
     <clipPath
   id="id13">
      <rect
   x="4956"
   y="757"
   width="2197"
   height="1630"
   id="rect43" />
     </clipPath>
      <clipPath
   id="id14">
       <rect
   x="5474"
   y="1415"
   width="790"
   height="340"
   id="rect46" />
      </clipPath>
       <clipPath
   id="id15">
        <path
   d="m 5869,1047 c 189,0 342,153 342,343 0,189 -153,342 -342,342 -190,0 -343,-153 -343,-342 0,-190 153,-343 343,-343 z"
   id="path49"
   inkscape:connector-curvature="0" />
       </clipPath>
        <clipPath
   id="id16">
         <path
   d="m 5869,1047 c 189,0 342,153 342,343 0,189 -153,342 -342,342 -190,0 -343,-153 -343,-342 0,-190 153,-343 343,-343 z"
   id="path52"
   inkscape:connector-curvature="0" />
        </clipPath>
        <clipPath
   id="id17">
         <path
   d="m 5869,1047 c 189,0 342,153 342,343 0,189 -153,342 -342,342 -190,0 -343,-153 -343,-342 0,-190 153,-343 343,-343 z"
   id="path55"
   inkscape:connector-curvature="0" />
        </clipPath>
  <linearGradient
   id="id18"
   gradientUnits="userSpaceOnUse"
   x1="2494.1899"
   y1="4380.9502"
   x2="2507.74"
   y2="4368.1899">
   <stop
   offset="0"
   style="stop-opacity:1; stop-color:#ED3237"
   id="stop58" />
   <stop
   offset="0.709804"
   style="stop-opacity:1; stop-color:#F15C36"
   id="stop60" />
   <stop
   offset="1"
   style="stop-opacity:1; stop-color:#F58634"
   id="stop62" />
  </linearGradient>
  <linearGradient
   id="id19"
   gradientUnits="userSpaceOnUse"
   xlink:href="#id18"
   x1="1393.8199"
   y1="3597.3301"
   x2="2186.26"
   y2="2851.48">
  </linearGradient>
  <linearGradient
   id="id20"
   gradientUnits="userSpaceOnUse"
   xlink:href="#id18"
   x1="6157.6699"
   y1="4871.02"
   x2="6171.2202"
   y2="4858.2598">
  </linearGradient>
  <linearGradient
   id="id21"
   gradientUnits="userSpaceOnUse"
   xlink:href="#id18"
   x1="5668.0601"
   y1="3353.0801"
   x2="5668.0601"
   y2="5219.2202">
  </linearGradient>
  <linearGradient
   id="id22"
   gradientUnits="userSpaceOnUse"
   xlink:href="#id18"
   x1="2004.5699"
   y1="2863.01"
   x2="2004.5699"
   y2="4729.1602">
  </linearGradient>
  <linearGradient
   id="id23"
   gradientUnits="userSpaceOnUse"
   xlink:href="#id18"
   x1="2209.6399"
   y1="3225.46"
   x2="2980.52"
   y2="4192.6401">
  </linearGradient>
  <linearGradient
   id="id24"
   gradientUnits="userSpaceOnUse"
   xlink:href="#id18"
   x1="6037.6099"
   y1="1955.61"
   x2="6037.6299"
   y2="609.38202">
  </linearGradient>
  <linearGradient
   id="id25"
   gradientUnits="userSpaceOnUse"
   xlink:href="#id18"
   x1="2194.71"
   y1="4065.02"
   x2="2194.72"
   y2="2718.79">
  </linearGradient>
  <linearGradient
   id="id26"
   gradientUnits="userSpaceOnUse"
   xlink:href="#id18"
   x1="2885.29"
   y1="3486.8301"
   x2="2117.74"
   y2="5154.2598">
  </linearGradient>
  <linearGradient
   id="id27"
   gradientUnits="userSpaceOnUse"
   xlink:href="#id18"
   x1="5858.1899"
   y1="4555.0801"
   x2="5858.2002"
   y2="3208.8501">
  </linearGradient>
  <linearGradient
   id="id28"
   gradientUnits="userSpaceOnUse"
   xlink:href="#id18"
   x1="5057.2998"
   y1="4087.3899"
   x2="5849.7402"
   y2="3341.54">
  </linearGradient>
  <linearGradient
   id="id29"
   gradientUnits="userSpaceOnUse"
   xlink:href="#id18"
   x1="5915.79"
   y1="4319.1699"
   x2="6773.0698"
   y2="3512.29">
  </linearGradient>
 
  
  
 
   
   
   
   
  
    
    
    
    
    
   
    
    
    
    
    
    
    
    
    
    
    
    
   
    
    
    
    
    
    
    
    
    
    
    
   
    
   <filter
   style="color-interpolation-filters:sRGB"
   inkscape:label="Greyscale"
   id="filter1351"><feColorMatrix
     values="0.21 0.72 0.072 0 0 0.21 0.72 0.072 0 0 0.21 0.72 0.072 0 0 0 0 0 1 0 "
     id="feColorMatrix1349" /></filter></defs>
 <g
   id="g116"
   transform="translate(-13742.482,1552.7347)">
    </g><g
   id="g172"
   transform="translate(-13742.482,1552.7347)">
    </g>
<g
   id="g1347"
   transform="translate(-13742.482,1552.7347)"><g
     id="g1419"
     transform="matrix(0.08295737,0,0,0.08295737,13423.61,-1756.4449)"><g
       style="fill:#000000"
       id="g1285"
       transform="matrix(2.8556359,0,0,2.8556359,2124.6805,-11345.816)"><g
         style="fill:#000000"
         id="g1290"
         transform="translate(0,391.91116)"><path
           style="fill:#000000;fill-rule:nonzero;stroke-width:1.10828781"
           inkscape:connector-curvature="0"
           id="path83"
           d="m 622,4576.2472 c 0,27.0226 0,49.132 -1,60.1868 -1,8.5981 -2,12.283 -7,13.5113 -2,1.2283 -4,1.2283 -8,1.2283 -3,0 -4,1.2283 -4,2.4566 0,2.4566 2,3.6849 5,3.6849 9,0 25,-1.2283 31,-1.2283 6,0 22,1.2283 37,1.2283 3,0 5,-1.2283 5,-3.6849 0,-1.2283 -1,-2.4566 -4,-2.4566 -3,0 -9,0 -12,-1.2283 -7,-1.2283 -8,-4.9132 -9,-12.283 -1,-12.2831 -1,-34.3925 -1,-61.4151 v -49.1321 -58.9585 c 1,-9.8264 3,-13.5113 9,-14.7396 3,-1.2283 5,-1.2283 7,-1.2283 2,0 4,-1.2283 4,-3.6849 0,-1.2283 -2,-2.4566 -5,-2.4566 -9,0 -24,1.2283 -30,1.2283 -7,0 -23,-1.2283 -32,-1.2283 -3,0 -5,1.2283 -5,2.4566 0,2.4566 1,3.6849 4,3.6849 2,0 5,0 8,1.2283 5,2.4566 8,4.9132 8,14.7396 v 58.9585 z m 195,-71.2415 h 1 c 5,4.9132 29,39.3056 55,68.7849 24,29.4792 54,63.8717 68,81.0679 3,2.4566 6,4.9132 10,4.9132 2,0 4,-2.4566 4,-8.5981 l 2,-175.6472 c 1,-14.7396 3,-19.6528 9,-22.1094 3,-1.2283 5,-1.2283 7,-1.2283 3,0 4,-1.2283 4,-3.6849 0,-1.2283 -2,-2.4566 -5,-2.4566 -12,0 -20,1.2283 -23,1.2283 -5,0 -18,-1.2283 -30,-1.2283 -3,0 -6,1.2283 -6,2.4566 0,2.4566 1,3.6849 4,3.6849 3,0 9,0 12,1.2283 6,2.4566 8,7.3698 8,24.566 l 3,124.0585 h -2 c -3,-3.6849 -34,-42.9905 -50,-62.6434 -34,-40.5339 -69,-84.7528 -72,-88.4377 -4,-4.9132 -8,-9.8264 -11,-9.8264 -2,0 -4,4.9132 -4,9.8264 l -2,164.5924 c 0,24.5661 -1,31.9359 -7,34.3925 -3,1.2283 -7,1.2283 -11,1.2283 -2,0 -3,1.2283 -3,2.4566 0,3.6849 2,3.6849 5,3.6849 12,0 23,-1.2283 25,-1.2283 5,0 16,1.2283 31,1.2283 3,0 5,-1.2283 5,-3.6849 0,-1.2283 -1,-2.4566 -4,-2.4566 -4,0 -8,0 -12,-2.4566 -5,-1.2283 -8,-8.5981 -8,-29.4793 z m 286.5815,49.132 c 0,-2.4566 1,-2.4566 2,-2.4566 4,0 32,0 38,1.2283 7,1.2283 10,6.1416 11,9.8265 1,3.6849 1,7.3698 1,8.5981 0,2.4566 1,3.6849 2,3.6849 3,0 3,-3.6849 3,-6.1415 0,-1.2283 0,-14.7397 1,-19.6529 1,-8.5981 2,-17.1962 2,-18.4245 0,-1.2283 -1,-2.4566 -2,-2.4566 -1,0 -1,1.2283 -3,2.4566 -2,3.6849 -5,4.9132 -10,4.9132 -3,1.2283 -6,1.2283 -10,1.2283 h -33 c -1,0 -2,-1.2283 -2,-2.4566 v -67.5566 c 0,-3.6849 1,-3.6849 2,-3.6849 h 39 c 9,1.2283 14,4.9132 15,8.5981 2,4.9132 2,8.5981 2,11.0547 0,3.6849 1,4.9132 3,4.9132 1,0 2,-3.6849 2,-6.1415 0,-3.6849 1,-19.6528 1,-22.1094 1,-7.3698 2,-11.0547 2,-12.283 0,-1.2283 -1,-3.6849 -2,-3.6849 -1,0 -2,2.4566 -3,2.4566 -3,0 -6,1.2283 -10,1.2283 h -67 c -6,0 -21,-1.2283 -33,-1.2283 -4,0 -6,1.2283 -6,2.4566 0,2.4566 2,3.6849 4,3.6849 4,0 8,0 9,1.2283 8,2.4566 10,4.9132 11,14.7396 v 58.9585 49.1321 c 0,27.0226 0,47.9037 -1,58.9585 -1,8.5981 -2,13.5113 -7,14.7396 -2,1.2283 -5,1.2283 -8,1.2283 -3,0 -4,1.2283 -4,2.4566 0,2.4566 2,3.6849 5,3.6849 9,0 24,-1.2283 30,-1.2283 6,0 22,1.2283 37,1.2283 4,0 5,-1.2283 5,-3.6849 0,-1.2283 -1,-2.4566 -4,-2.4566 -3,0 -8,0 -11,-1.2283 -7,-1.2283 -9,-6.1415 -9,-14.7396 -1,-11.0548 -2,-30.7076 -2,-57.7302 z m 171.9988,22.1095 c 0,27.0226 0,49.132 -1,60.1868 -1,8.5981 -2,12.283 -7,13.5113 -2,1.2283 -5,1.2283 -8,1.2283 -3,0 -4,1.2283 -4,2.4566 0,2.4566 2,3.6849 5,3.6849 9,0 25,-1.2283 30,-1.2283 7,0 23,1.2283 38,1.2283 3,0 5,-1.2283 5,-3.6849 0,-1.2283 -1,-2.4566 -4,-2.4566 -4,0 -9,0 -12,-1.2283 -7,-1.2283 -9,-4.9132 -9,-12.283 -1,-12.2831 -1,-34.3925 -1,-61.4151 v -49.1321 -58.9585 c 1,-9.8264 2,-13.5113 9,-14.7396 3,-1.2283 4,-1.2283 7,-1.2283 2,0 4,-1.2283 4,-3.6849 0,-1.2283 -2,-2.4566 -5,-2.4566 -9,0 -25,1.2283 -30,1.2283 -7,0 -23,-1.2283 -32,-1.2283 -4,0 -5,1.2283 -5,2.4566 0,2.4566 1,3.6849 3,3.6849 3,0 6,0 9,1.2283 5,2.4566 7,4.9132 8,14.7396 v 58.9585 z m 186.7679,-71.2415 h 1 c 4,4.9132 29,39.3056 55,68.7849 24,29.4792 53,63.8717 68,81.0679 3,2.4566 6,4.9132 10,4.9132 2,0 4,-2.4566 4,-8.5981 l 2,-175.6472 c 0,-14.7396 2,-19.6528 9,-22.1094 3,-1.2283 5,-1.2283 7,-1.2283 3,0 4,-1.2283 4,-3.6849 0,-1.2283 -2,-2.4566 -5,-2.4566 -12,0 -21,1.2283 -23,1.2283 -5,0 -18,-1.2283 -30,-1.2283 -4,0 -6,1.2283 -6,2.4566 0,2.4566 1,3.6849 4,3.6849 3,0 8,0 12,1.2283 5,2.4566 8,7.3698 8,24.566 l 2,124.0585 h -1 c -3,-3.6849 -34,-42.9905 -50,-62.6434 -35,-40.5339 -70,-84.7528 -73,-88.4377 -4,-4.9132 -7,-9.8264 -10,-9.8264 -2,0 -4,4.9132 -4,9.8264 l -2,164.5924 c 0,24.5661 -1,31.9359 -7,34.3925 -3,1.2283 -8,1.2283 -11,1.2283 -2,0 -4,1.2283 -4,2.4566 0,3.6849 3,3.6849 6,3.6849 12,0 23,-1.2283 25,-1.2283 4,0 15,1.2283 31,1.2283 3,0 5,-1.2283 5,-3.6849 0,-1.2283 -1,-2.4566 -4,-2.4566 -4,0 -8,0 -12,-2.4566 -5,-1.2283 -8,-8.5981 -8,-29.4793 z M 1737,4576.2472 c 0,27.0226 0,49.132 -1,60.1868 -1,8.5981 -3,12.283 -7,13.5113 -3,1.2283 -5,1.2283 -9,1.2283 -3,0 -3,1.2283 -3,2.4566 0,2.4566 1,3.6849 4,3.6849 9,0 25,-1.2283 31,-1.2283 6,0 22,1.2283 38,1.2283 2,0 4,-1.2283 4,-3.6849 0,-1.2283 -1,-2.4566 -4,-2.4566 -3,0 -8,0 -12,-1.2283 -6,-1.2283 -8,-4.9132 -9,-12.283 -1,-12.2831 -1,-34.3925 -1,-61.4151 v -49.1321 c 0,-41.7623 0,-50.3604 1,-58.9585 0,-9.8264 2,-13.5113 8,-14.7396 3,-1.2283 5,-1.2283 7,-1.2283 3,0 4,-1.2283 4,-3.6849 0,-1.2283 -2,-2.4566 -5,-2.4566 -9,0 -24,1.2283 -30,1.2283 -7,0 -23,-1.2283 -31,-1.2283 -4,0 -6,1.2283 -6,2.4566 0,2.4566 1,3.6849 4,3.6849 3,0 6,0 8,1.2283 5,2.4566 8,4.9132 8,14.7396 1,8.5981 1,17.1962 1,58.9585 z m 214,0 c 0,25.7943 0,47.9037 -1,58.9585 -1,8.5981 -3,13.5113 -7,14.7396 -2,1.2283 -5,1.2283 -9,1.2283 -3,0 -3,1.2283 -3,2.4566 0,2.4566 1,3.6849 4,3.6849 10,0 26,-1.2283 31,-1.2283 7,0 22,1.2283 38,1.2283 2,0 4,-1.2283 4,-3.6849 0,-1.2283 -1,-2.4566 -3,-2.4566 -4,0 -9,0 -12,-1.2283 -7,-1.2283 -9,-6.1415 -10,-14.7396 -1,-11.0548 -1,-33.1642 -1,-58.9585 v -113.0038 l 30,1.2283 c 21,0 27,8.5981 27,15.9679 l 1,2.4566 c 0,4.9132 0,6.1415 2,6.1415 2,0 2,-2.4566 3,-4.9132 v -33.1641 c 0,-4.9132 0,-6.1415 -2,-6.1415 -1,0 -3,0 -6,1.2283 -4,0 -9,1.2283 -16,1.2283 h -95 c -8,0 -17,0 -24,-1.2283 -6,-1.2283 -8,-3.6849 -10,-3.6849 -1,0 -2,1.2283 -3,4.9132 0,2.4566 -5,29.4792 -5,34.3924 0,2.4566 1,4.9132 2,4.9132 2,0 3,-1.2283 3,-3.6849 1,-2.4566 2,-6.1415 4,-9.8264 4,-6.1415 9,-8.5981 23,-8.5981 l 35,-1.2283 z m 212,0 c 0,25.7943 0,47.9037 -1,58.9585 -1,8.5981 -3,13.5113 -7,14.7396 -2,1.2283 -5,1.2283 -9,1.2283 -3,0 -3,1.2283 -3,2.4566 0,2.4566 1,3.6849 4,3.6849 5,0 11,0 16,-1.2283 h 14 c 7,0 16,0 27,1.2283 h 43 c 9,0 11,0 13,-7.3698 1,-4.9132 3,-24.5661 3,-30.7076 0,-2.4566 0,-6.1415 -2,-6.1415 -2,0 -2,1.2283 -3,4.9132 -1,11.0548 -4,17.1963 -10,19.6529 -6,3.6849 -16,3.6849 -22,3.6849 -24,0 -31,-3.6849 -32,-23.3378 v -40.5339 -22.1095 c 0,-2.4566 0,-3.6849 1,-3.6849 6,0 33,1.2283 37,1.2283 9,1.2283 12,6.1416 13,11.0548 1,3.6849 1,7.3698 1,9.8264 0,1.2283 1,2.4566 2,2.4566 2,0 3,-3.6849 3,-6.1415 0,-1.2283 0,-13.5114 1,-18.4246 1,-14.7396 2,-18.4245 2,-20.8811 0,-1.2283 -1,-2.4566 -2,-2.4566 -1,0 -2,1.2283 -4,3.6849 -2,2.4566 -6,3.6849 -11,3.6849 -6,1.2283 -36,1.2283 -41,1.2283 -2,0 -2,-1.2283 -2,-2.4566 V 4465.7 c 0,-2.4566 1,-3.6849 2,-3.6849 5,0 33,1.2283 37,1.2283 11,2.4566 13,6.1415 15,11.0547 1,2.4566 2,7.3698 2,9.8264 0,2.4566 0,3.6849 1,3.6849 2,0 3,-3.6849 3,-4.9132 1,-2.4566 1,-14.7396 1,-18.4245 1,-12.283 2,-15.9679 2,-17.1962 0,-1.2283 0,-3.6849 -1,-3.6849 -1,0 -3,1.2283 -4,2.4566 -2,0 -6,1.2283 -10,1.2283 h -64 c -7,0 -21,-1.2283 -34,-1.2283 -3,0 -5,1.2283 -5,2.4566 0,2.4566 2,3.6849 4,3.6849 3,0 7,0 9,1.2283 8,2.4566 10,4.9132 10,14.7396 1,8.5981 1,17.1962 1,58.9585 z m 451,31.9358 v -34.3924 c 0,-9.8264 3,-13.5113 9,-14.7396 3,0 5,-1.2284 7,-1.2284 1,0 3,-1.2283 3,-2.4566 0,-2.4566 -2,-2.4566 -5,-2.4566 h -28 -36 c -3,0 -5,0 -5,2.4566 0,1.2283 2,2.4566 4,2.4566 3,0 7,1.2284 9,1.2284 7,2.4566 10,6.1415 10,14.7396 v 33.1641 25.7944 c 0,4.9132 -1,7.3698 -4,9.8264 -6,2.4566 -11,2.4566 -17,2.4566 -50,0 -81,-42.9906 -81,-103.1774 0,-34.3924 8,-55.2736 21,-67.5566 17,-15.9679 33,-17.1962 46,-17.1962 26,0 44,13.5113 51,22.1094 6,7.3698 7,15.968 8,22.1095 0,2.4566 0,3.6849 2,3.6849 2,0 3,-1.2283 3,-6.1415 0,-34.3925 2,-41.7623 2,-45.4472 0,-2.4566 -1,-2.4566 -3,-3.6849 -6,0 -14,-1.2283 -19,-2.4566 -5,-1.2283 -25,-4.9132 -42,-4.9132 -19,0 -40,2.4566 -63,18.4245 -21,14.7396 -41,46.6755 -41,90.8943 0,77.3831 51,109.3189 109,109.3189 18,0 41,-3.6849 57,-12.283 3,-2.4566 3,-2.4566 3,-9.8264 z m 140,-31.9358 c 0,25.7943 0,47.9037 -1,58.9585 -1,8.5981 -2,13.5113 -7,14.7396 -2,1.2283 -5,1.2283 -8,1.2283 -3,0 -4,1.2283 -4,2.4566 0,2.4566 1,3.6849 4,3.6849 5,0 11,0 17,-1.2283 h 13 c 7,0 16,0 27,1.2283 h 43 c 9,0 11,0 13,-7.3698 1,-4.9132 3,-24.5661 3,-30.7076 0,-2.4566 0,-6.1415 -2,-6.1415 -2,0 -2,1.2283 -3,4.9132 -1,11.0548 -4,17.1963 -10,19.6529 -6,3.6849 -16,3.6849 -22,3.6849 -24,0 -31,-3.6849 -32,-23.3378 v -40.5339 -22.1095 c 0,-2.4566 1,-3.6849 2,-3.6849 5,0 32,1.2283 36,1.2283 9,1.2283 12,6.1416 13,11.0548 1,3.6849 1,7.3698 1,9.8264 0,1.2283 1,2.4566 2,2.4566 3,0 3,-3.6849 3,-6.1415 0,-1.2283 0,-13.5114 1,-18.4246 1,-14.7396 2,-18.4245 2,-20.8811 0,-1.2283 -1,-2.4566 -2,-2.4566 -1,0 -2,1.2283 -4,3.6849 -2,2.4566 -5,3.6849 -11,3.6849 -5,1.2283 -36,1.2283 -41,1.2283 -1,0 -2,-1.2283 -2,-2.4566 V 4465.7 c 0,-2.4566 1,-3.6849 2,-3.6849 5,0 33,1.2283 37,1.2283 11,2.4566 13,6.1415 15,11.0547 1,2.4566 2,7.3698 2,9.8264 0,2.4566 0,3.6849 2,3.6849 1,0 2,-3.6849 2,-4.9132 1,-2.4566 1,-14.7396 2,-18.4245 0,-12.283 1,-15.9679 1,-17.1962 0,-1.2283 0,-3.6849 -1,-3.6849 -1,0 -3,1.2283 -4,2.4566 -2,0 -5,1.2283 -10,1.2283 h -64 c -6,0 -21,-1.2283 -34,-1.2283 -3,0 -5,1.2283 -5,2.4566 0,2.4566 2,3.6849 4,3.6849 4,0 8,0 9,1.2283 8,2.4566 10,4.9132 11,14.7396 v 58.9585 z m 234,-71.2415 h 1 c 5,4.9132 30,39.3056 55,68.7849 25,29.4792 54,63.8717 69,81.0679 2,2.4566 5,4.9132 9,4.9132 2,0 4,-2.4566 4,-8.5981 l 3,-175.6472 c 0,-14.7396 2,-19.6528 8,-22.1094 3,-1.2283 5,-1.2283 7,-1.2283 3,0 4,-1.2283 4,-3.6849 0,-1.2283 -2,-2.4566 -5,-2.4566 -11,0 -20,1.2283 -23,1.2283 -5,0 -18,-1.2283 -30,-1.2283 -3,0 -6,1.2283 -6,2.4566 0,2.4566 1,3.6849 4,3.6849 3,0 9,0 12,1.2283 6,2.4566 8,7.3698 8,24.566 l 3,124.0585 h -1 c -4,-3.6849 -35,-42.9905 -51,-62.6434 -34,-40.5339 -69,-84.7528 -72,-88.4377 -4,-4.9132 -7,-9.8264 -10,-9.8264 -3,0 -4,4.9132 -4,9.8264 l -2,164.5924 c -1,24.5661 -1,31.9359 -8,34.3925 -3,1.2283 -7,1.2283 -10,1.2283 -2,0 -4,1.2283 -4,2.4566 0,3.6849 2,3.6849 5,3.6849 12,0 24,-1.2283 26,-1.2283 4,0 15,1.2283 30,1.2283 3,0 5,-1.2283 5,-3.6849 0,-1.2283 -1,-2.4566 -4,-2.4566 -3,0 -8,0 -12,-2.4566 -4,-1.2283 -7,-8.5981 -8,-29.4793 z m 287,71.2415 c 0,27.0226 0,49.132 -1,60.1868 -1,8.5981 -2,12.283 -7,13.5113 -2,1.2283 -5,1.2283 -8,1.2283 -3,0 -4,1.2283 -4,2.4566 0,2.4566 2,3.6849 5,3.6849 9,0 25,-1.2283 30,-1.2283 7,0 23,1.2283 38,1.2283 3,0 5,-1.2283 5,-3.6849 0,-1.2283 -1,-2.4566 -4,-2.4566 -4,0 -9,0 -12,-1.2283 -7,-1.2283 -9,-4.9132 -9,-12.283 -1,-12.2831 -1,-34.3925 -1,-61.4151 v -49.1321 -58.9585 c 1,-9.8264 2,-13.5113 9,-14.7396 3,-1.2283 4,-1.2283 7,-1.2283 2,0 4,-1.2283 4,-3.6849 0,-1.2283 -2,-2.4566 -5,-2.4566 -9,0 -25,1.2283 -30,1.2283 -7,0 -23,-1.2283 -32,-1.2283 -4,0 -5,1.2283 -5,2.4566 0,2.4566 1,3.6849 3,3.6849 3,0 6,0 9,1.2283 5,2.4566 7,4.9132 8,14.7396 v 58.9585 z m 173,-8.5981 c 0,40.5339 9,61.4151 21,73.6981 17,18.4245 42,19.6528 54,19.6528 15,0 33,-3.6849 49,-20.8811 20,-19.6529 23,-51.5887 23,-83.5246 v -29.4792 -58.9585 c 1,-9.8264 2,-13.5113 9,-14.7396 3,-1.2283 4,-1.2283 7,-1.2283 2,0 4,-1.2283 4,-3.6849 0,-1.2283 -2,-2.4566 -5,-2.4566 -9,0 -25,1.2283 -27,1.2283 -1,0 -16,-1.2283 -28,-1.2283 -4,0 -5,1.2283 -5,2.4566 0,2.4566 1,3.6849 4,3.6849 2,0 6,0 8,1.2283 8,2.4566 10,4.9132 10,14.7396 0,8.5981 1,17.1962 1,58.9585 v 34.3925 c 0,29.4792 -1,52.8169 -14,68.7849 -9,11.0547 -21,14.7396 -31,14.7396 -8,0 -20,-1.2283 -30,-11.0547 -11,-11.0548 -18,-27.0227 -18,-67.5566 v -39.3057 c 0,-41.7623 0,-50.3604 1,-58.9585 0,-9.8264 2,-13.5113 8,-14.7396 3,-1.2283 4,-1.2283 7,-1.2283 3,0 4,-1.2283 4,-3.6849 0,-1.2283 -2,-2.4566 -5,-2.4566 -9,0 -24,1.2283 -30,1.2283 -7,0 -23,-1.2283 -36,-1.2283 -3,0 -5,1.2283 -5,2.4566 0,2.4566 2,3.6849 4,3.6849 4,0 8,0 9,1.2283 8,2.4566 10,4.9132 11,14.7396 v 58.9585 z M 3760,4661 c 13,0 28,-2.4566 40,-12.283 17,-14.7396 23,-30.7076 23,-51.5887 0,-25.7943 -10,-46.6755 -41,-67.5566 l -9,-6.1415 c -21,-14.7396 -25,-24.566 -25,-36.8491 0,-19.6528 15,-29.4792 32,-29.4792 15,0 23,7.3698 26,12.283 5,7.3698 6,15.9679 6,18.4245 0,3.685 1,4.9133 3,4.9133 2,0 3,-2.4567 3,-8.5982 v -33.1641 c 0,-2.4566 -1,-3.6849 -3,-3.6849 -6,-2.4566 -18,-4.9132 -33,-4.9132 -33,0 -59,22.1094 -59,56.5019 0,24.566 9,42.9905 37,62.6434 l 13,9.8264 c 21,14.7396 23,27.0226 23,39.3056 0,19.6529 -12,35.6208 -32,35.6208 -15,0 -32,-7.3698 -38,-27.0227 -1,-4.9132 -2,-11.0547 -2,-14.7396 0,-2.4566 0,-4.9132 -2,-4.9132 -2,0 -3,3.6849 -3,7.3698 0,4.9132 -1,22.1095 -1,36.8491 0,6.1415 0,7.3698 4,9.8264 10,4.9132 25,7.3698 38,7.3698 z"
           class="fil0"
           sodipodi:nodetypes="sccsssssssccscccssssssscscsccccsccsssssssssccccssccsssssssscccsscsssscssccsssssccssscsssssssscccsccsssssssccsssccsssssssccscccssssssscccsccccscccssssssscccccssccsssssssscccsccsssssssccssccsssssssccsssccsssssssccsccccscsscsscscssccccssccssscscscssccsccssccssscssscsssscsssccsscsssssccsscscssscssscscscsscsscssscsscsscscsccssscscscssccsccssccssscssscsssscsssccsscssssscccsccccsccsssssssssccccsscccssssssscccsccsssssssccscccssssssscccsscscscccssssssscssscscssccssssssscccsscsccsscsssscssccsscsssscs" /><g
           style="fill:#000000"
           id="g89"
           transform="translate(0,41.668314)">
     <path
   sodipodi:nodetypes="sssccsscsssscssccsscsscscsssssssssssssccssscssssccsscccssscsscsccssscsccccscscscsccsscccscscscsccscccssssccsscssssccccccsccccscccssscssssccccscccsscssscsssccccccsssssscccscccssscsssssccscccccccscsccscscscsccssssccssscscccscscssscscsscsscscsssccscsccsscssccsccssccssscscccssscccssccsscsccssscscssssccssssssscssccsscsssscssssssssssscccssscssscccsccscsccsscssccscscscscscccssscsssccsscscssccssscssscccssccscscscsccscccssssscsscssssccccssccscscscsccssccssscsssccssssssssssssccscscccssscsssccccscscccssscssssccscsccsscsssscssccsscsssscs"
   style="fill:#000000;fill-rule:nonzero"
   inkscape:connector-curvature="0"
   id="path85"
   d="m 752,4828 c 9,0 19,-2 28,-8 12,-8 16,-20 16,-30 0,-16 -7,-28 -28,-44 l -5,-4 c -15,-11 -19,-17 -19,-25 0,-10 8,-18 21,-18 11,0 16,5 19,9 4,4 5,10 5,11 0,2 0,3 1,3 2,0 2,-1 2,-5 0,-13 1,-19 1,-21 0,-1 -1,-2 -2,-2 -5,-1 -12,-3 -24,-3 -24,0 -40,14 -40,33 0,14 7,26 26,41 l 8,7 c 14,11 17,19 17,27 0,10 -8,20 -23,20 -11,0 -21,-4 -25,-17 -1,-3 -2,-7 -2,-9 0,-2 0,-3 -2,-3 -1,0 -1,2 -2,4 v 23 c 0,4 0,5 3,6 7,3 15,5 25,5 z m 185,0 c 45,0 73,-32 73,-72 0,-40 -27,-65 -71,-65 -52,0 -72,39 -72,68 0,31 21,69 70,69 z m 8,-9 c -34,0 -54,-29 -54,-65 0,-43 23,-54 43,-54 29,0 51,24 51,63 0,50 -28,56 -40,56 z m 171,-58 c 0,-2 1,-2 2,-2 3,0 21,0 25,1 6,0 8,3 9,6 1,2 1,4 1,5 0,1 1,3 2,3 1,0 1,-2 1,-4 0,-1 1,-9 1,-12 1,-6 2,-10 2,-11 0,-1 -1,-2 -2,-2 -1,0 -1,1 -2,2 -2,2 -4,3 -7,3 h -8 l -22,1 c -1,0 -2,-1 -2,-2 v -44 c 0,-1 1,-2 2,-2 l 27,1 c 6,0 10,2 11,5 1,2 1,5 1,6 0,2 1,3 2,3 1,0 2,-1 2,-2 0,-2 0,-13 1,-14 0,-5 1,-7 1,-8 0,-1 0,-2 -1,-2 -1,0 -2,1 -3,1 -2,1 -4,1 -7,1 h -46 -11 -14 c -3,0 -4,0 -4,1 0,1 1,2 3,2 h 7 c 5,1 7,4 7,10 v 37 31 37 c -1,5 -2,9 -5,9 -2,1 -4,1 -7,1 -2,0 -2,1 -2,1 0,2 1,2 3,2 h 22 27 c 3,0 4,0 4,-2 0,0 -1,-1 -3,-1 -3,0 -6,0 -9,-1 -5,0 -6,-4 -7,-9 -1,-8 -1,-21 -1,-37 z m 158,14 v 37 c -1,5 -2,9 -5,9 -2,1 -4,1 -7,1 -2,0 -2,1 -2,1 0,2 1,2 3,2 h 22 27 c 2,0 4,0 4,-2 0,0 -1,-1 -3,-1 -3,0 -7,0 -9,-1 -5,0 -6,-4 -7,-9 -1,-8 -1,-21 -1,-37 v -72 l 22,1 c 16,0 20,5 21,10 v 2 c 0,2 0,3 2,3 1,0 1,-1 1,-3 0,-4 1,-16 1,-20 0,-3 0,-4 -2,-4 0,0 -2,1 -4,1 -3,1 -7,1 -12,1 h -69 c -6,0 -12,0 -18,-1 -4,0 -6,-2 -7,-2 -1,0 -2,1 -2,3 0,2 -4,18 -4,20 0,2 1,3 2,3 1,0 1,0 2,-2 0,-1 1,-3 3,-6 2,-4 6,-5 17,-5 l 25,-1 z m 171,46 c 1,5 2,7 4,7 2,0 3,-2 6,-10 8,-16 31,-77 34,-86 v 0 l 37,87 c 2,7 3,9 5,9 2,0 3,-2 5,-9 9,-26 27,-81 35,-103 4,-10 5,-17 10,-18 2,-1 4,-1 6,-1 1,0 2,-1 2,-2 0,-1 -1,-1 -3,-1 h -14 -19 c -2,0 -4,0 -4,1 0,1 2,2 3,2 7,0 9,2 9,5 0,2 -1,6 -2,10 -6,20 -20,66 -23,78 h -1 l -36,-88 c -2,-5 -3,-8 -5,-8 -1,0 -2,2 -4,6 l -34,91 v 0 c -4,-10 -20,-62 -23,-74 -2,-8 -4,-13 -4,-16 0,-2 1,-3 2,-4 h 5 c 1,0 3,0 3,-2 0,-1 -1,-1 -4,-1 h -19 -20 c -3,0 -4,0 -4,1 0,2 1,2 3,2 1,0 5,0 7,1 2,2 4,6 6,13 z m 256,-40 c 0,0 1,0 1,1 l 14,36 c 1,2 0,4 -1,4 -2,0 -3,0 -3,1 0,2 2,2 5,2 h 33 c 7,0 8,0 8,-2 0,-1 0,-1 -2,-1 -2,0 -5,0 -7,-1 -4,-1 -9,-3 -16,-19 -11,-26 -38,-96 -43,-105 -1,-4 -2,-6 -4,-6 -2,0 -3,2 -5,7 l -44,108 c -3,9 -6,15 -14,16 h -6 c -1,0 -2,0 -2,1 0,2 1,2 3,2 h 21 18 c 2,0 3,0 3,-2 0,-1 0,-1 -2,-1 h -3 c -5,0 -7,-2 -7,-5 0,-2 1,-7 3,-11 l 9,-24 c 1,-1 1,-1 2,-1 z m -36,-9 c 0,0 -1,0 0,-1 l 16,-43 c 0,0 0,-1 1,-1 0,0 0,1 1,1 l 15,43 c 0,1 0,1 -1,1 z m 160,3 c 0,16 0,29 -1,37 0,5 -1,9 -5,9 -1,1 -3,1 -6,1 -2,0 -3,1 -3,1 0,2 2,2 4,2 h 21 26 c 2,0 3,0 3,-2 0,0 -1,-1 -2,-1 -2,0 -6,0 -9,-1 -5,0 -6,-4 -6,-9 -1,-8 -1,-21 -1,-37 v -3 c 0,-1 0,-1 1,-1 h 15 c 2,0 3,0 3,1 3,3 11,15 18,24 9,14 16,22 24,26 4,2 8,3 18,3 h 17 c 2,0 3,0 3,-2 0,0 -1,-1 -2,-1 h -5 c -3,-1 -10,-2 -19,-12 -11,-11 -23,-27 -38,-46 17,-14 23,-26 23,-39 0,-12 -7,-21 -12,-24 -9,-6 -21,-7 -32,-7 h -25 -23 c -3,0 -4,0 -4,1 0,1 1,2 3,2 h 6 c 6,1 8,4 8,10 v 37 z m 21,-70 c 0,-1 0,-2 1,-3 h 10 c 10,0 26,7 26,32 0,14 -5,22 -10,26 -3,2 -5,3 -12,3 -5,0 -10,-1 -14,-2 -1,-1 -1,-1 -1,-3 z m 159,70 c 0,16 0,29 -1,37 0,5 -1,9 -5,9 -1,1 -3,1 -6,1 -2,0 -3,1 -3,1 0,2 2,2 4,2 h 12 10 18 c 7,0 17,1 30,1 7,0 8,0 9,-5 1,-3 3,-15 3,-19 0,-2 0,-3 -2,-3 -1,0 -1,0 -2,2 -1,7 -3,11 -8,13 -4,2 -11,2 -16,2 -18,0 -20,-2 -21,-14 v -27 -14 c 0,-1 0,-2 1,-2 4,0 22,0 25,1 6,0 9,3 10,7 v 6 c 0,1 1,1 2,1 2,0 2,-2 2,-3 v -12 c 1,-8 2,-11 2,-12 0,-1 -1,-2 -2,-2 0,0 -1,1 -2,3 -2,1 -5,2 -9,2 -4,1 -24,1 -28,1 -1,0 -1,-1 -1,-2 v -44 c 0,-2 1,-2 1,-2 4,0 22,0 25,1 9,1 11,3 12,6 1,2 1,5 1,6 0,2 0,2 1,2 2,0 2,-1 2,-1 0,-3 1,-10 1,-12 1,-8 1,-10 1,-11 0,-1 0,-2 -1,-2 -1,0 -2,1 -2,1 -2,0 -5,1 -8,1 h -43 -11 -14 c -3,0 -4,0 -4,1 0,1 1,2 3,2 h 6 c 6,1 8,4 8,10 v 37 z m 227,53 c 9,0 19,-2 28,-8 12,-8 16,-20 16,-30 0,-16 -8,-28 -29,-44 l -4,-4 c -15,-11 -19,-17 -19,-25 0,-10 8,-18 21,-18 11,0 16,5 19,9 3,4 4,10 4,11 0,2 1,3 2,3 1,0 2,-1 2,-5 0,-13 1,-19 1,-21 0,-1 -1,-2 -3,-2 -4,-1 -12,-3 -23,-3 -24,0 -40,14 -40,33 0,14 6,26 26,41 l 8,7 c 14,11 17,19 17,27 0,10 -8,20 -24,20 -10,0 -21,-4 -25,-17 0,-3 -1,-7 -1,-9 0,-2 0,-3 -2,-3 -1,0 -2,2 -2,4 0,3 -1,14 -1,23 0,4 1,5 3,6 8,3 16,5 26,5 z m 185,0 c 44,0 72,-32 72,-72 0,-40 -27,-65 -70,-65 -52,0 -72,39 -72,68 0,31 20,69 70,69 z m 7,-9 c -33,0 -53,-29 -53,-65 0,-43 23,-54 43,-54 28,0 51,24 51,63 0,50 -28,56 -41,56 z m 172,-75 v -37 c 1,-6 2,-9 7,-10 h 6 c 3,0 4,-1 4,-2 0,-1 -2,-1 -4,-1 h -24 -24 c -2,0 -3,0 -3,1 0,1 1,2 3,2 h 5 c 6,1 7,4 8,10 v 37 31 c 0,16 0,29 -1,37 0,5 -1,9 -5,9 -1,1 -3,1 -6,1 -2,0 -3,1 -3,1 0,2 1,2 4,2 h 12 10 21 c 8,0 17,1 29,1 9,0 10,-1 11,-5 2,-5 3,-18 3,-20 0,-2 0,-3 -2,-3 -1,0 -1,1 -2,3 0,3 -2,8 -4,10 -4,5 -11,5 -20,5 -14,0 -19,-1 -21,-4 -4,-3 -4,-15 -4,-37 z m 121,25 c 0,26 7,39 16,47 12,11 29,12 38,12 11,0 24,-2 36,-13 15,-12 17,-33 17,-52 v -19 -37 c 1,-6 2,-9 7,-10 h 5 c 2,0 3,-1 3,-2 0,-1 -1,-1 -4,-1 h -20 -20 c -2,0 -3,0 -3,1 0,1 1,2 3,2 h 6 c 6,1 7,4 7,10 1,6 1,11 1,37 v 22 c 0,18 -1,33 -10,43 -7,7 -17,9 -24,9 -6,0 -14,0 -22,-7 -9,-7 -14,-17 -14,-43 v -24 c 0,-26 0,-31 1,-37 0,-6 1,-9 6,-10 h 5 c 2,0 3,-1 3,-2 0,-1 -1,-1 -4,-1 h -21 -26 c -2,0 -4,0 -4,1 0,1 2,2 3,2 h 7 c 6,1 7,4 8,10 v 37 z m 228,6 c 0,16 0,29 -1,37 -1,5 -2,9 -5,9 -2,1 -4,1 -7,1 -2,0 -2,1 -2,1 0,2 1,2 3,2 h 22 27 c 2,0 4,0 4,-2 0,0 -1,-1 -3,-1 -3,0 -7,0 -9,-1 -5,0 -6,-4 -7,-9 -1,-8 -1,-21 -1,-37 v -72 l 22,1 c 16,0 20,5 21,10 v 2 c 0,2 0,3 2,3 1,0 1,-1 1,-3 0,-4 1,-16 1,-20 0,-3 0,-4 -1,-4 -1,0 -3,1 -5,1 -3,1 -7,1 -12,1 h -69 c -6,0 -12,0 -17,-1 -5,0 -7,-2 -8,-2 -1,0 -2,1 -2,3 0,2 -4,18 -4,20 0,2 1,3 2,3 1,0 1,0 2,-2 0,-1 1,-3 3,-6 2,-4 7,-5 17,-5 l 26,-1 z m 149,0 c 0,17 0,30 -1,38 -1,5 -2,8 -5,8 -2,1 -4,1 -7,1 -2,0 -2,1 -2,1 0,2 1,2 3,2 h 22 27 c 2,0 3,0 3,-2 0,0 0,-1 -2,-1 -3,0 -7,0 -9,-1 -5,0 -7,-3 -7,-8 -1,-8 -1,-21 -1,-38 v -31 c 0,-26 0,-31 1,-37 0,-6 1,-9 6,-10 h 5 c 2,0 3,-1 3,-2 0,-1 -1,-1 -4,-1 h -21 -23 c -2,0 -4,0 -4,1 0,1 1,2 3,2 h 6 c 4,1 6,4 6,10 1,6 1,11 1,37 z m 176,53 c 44,0 72,-32 72,-72 0,-40 -27,-65 -70,-65 -52,0 -72,39 -72,68 0,31 20,69 70,69 z m 8,-9 c -34,0 -54,-29 -54,-65 0,-43 23,-54 43,-54 29,0 51,24 51,63 0,50 -28,56 -40,56 z m 157,-90 h 1 c 3,3 22,24 41,43 18,18 40,41 51,51 2,2 4,4 6,4 2,0 3,-1 3,-5 l 1,-110 c 1,-10 2,-13 7,-15 h 5 c 2,0 3,-1 3,-2 0,-1 -1,-1 -4,-1 h -17 -21 c -2,0 -4,0 -4,1 0,1 0,2 2,2 3,0 7,0 10,1 4,2 5,5 6,15 l 1,79 h -1 c -3,-3 -26,-28 -38,-40 -25,-25 -52,-53 -54,-55 -3,-4 -4,-6 -6,-6 -2,0 -2,3 -2,6 l -2,103 c 0,15 -1,20 -5,21 -3,1 -6,1 -8,1 -2,0 -3,0 -3,1 0,2 2,2 4,2 h 19 21 c 3,0 4,0 4,-2 0,-1 -1,-1 -3,-1 -3,0 -6,0 -9,-1 -3,-1 -6,-6 -6,-19 z m 222,99 c 9,0 19,-2 27,-8 13,-8 17,-20 17,-30 0,-16 -8,-28 -29,-44 l -5,-4 c -14,-11 -18,-17 -18,-25 0,-10 8,-18 20,-18 12,0 17,5 19,9 4,4 5,10 5,11 0,2 0,3 2,3 1,0 2,-1 2,-5 v -21 c 0,-1 -1,-2 -2,-2 -5,-1 -12,-3 -23,-3 -25,0 -41,14 -41,33 0,14 7,26 26,41 l 8,7 c 15,11 17,19 17,27 0,10 -7,20 -23,20 -11,0 -21,-4 -25,-17 -1,-3 -1,-7 -1,-9 0,-2 -1,-3 -2,-3 -2,0 -2,2 -2,4 0,3 -1,14 -1,23 0,4 0,5 3,6 8,3 15,5 26,5 z"
   class="fil0" />
     
    </g></g></g></g></g></svg>