<?xml version="1.0" encoding="UTF-8" standalone="no"?>
<svg
   xmlns:dc="http://purl.org/dc/elements/1.1/"
   xmlns:cc="http://creativecommons.org/ns#"
   xmlns:rdf="http://www.w3.org/1999/02/22-rdf-syntax-ns#"
   xmlns:svg="http://www.w3.org/2000/svg"
   xmlns="http://www.w3.org/2000/svg"
   xmlns:sodipodi="http://sodipodi.sourceforge.net/DTD/sodipodi-0.dtd"
   xmlns:inkscape="http://www.inkscape.org/namespaces/inkscape"
   version="1.1"
   x="0px"
   y="0px"
   viewBox="0 0 128.14594 110.00001"
   enable-background="new 0 0 100 100"
   xml:space="preserve"
   id="svg2677"
   sodipodi:docname="intuitive.svg"
   width="128.14594"
   height="110.00001"
   inkscape:version="0.92.4 (5da689c313, 2019-01-14)"><metadata
     id="metadata2683"><rdf:RDF><cc:Work
         rdf:about=""><dc:format>image/svg+xml</dc:format><dc:type
           rdf:resource="http://purl.org/dc/dcmitype/StillImage" /><dc:title /></cc:Work></rdf:RDF></metadata><defs
     id="defs2681" /><sodipodi:namedview
     pagecolor="#ffffff"
     bordercolor="#666666"
     borderopacity="1"
     objecttolerance="10"
     gridtolerance="10"
     guidetolerance="10"
     inkscape:pageopacity="0"
     inkscape:pageshadow="2"
     inkscape:window-width="1600"
     inkscape:window-height="838"
     id="namedview2679"
     showgrid="false"
     inkscape:zoom="5.8272723"
     inkscape:cx="64.072968"
     inkscape:cy="55.000004"
     inkscape:window-x="-8"
     inkscape:window-y="-8"
     inkscape:window-maximized="1"
     inkscape:current-layer="g3252" /><g
     id="g3252"
     transform="translate(-84.524483,-41.367702)"><g
       id="g834"
       transform="matrix(1.0955642,0,0,1.0955642,-8.0775109,-14.465327)"><path
         style="fill:#fa6900;fill-opacity:1;stroke:none;stroke-width:1.00463283px;stroke-linecap:butt;stroke-linejoin:miter;stroke-opacity:1"
         d="m 114.01662,50.962809 -29.49214,50.424451 29.49214,49.98044 h 57.69566 l 29.78019,-49.98044 -29.78019,-50.424451 z"
         id="path844-9-6"
         inkscape:connector-curvature="0" /><g
         id="g1038"
         transform="matrix(1.0457849,0,0,1.0457849,260.08577,-103.37569)"
         style="fill:#ffffff;stroke:#ffffff;stroke-width:0.52575213;stroke-miterlimit:4;stroke-dasharray:none;stroke-opacity:1"><path
           id="path1021"
           d="m -109.98216,170.98722 c -2.7558,0 -5.44438,0.60494 -7.99854,1.8148 -6.51981,3.02466 -10.75433,9.6789 -10.75433,16.87086 v 2.48693 l -3.29352,6.31818 c -0.67214,1.27707 -0.67214,2.62136 -0.0672,3.6968 0.60493,1.07543 1.8148,1.68036 3.29352,1.68036 h 0.0672 v 4.77223 c 0,2.82301 2.28529,5.17553 5.17552,5.17553 h 0.13443 l 3.22629,-0.47051 v 6.78868 l 23.323466,-5.10831 v -12.09862 c 3.56238,-3.49516 5.5116,-8.26739 5.5116,-13.24127 0.0672,-10.28384 -8.33461,-18.68566 -18.618436,-18.68566 z m 10.485466,30.11213 -0.4705,0.4705 v 10.88876 l -17.072496,3.62959 v -6.58703 l -6.58703,1.00822 c -1.07544,-0.0672 -1.94923,-0.941 -1.94923,-2.01643 v -7.86411 h -3.2263 c -0.40328,0 -0.60493,-0.13443 -0.60493,-0.13443 0,-0.0672 0,-0.26886 0.13443,-0.60493 l 3.62959,-6.99031 v -3.2263 c 0,-5.9821 3.49516,-11.49369 9.00676,-14.04785 2.08364,-1.00822 4.30173,-1.47872 6.65424,-1.47872 8.60346,0 15.526556,6.99032 15.526556,15.52657 0,4.30173 -1.81479,8.53625 -5.04109,11.42647 z m -15.123276,-5.04109 c 0.67215,0.47051 1.47872,0.87379 2.2853,1.14265 l -0.94101,3.02465 c -1.14264,-0.33607 -2.15086,-0.87378 -3.15908,-1.61315 z m 11.35926,-15.661 -1.81478,2.55416 c -0.67215,-0.4705 -1.47873,-0.87379 -2.2853,-1.14265 l 0.941,-2.95744 c 1.14265,0.33607 2.21808,0.87379 3.15908,1.54593 z m -0.0672,13.84621 2.55416,1.81479 c -0.67215,0.94101 -1.54595,1.81479 -2.48695,2.48694 l -1.88201,-2.55416 c 0.73937,-0.4705 1.3443,-1.07543 1.8148,-1.74757 z m -4.03287,2.95744 1.00822,2.95744 c -1.14266,0.33607 -2.2853,0.53771 -3.49517,0.53771 v -3.15908 c 0.87379,0.0672 1.68037,-0.0672 2.48695,-0.33607 z m -10.61991,-7.66246 h -3.15909 v -0.0672 c 0,-1.20986 0.20165,-2.35251 0.53772,-3.49516 l 2.95745,0.94101 c -0.20165,0.87379 -0.33608,1.74758 -0.33608,2.62137 z m 14.65278,-4.77223 2.55416,-1.88201 c 0.67214,0.941 1.209846,2.01643 1.613136,3.09186 l -2.957436,1.00822 c -0.33607,-0.80657 -0.73936,-1.54593 -1.20986,-2.21807 z m -13.03962,9.54446 -2.55417,1.88201 c -0.67214,-0.941 -1.20985,-2.01643 -1.61315,-3.09187 l 2.95745,-1.00822 c 0.26886,0.73936 0.67214,1.47872 1.20987,2.21808 z m 6.5198,-15.99707 v 3.15909 c -0.87378,0 -1.68036,0.13443 -2.48693,0.40328 l -0.94101,-2.95744 c 1.07543,-0.4705 2.21809,-0.60493 3.42794,-0.60493 z m -6.58703,6.45261 -2.55415,-1.8148 c 0.67215,-0.941 1.54594,-1.81479 2.48694,-2.48694 l 1.8148,2.55415 c -0.60493,0.47051 -1.20986,1.07543 -1.74759,1.74759 z m 16.26594,4.70502 1.478706,-0.0672 v 0.0672 c 0,1.20985 -0.20164,2.35251 -0.53771,3.42794 l -2.957436,-0.94101 c 0.26885,-0.80658 0.40329,-1.61315 0.40329,-2.41972 v -0.0672 z"
           inkscape:connector-curvature="0"
           style="fill:#ffffff;stroke:#ffffff;stroke-width:0.52575213;stroke-miterlimit:4;stroke-dasharray:none;stroke-opacity:1" /></g></g></g></svg>