<?xml version="1.0" encoding="UTF-8" standalone="no"?>
<!-- Created with Inkscape (http://www.inkscape.org/) -->

<svg
   xmlns:dc="http://purl.org/dc/elements/1.1/"
   xmlns:cc="http://creativecommons.org/ns#"
   xmlns:rdf="http://www.w3.org/1999/02/22-rdf-syntax-ns#"
   xmlns:svg="http://www.w3.org/2000/svg"
   xmlns="http://www.w3.org/2000/svg"
   xmlns:sodipodi="http://sodipodi.sourceforge.net/DTD/sodipodi-0.dtd"
   xmlns:inkscape="http://www.inkscape.org/namespaces/inkscape"
   width="73.212936mm"
   height="20mm"
   viewBox="0 0 73.212934 20"
   version="1.1"
   id="svg8"
   inkscape:version="0.92.4 (5da689c313, 2019-01-14)"
   sodipodi:docname="jackland-logo.svg"
   inkscape:export-filename="C:\Users\HP\Desktop\Algora logos\4.png"
   inkscape:export-xdpi="219.91499"
   inkscape:export-ydpi="219.91499">
  <defs
     id="defs2" />
  <sodipodi:namedview
     id="base"
     pagecolor="#ffffff"
     bordercolor="#666666"
     borderopacity="1.0"
     inkscape:pageopacity="0.0"
     inkscape:pageshadow="2"
     inkscape:zoom="2.0490743"
     inkscape:cx="82.623116"
     inkscape:cy="69.193985"
     inkscape:document-units="mm"
     inkscape:current-layer="g2589"
     showgrid="false"
     showguides="true"
     inkscape:guide-bbox="true"
     inkscape:window-width="1600"
     inkscape:window-height="838"
     inkscape:window-x="-8"
     inkscape:window-y="-8"
     inkscape:window-maximized="1" />
  <metadata
     id="metadata5">
    <rdf:RDF>
      <cc:Work
         rdf:about="">
        <dc:format>image/svg+xml</dc:format>
        <dc:type
           rdf:resource="http://purl.org/dc/dcmitype/StillImage" />
        <dc:title />
      </cc:Work>
    </rdf:RDF>
  </metadata>
  <g
     inkscape:label="Layer 1"
     inkscape:groupmode="layer"
     id="layer1"
     transform="translate(-885.85964,-13.152524)">
    <g
       id="g1474"
       inkscape:export-xdpi="219.91499"
       inkscape:export-ydpi="219.91499">
      <g
         id="g1463"
         style="fill:#d35f5f"
         transform="matrix(0.13776189,0,0,0.13776189,879.95112,28.585369)">
        <g
           id="g1476"
           style="fill:#aa0000">
          <g
             id="g1493"
             transform="matrix(1.9205844,0,0,1.9205844,-385.90556,-999.86808)"
             style="fill:#808080">
            <g
               id="g1936">
              <g
                 id="g2589">
                <g
                   id="g1747"
                   transform="matrix(0.24226466,0,0,0.24226466,175.70502,462.06542)">
                  <path
                     inkscape:connector-curvature="0"
                     id="path1378"
                     d="m 309.98985,312.35824 c -13.96202,-2.27422 -23.82857,-5.18889 -23.27467,-6.87553 0.1487,-0.45281 2.22775,-2.31446 4.6201,-4.13699 11.45304,-8.72513 28.57265,-28.6293 37.76089,-43.9028 4.56584,-7.58975 11.19118,-22.01201 13.83007,-30.10574 1.31722,-4.04005 3.10216,-9.52736 3.96653,-12.19403 1.50401,-4.63997 3.03319,-11.00148 4.67643,-19.45428 0.97825,-5.03218 2.56288,-57.37672 2.11819,-69.96988 -0.27995,-7.92774 -0.59208,-9.88435 -1.78755,-11.20533 -1.44017,-1.59137 -1.86993,-1.59981 -75.76285,-1.48877 -71.77342,0.10787 -74.40192,0.0606 -76.87198,-1.3819 l -2.5575,-1.49358 -0.20132,-54.637406 -0.20132,-54.63739773 H 309.98452 423.66417 V 18.905705 36.936803 h -94.42101 c -51.93156,0 -94.57478,0.264587 -94.76271,0.587971 -0.5949,1.023675 -1.4186,35.869754 -0.88102,37.270686 0.47995,1.250717 5.64902,1.339383 78.08276,1.339383 h 77.56878 l -0.29298,59.777007 c -0.24719,50.43278 -0.49459,61.10997 -1.58267,68.30418 -3.50259,23.15842 -10.66578,42.91313 -24.34001,67.12505 -7.70137,13.63625 -20.78079,31.89951 -28.05375,39.17247 l -2.37746,2.37746 -10.32717,-0.10676 c -5.67995,-0.0587 -11.20913,-0.25042 -12.28708,-0.42601 z"
                     style="opacity:1;fill:#808080;fill-opacity:1;fill-rule:nonzero;stroke:none;stroke-width:4.29635191;stroke-linecap:round;stroke-linejoin:miter;stroke-miterlimit:4;stroke-dasharray:none;stroke-opacity:1;paint-order:markers fill stroke" />
                  <path
                     inkscape:connector-curvature="0"
                     id="path1380"
                     d="m 397.0095,295.69014 c 0,-0.40573 0.40308,-0.98682 0.89574,-1.2913 1.11651,-0.69004 12.09853,-23.37995 12.86755,-26.58558 0.31031,-1.29354 0.82323,-2.70467 1.13982,-3.13584 1.44025,-1.96155 7.05559,-20.98 9.45169,-32.01173 0.82726,-3.80874 1.6863,-7.21977 1.90898,-7.58007 0.22268,-0.36029 1.09264,-5.00526 1.93326,-10.32216 0.84061,-5.31688 1.874,-11.78376 2.29641,-14.37083 1.83714,-11.25166 2.4329,-29.74008 2.4329,-75.50057 V 76.134843 h 17.69411 17.6941 l -0.3467,61.344937 c -0.36817,65.14418 -0.44654,66.59336 -4.34898,80.42174 -3.62314,12.83865 -9.34621,25.24444 -17.23891,37.36837 -8.93374,13.72309 -33.42044,36.84689 -42.70719,40.33016 -2.72431,1.02184 -3.67278,1.0451 -3.67278,0.0901 z"
                     style="opacity:1;fill:#808080;fill-opacity:1;fill-rule:nonzero;stroke:none;stroke-width:4.29635191;stroke-linecap:round;stroke-linejoin:miter;stroke-miterlimit:4;stroke-dasharray:none;stroke-opacity:1;paint-order:markers fill stroke" />
                  <path
                     inkscape:connector-curvature="0"
                     id="path1382"
                     d="m 244.73774,282.52345 c -3.56417,-3.40942 -8.37276,-7.93758 -10.68576,-10.06259 -2.313,-2.125 -6.5658,-7.03868 -9.45066,-10.91929 -20.53845,-27.6275 -27.34071,-49.12272 -27.67577,-87.4558 -0.13693,-15.66463 -0.0325,-17.09657 1.42891,-19.59902 l 1.57663,-2.69969 53.39512,-0.20141 53.39513,-0.20141 0.26232,17.05657 0.26233,17.05657 2.35188,4.6032 c 1.29354,2.53176 3.71909,5.77853 5.39012,7.21506 2.34804,2.01853 2.94357,3.02088 2.62151,4.41235 -1.58612,6.85295 -12.7352,30.41505 -14.39174,30.41505 -0.56254,0 -2.88497,-0.84604 -5.16096,-1.8801 -4.62179,-2.09983 -9.8367,-6.67964 -14.51407,-12.74643 -4.46646,-5.79324 -10.20478,-17.99379 -10.85239,-23.07386 -0.95123,-7.46177 0.33315,-6.98537 -18.83281,-6.98537 -10.13599,0 -17.4849,0.3242 -18.39549,0.81154 -1.87868,1.00543 -1.96047,4.00618 -0.32374,11.87657 2.17693,10.46803 4.99359,17.71147 10.76315,27.67905 9.18695,15.87151 22.72525,30.77483 30.38022,33.44337 3.51453,1.22517 3.11437,3.83527 -1.31379,8.56935 -4.97988,5.32388 -15.51253,14.12241 -20.03865,16.73943 l -3.71118,2.14581 z"
                     style="opacity:1;fill:#808080;fill-opacity:1;fill-rule:nonzero;stroke:none;stroke-width:4.29635191;stroke-linecap:round;stroke-linejoin:miter;stroke-miterlimit:4;stroke-dasharray:none;stroke-opacity:1;paint-order:markers fill stroke" />
                </g>
                <g
                   id="g1843"
                   transform="translate(0,-2)">
                  <path
                     inkscape:connector-curvature="0"
                     id="path1384"
                     d="m 300.93859,519.86502 c -0.52257,-0.19601 -0.97684,-0.35799 -1.0095,-0.35995 -0.0327,-0.002 -0.0594,-1.28625 -0.0594,-2.85395 0,-2.55906 0.16384,-3.30858 0.57707,-2.63996 0.0715,0.11572 0.83229,0.4005 1.6906,0.63283 1.46689,0.39707 1.63558,0.39877 2.81049,0.0284 1.58208,-0.4987 2.18577,-1.1476 2.9011,-3.11833 0.56919,-1.56809 0.57186,-1.62081 0.57186,-11.3103 v -9.73486 l 3.14729,0.0663 3.14728,0.0663 -0.007,10.21384 -0.007,10.21383 -0.64469,2.01902 c -0.35458,1.11045 -0.96319,2.52214 -1.35248,3.13709 -0.69541,1.0985 -2.87207,3.0373 -3.41317,3.04018 -0.15157,6e-4 -0.59625,0.17717 -0.98818,0.39194 -1.02253,0.56031 -6.04557,0.70196 -7.36346,0.20765 z"
                     style="opacity:1;fill:#808080;fill-opacity:1;fill-rule:nonzero;stroke:none;stroke-width:1.3017447;stroke-linecap:round;stroke-linejoin:miter;stroke-miterlimit:4;stroke-dasharray:none;stroke-opacity:1;paint-order:markers fill stroke" />
                  <path
                     inkscape:connector-curvature="0"
                     id="path1386"
                     d="m 316.25934,519.6583 c 0,-0.0444 0.65788,-1.88824 1.46194,-4.09742 0.80407,-2.20917 1.65517,-4.55112 1.89133,-5.20433 0.23617,-0.65322 0.73845,-2.04277 1.11619,-3.08791 0.37774,-1.04513 1.68062,-4.62591 2.89527,-7.95729 1.21466,-3.33137 2.36918,-6.53804 2.5656,-7.12593 0.19641,-0.58789 0.46053,-1.2025 0.58693,-1.3658 0.16653,-0.21516 1.25627,-0.29691 3.95751,-0.29691 h 3.7277 l 0.49179,1.24703 c 0.27048,0.68587 1.58401,4.34682 2.91896,8.13544 2.95683,8.39158 3.12245,8.85356 3.89759,10.87175 0.33968,0.88442 0.61761,1.72338 0.61761,1.86435 0,0.14097 0.15854,0.59313 0.35232,1.0048 0.19378,0.41167 0.50787,1.22949 0.69797,1.81738 0.19011,0.58789 0.566,1.7001 0.83533,2.47157 0.26933,0.77147 0.48969,1.4959 0.48969,1.60985 0,0.11395 -1.52317,0.17753 -3.38482,0.14128 l -3.38482,-0.0659 -0.9119,-2.85038 c -0.50154,-1.5677 -0.95247,-2.98398 -1.00205,-3.14728 -0.0687,-0.22635 -1.39221,-0.29692 -5.56828,-0.29692 -4.17696,0 -5.49913,0.0705 -5.56658,0.29692 -0.0487,0.1633 -0.41107,1.3658 -0.80538,2.67222 -0.39431,1.30642 -0.78591,2.61581 -0.87022,2.90976 -0.14986,0.52247 -0.23009,0.53444 -3.58148,0.53444 -1.88551,0 -3.4282,-0.0363 -3.4282,-0.0807 z m 18.05236,-11.46463 c 0,-0.32248 -0.75232,-3.0185 -0.94403,-3.38303 -0.11349,-0.2158 -0.5446,-1.5147 -0.95802,-2.88645 -0.41341,-1.37174 -0.89923,-2.92163 -1.0796,-3.44419 -0.18036,-0.52257 -0.39861,-1.40441 -0.48498,-1.95964 -0.0864,-0.55523 -0.24088,-1.0095 -0.34335,-1.0095 -0.10246,0 -0.26204,0.45427 -0.35463,1.0095 -0.0926,0.55523 -0.90364,3.24422 -1.80236,5.97553 -0.89871,2.73131 -1.63402,5.16303 -1.63402,5.40383 0,0.40715 0.26613,0.43781 3.80049,0.43781 2.09028,0 3.8005,-0.0647 3.8005,-0.14386 z"
                     style="opacity:1;fill:#808080;fill-opacity:1;fill-rule:nonzero;stroke:none;stroke-width:1.3017447;stroke-linecap:round;stroke-linejoin:miter;stroke-miterlimit:4;stroke-dasharray:none;stroke-opacity:1;paint-order:markers fill stroke" />
                  <path
                     inkscape:connector-curvature="0"
                     id="path1388"
                     d="m 356.04579,520.1145 c -0.13064,-0.0476 -0.87887,-0.27281 -1.66272,-0.50054 -2.0519,-0.59616 -4.09335,-1.80293 -5.49584,-3.24878 -1.51975,-1.56673 -2.29639,-2.81204 -3.1226,-5.00699 -0.60369,-1.60378 -0.64527,-1.95912 -0.64527,-5.51473 0,-3.39143 0.0614,-3.97947 0.57008,-5.46322 0.86424,-2.52068 1.84801,-4.10597 3.6929,-5.95085 1.84489,-1.84489 3.43017,-2.82867 5.95086,-3.69291 1.49702,-0.51326 2.05327,-0.5693 5.58197,-0.56233 3.08068,0.006 4.2115,0.0986 5.28507,0.43253 l 1.3658,0.4248 v 2.95228 c 0,1.62375 -0.037,2.95228 -0.0823,2.95228 -0.0453,0 -0.42486,-0.1709 -0.84357,-0.37979 -0.41872,-0.20888 -1.82213,-0.59356 -3.11868,-0.85484 -2.22044,-0.44745 -2.4624,-0.45363 -4.16555,-0.10631 -2.34286,0.47778 -3.76895,1.18315 -5.09166,2.51844 -1.41251,1.42593 -2.08889,2.87756 -2.42942,5.21398 -0.33267,2.28244 -0.003,5.20114 0.7667,6.79149 0.54291,1.12151 1.89081,2.65409 2.98942,3.399 0.88047,0.59701 3.9166,1.47241 5.08186,1.46525 1.26545,-0.008 4.96493,-0.88243 5.98809,-1.41573 l 0.90508,-0.47175 v 2.92871 2.92871 l -1.84086,0.55579 c -1.5353,0.46354 -2.47172,0.5671 -5.64136,0.62389 -2.09028,0.0375 -3.90739,0.0292 -4.03803,-0.0184 z"
                     style="opacity:1;fill:#808080;fill-opacity:1;fill-rule:nonzero;stroke:none;stroke-width:1.3017447;stroke-linecap:round;stroke-linejoin:miter;stroke-miterlimit:4;stroke-dasharray:none;stroke-opacity:1;paint-order:markers fill stroke" />
                  <path
                     inkscape:connector-curvature="0"
                     id="path1390"
                     d="m 370.94904,505.19025 0.0612,-14.54878 3.14729,-0.0663 3.14729,-0.0663 v 6.89529 c 0,4.57839 0.0823,6.8953 0.24498,6.8953 0.13474,0 0.31384,-0.18706 0.39799,-0.41569 0.14636,-0.39761 3.86795,-6.14314 7.15439,-11.04519 l 1.55265,-2.31592 h 3.63857 c 2.00122,0 3.63859,0.0852 3.63859,0.18943 0,0.10419 -0.7215,1.15859 -1.60334,2.3431 -0.88183,1.18452 -2.35156,3.1863 -3.26605,4.4484 -0.91449,1.2621 -2.38422,3.27291 -3.26605,4.46847 -0.88183,1.19555 -1.60333,2.31468 -1.60333,2.48696 0,0.17227 0.82838,1.4471 1.84086,2.83295 1.01248,1.38585 2.08057,2.85609 2.37355,3.26719 1.70662,2.39474 2.99768,4.18451 4.63362,6.42347 1.01247,1.38569 1.84086,2.57532 1.84086,2.64363 0,0.0683 -1.78321,0.0949 -3.9627,0.0591 l -3.9627,-0.0651 -3.1468,-4.63186 c -3.55159,-5.2277 -5.00106,-7.45791 -5.63392,-8.6686 -0.23938,-0.45795 -0.53332,-0.83264 -0.65321,-0.83264 -0.12742,0 -0.21796,2.96003 -0.21796,7.12593 v 7.12593 h -3.2085 -3.20849 z"
                     style="opacity:1;fill:#808080;fill-opacity:1;fill-rule:nonzero;stroke:none;stroke-width:1.3017447;stroke-linecap:round;stroke-linejoin:miter;stroke-miterlimit:4;stroke-dasharray:none;stroke-opacity:1;paint-order:markers fill stroke" />
                  <path
                     inkscape:connector-curvature="0"
                     id="path1392"
                     d="m 396.17884,519.44211 c -0.0624,-0.16331 -0.0858,-6.71026 -0.0519,-14.54878 l 0.0616,-14.25186 3.14729,-0.0663 3.14728,-0.0663 v 11.97679 c 0,10.70216 0.04,11.99215 0.37573,12.12098 0.20664,0.0793 2.66509,0.14418 5.46321,0.14418 h 5.08749 v 0.64473 c 0,0.55703 0.0443,0.59742 0.32594,0.29691 0.17927,-0.1913 0.49261,-0.82881 0.69632,-1.4167 0.20371,-0.58789 0.65195,-1.81712 0.99609,-2.73161 0.34414,-0.91449 0.77888,-2.14372 0.96609,-2.73161 0.1872,-0.58789 0.44735,-1.28266 0.5781,-1.54395 0.13074,-0.26128 0.43674,-1.06295 0.68,-1.78148 0.24326,-0.71853 1.16884,-3.28387 2.05685,-5.70075 0.88801,-2.41687 1.85521,-5.0891 2.14933,-5.93827 0.29412,-0.84917 0.70725,-1.94742 0.91805,-2.44055 l 0.38327,-0.8966 3.83748,0.0652 3.83747,0.0652 1.0249,2.96914 c 0.56369,1.63302 1.12184,3.18291 1.24034,3.4442 0.11849,0.26128 1.24601,3.41451 2.50559,7.00716 1.25959,3.59266 2.49745,7.06655 2.75079,7.71976 0.25335,0.65321 0.61333,1.66866 0.79995,2.25655 0.18663,0.58788 0.71141,2.11105 1.16619,3.38481 l 0.82686,2.31593 h -3.53721 c -2.67172,0 -3.53706,-0.0726 -3.53661,-0.29691 6e-4,-0.31697 -1.30966,-4.68805 -1.67327,-5.58198 -0.21653,-0.53235 -0.23872,-0.53445 -5.6559,-0.53445 h -5.43852 l -0.53222,1.7221 c -0.29273,0.94716 -0.74811,2.39016 -1.01197,3.20667 l -0.47975,1.48457 h -11.49565 c -8.97761,0 -11.52053,-0.065 -11.6092,-0.29691 z m 34.3953,-11.24613 c 0.0779,-0.0779 -0.0575,-0.69246 -0.30069,-1.3658 -1.0118,-2.80106 -2.89659,-8.99516 -3.04552,-10.0087 -0.0882,-0.60021 -0.26726,-1.09453 -0.3979,-1.09849 -0.13064,-0.004 -0.47773,0.93542 -0.7713,2.0875 -0.29357,1.15208 -0.63363,2.30847 -0.75568,2.56975 -0.12205,0.26129 -0.61567,1.75773 -1.09693,3.32544 -0.48126,1.5677 -1.01551,3.16671 -1.18721,3.55335 -0.1717,0.38664 -0.25997,0.78747 -0.19614,0.89074 0.13349,0.21599 7.53744,0.26014 7.75137,0.0462 z"
                     style="opacity:1;fill:#808080;fill-opacity:1;fill-rule:nonzero;stroke:none;stroke-width:1.3017447;stroke-linecap:round;stroke-linejoin:miter;stroke-miterlimit:4;stroke-dasharray:none;stroke-opacity:1;paint-order:markers fill stroke" />
                  <path
                     inkscape:connector-curvature="0"
                     id="path1394"
                     d="m 443.10091,505.13086 v -14.60815 h 3.41914 3.41913 l 2.23759,3.38481 c 2.23337,3.37844 3.42955,5.20821 6.48302,9.91692 0.88953,1.37174 2.19148,3.37472 2.8932,4.45106 0.70173,1.07635 1.33762,2.1179 1.41309,2.31457 0.44666,1.16397 0.5625,-0.89411 0.5625,-9.99363 v -10.08836 l 2.90975,0.0667 2.90976,0.0667 v 14.48939 14.4894 l -3.23824,0.0659 -3.23823,0.0659 -2.32082,-3.5101 c -7.06377,-10.68355 -10.80395,-16.42952 -10.96137,-16.83977 -0.0616,-0.1604 -0.23726,-0.3398 -0.39046,-0.39867 -0.21112,-0.0811 -0.26087,2.41581 -0.2055,10.31423 l 0.0731,10.42127 h -2.98281 -2.9828 z"
                     style="opacity:1;fill:#808080;fill-opacity:1;fill-rule:nonzero;stroke:none;stroke-width:1.3017447;stroke-linecap:round;stroke-linejoin:miter;stroke-miterlimit:4;stroke-dasharray:none;stroke-opacity:1;paint-order:markers fill stroke" />
                  <path
                     inkscape:connector-curvature="0"
                     id="path1398"
                     d="m 474.21747,505.10545 v -14.63356 l 7.18532,0.1171 c 7.5852,0.12362 9.04336,0.29836 11.46087,1.37345 3.55071,1.57904 5.99684,4.52407 6.79452,8.18027 0.41758,1.91401 0.42047,7.2447 0.005,8.90741 -1.07485,4.29979 -3.83501,7.5362 -7.99702,9.37683 -2.34106,1.03533 -4.75026,1.31207 -11.42258,1.31207 h -6.02592 z m 11.56245,9.38849 c 3.26288,-0.4512 5.65881,-2.24496 6.87156,-5.14456 0.61123,-1.46142 0.67136,-1.86176 0.66928,-4.45605 -0.002,-2.69246 -0.043,-2.9359 -0.73685,-4.39432 -1.09194,-2.29511 -3.03149,-3.92804 -5.30223,-4.46401 -1.45915,-0.34442 -5.2958,-0.61766 -6.0422,-0.43033 l -0.60867,0.15277 v 9.33836 c 0,5.1361 0.0713,9.40962 0.15835,9.49671 0.24162,0.24162 2.91202,0.18888 4.99076,-0.0986 z"
                     style="opacity:1;fill:#808080;fill-opacity:1;fill-rule:nonzero;stroke:none;stroke-width:1.3017447;stroke-linecap:round;stroke-linejoin:miter;stroke-miterlimit:4;stroke-dasharray:none;stroke-opacity:1;paint-order:markers fill stroke" />
                </g>
                <text
                   id="text2573"
                   y="537.7265"
                   x="307.71048"
                   style="font-style:normal;font-variant:normal;font-weight:normal;font-stretch:normal;font-size:14.4714613px;line-height:1.25;font-family:Arial;-inkscape-font-specification:Arial;letter-spacing:0px;word-spacing:0px;fill:#808080;fill-opacity:1;stroke:none;stroke-width:0.54267985"
                   xml:space="preserve"><tspan
                     style="font-style:normal;font-variant:normal;font-weight:bold;font-stretch:normal;font-family:Heebo;-inkscape-font-specification:'Heebo Bold';letter-spacing:1px;fill:#808080;stroke-width:0.54267985"
                     y="537.7265"
                     x="307.71048"
                     id="tspan2571"
                     sodipodi:role="line">ENGINEERING COMPANY</tspan></text>
              </g>
            </g>
          </g>
        </g>
      </g>
    </g>
  </g>
</svg>
