<svg xmlns="http://www.w3.org/2000/svg" xmlns:xlink="http://www.w3.org/1999/xlink" version="1.1" x="0px" y="0px" viewBox="0 0 100 125" enable-background="new 0 0 100 100" xml:space="preserve"><path d="M64.4,37.9c1.8-1.1,4.8-1.1,6.7,0c1.9,1.1,1.9,2.8,0,3.9c-1.8,1.1-4.8,1.1-6.7,0C62.5,40.7,62.5,39,64.4,37.9z M29.1,21.4  c1.9,1.1,4.9,1.1,6.7,0c1.8-1.1,1.8-2.8,0-3.9c-1.9-1.1-4.9-1.1-6.7,0C27.2,18.6,27.3,20.3,29.1,21.4z M4,19.4L32.3,3  c3-1.8,8-1.8,11,0l52.8,30.5c3.1,1.8,3.1,4.6,0,6.4L67.9,56.3c-3,1.8-8,1.8-11,0L4,25.8C1,24.1,1,21.2,4,19.4z M15.5,25.8  c-0.4,0.2-0.7,0.4-1.1,0.5l41,23.7c0.2-0.1,0.4-0.3,0.6-0.4c3.1-1.8,8.1-1.8,11.2,0c0.5,0.3,0.9,0.6,1.2,0.9l17.1-9.9  c-0.6-0.2-1.1-0.4-1.6-0.7c-3.1-1.8-3.1-4.7,0-6.5c0.5-0.3,1-0.5,1.5-0.7L44.3,9c-0.3,0.2-0.6,0.4-0.9,0.7c-3.1,1.8-8.1,1.8-11.2,0  c-0.3-0.2-0.6-0.4-0.9-0.6l-16.9,9.8c0.4,0.2,0.7,0.3,1.1,0.5C18.6,21.2,18.6,24.1,15.5,25.8z M2.6,34.7l55.3,31.9l0.8,0.5l1.1,0.6  c1.6,0.9,4.1,0.9,5.6,0l31.7-18.4c1.3-0.8,1.3-2,0-2.7c-1.3-0.8-3.4-0.7-4.7,0L62.6,63.9L7.4,32.1c-1.3-0.7-3.4-0.8-4.7-0.2  C1.2,32.7,1.2,33.9,2.6,34.7z M97.2,56.6c-1.3-0.8-3.4-0.8-4.7,0L62.6,73.9L7.4,42c-1.3-0.7-3.4-0.9-4.7-0.2c-1.4,0.7-1.5,2-0.1,2.8  l55.3,31.9l0.8,0.5l1.1,0.6c1.6,0.9,4.1,0.9,5.6,0l31.7-18.4C98.5,58.5,98.5,57.3,97.2,56.6z M48.2,28.9l0-2.6l-4.7,0l0,2.6l0,2.7  l4.7,0l10.8,0l0-2.7L48.2,28.9 M62.2,22.6c6.7,3.9,6.7,10.1,0.1,14c-6.6,3.9-17.5,3.9-24.2,0c-6.7-3.9-6.7-10.2-0.1-14  C44.6,18.8,55.5,18.8,62.2,22.6 M2.6,54.7l55.3,31.9l0.8,0.5l1.1,0.6c1.6,0.9,4.1,0.9,5.6,0l31.7-18.4c1.3-0.8,1.3-2,0-2.7  c-1.3-0.8-3.4-0.7-4.7,0L62.6,83.9L7.4,52c-1.3-0.7-3.4-0.8-4.7-0.2C1.2,52.6,1.2,53.9,2.6,54.7z M97.2,76.5c-1.3-0.8-3.4-0.8-4.7,0  L62.6,93.8L7.4,62c-1.3-0.7-3.4-0.9-4.7-0.2c-1.4,0.7-1.5,2-0.1,2.8l55.3,31.9l0.8,0.5l1.1,0.6c1.6,0.9,4.1,0.9,5.6,0l31.7-18.4  C98.5,78.5,98.5,77.3,97.2,76.5z"/><text x="0" y="115" fill="#000000" font-size="5px" font-weight="bold" font-family="'Helvetica Neue', Helvetica, Arial-Unicode, Arial, Sans-serif">Created by Gregor Cresnar</text><text x="0" y="120" fill="#000000" font-size="5px" font-weight="bold" font-family="'Helvetica Neue', Helvetica, Arial-Unicode, Arial, Sans-serif">from the Noun Project</text></svg>