<?xml version="1.0" encoding="UTF-8" standalone="no"?>
<svg
   xmlns:dc="http://purl.org/dc/elements/1.1/"
   xmlns:cc="http://creativecommons.org/ns#"
   xmlns:rdf="http://www.w3.org/1999/02/22-rdf-syntax-ns#"
   xmlns:svg="http://www.w3.org/2000/svg"
   xmlns="http://www.w3.org/2000/svg"
   xmlns:sodipodi="http://sodipodi.sourceforge.net/DTD/sodipodi-0.dtd"
   xmlns:inkscape="http://www.inkscape.org/namespaces/inkscape"
   version="1.1"
   x="0px"
   y="0px"
   viewBox="0 0 128.14594 110.00001"
   enable-background="new 0 0 100 100"
   xml:space="preserve"
   id="svg2677"
   sodipodi:docname="Responsive.svg"
   width="128.14594"
   height="110"
   inkscape:version="0.92.4 (5da689c313, 2019-01-14)"><metadata
     id="metadata2683"><rdf:RDF><cc:Work
         rdf:about=""><dc:format>image/svg+xml</dc:format><dc:type
           rdf:resource="http://purl.org/dc/dcmitype/StillImage" /><dc:title /></cc:Work></rdf:RDF></metadata><defs
     id="defs2681" /><sodipodi:namedview
     pagecolor="#ffffff"
     bordercolor="#666666"
     borderopacity="1"
     objecttolerance="10"
     gridtolerance="10"
     guidetolerance="10"
     inkscape:pageopacity="0"
     inkscape:pageshadow="2"
     inkscape:window-width="1600"
     inkscape:window-height="838"
     id="namedview2679"
     showgrid="false"
     inkscape:zoom="5.8272727"
     inkscape:cx="64.072968"
     inkscape:cy="55"
     inkscape:window-x="-8"
     inkscape:window-y="-8"
     inkscape:window-maximized="1"
     inkscape:current-layer="g3316" /><g
     id="g3316"
     transform="translate(78.081453,-88.27681)"><g
       id="g29830"
       transform="matrix(1.0955642,0,0,1.0955642,7.4617918,-18.948165)"><path
         style="fill:#fa6900;fill-opacity:1;stroke:none;stroke-width:1.00463283px;stroke-linecap:butt;stroke-linejoin:miter;stroke-opacity:1"
         d="m -48.589315,97.871923 -29.492138,50.424457 29.492138,49.98043 H 9.1063474 L 38.886537,148.29638 9.1063474,97.871923 Z"
         id="path844-9"
         inkscape:connector-curvature="0" /><g
         id="g1840"
         transform="matrix(1.3363294,0,0,1.3363294,271.0111,206.25548)"
         style="fill:#ffffff;fill-opacity:1"><path
           sodipodi:nodetypes="cccccccccccccccccccccccccccccccccccc"
           inkscape:connector-curvature="0"
           id="path1831"
           d="m -203.16309,-28.701625 c -0.42484,-0.130504 -0.96114,-0.670585 -1.13429,-1.142294 l -0.13005,-0.354303 v -8.382333 -8.382325 l 0.1307,-0.349331 c 0.15897,-0.424894 0.5241,-0.834892 0.93816,-1.053456 l 0.30855,-0.162874 h 4.10164 4.6526 l 0.28799,0.143167 c 0.35174,0.174866 0.74896,0.594415 0.92653,0.978616 l 0.13228,0.286239 0.0162,8.458892 0.0162,8.458893 -0.1309,0.356558 c -0.18069,0.492225 -0.70775,1.013499 -1.16073,1.148022 -0.47125,0.139945 -8.49795,0.136858 -8.95477,-0.0035 z m 5.09471,-0.963323 c 0.42045,-0.175675 0.69782,-0.710518 0.59717,-1.151487 -0.1924,-0.842941 -1.16895,-1.060438 -1.63041,-0.363126 -0.35106,0.530488 -0.11927,1.297487 0.46217,1.529341 0.21338,0.08508 0.34,0.08182 0.57107,-0.01473 z m 3.33412,-4.706837 c 0.0221,-0.883841 0.0403,-4.024345 0.0404,-6.978902 l 1.3e-4,-5.371912 h -4.2142 -3.35714 l -0.0404,1.882469 c -0.0222,1.03535 -0.0404,4.175855 -0.0405,6.978894 l -1e-4,5.096433 h 3.35719 4.21425 z"
           style="opacity:1;fill:#ffffff;fill-opacity:1;fill-rule:nonzero;stroke:#ffffff;stroke-width:0.04627534;stroke-linecap:round;stroke-linejoin:miter;stroke-miterlimit:4;stroke-dasharray:none;stroke-opacity:1;paint-order:markers fill stroke" /><path
           sodipodi:nodetypes="ccccccsccccccccccccccccsccsscs"
           inkscape:connector-curvature="0"
           id="path1833"
           d="m -216.3609,-28.802381 c -0.40474,-0.200343 -0.71678,-0.555383 -0.92401,-1.051336 -0.11674,-0.279412 -0.13243,-1.676996 -0.13169,-11.726373 l 7.9e-4,-11.409156 0.20413,-0.432883 c 0.23766,-0.503972 0.4929,-0.761511 0.9397,-0.948204 0.28023,-0.117087 1.60768,-0.133992 7.55167,-0.133992 6.59819,0 6.81248,0.0055 7.13692,0.170635 0.40996,0.209147 0.8455,0.721674 0.95855,1.127998 0.0464,0.166665 0.0845,0.840072 0.0848,1.496464 l 4.8e-4,2.110781 -0.8874,-0.02464 -0.8874,-0.02464 -0.026,-1.41514 -0.026,-0.497811 h -6.4023 -6.34108 v 9.480061 9.48006 h 4.52731 5.01705 v 1.99125 1.991246 l -5.21185,-6.9e-5 c -4.70386,-6.2e-5 -5.21803,-0.0031 -5.5838,-0.184181 z m 8.17441,-1.041876 c 0.65463,-0.614999 0.2838,-1.717456 -0.57772,-1.717456 -0.61122,0 -1.03892,0.608243 -0.86185,1.225655 0.20505,0.71498 0.93615,0.964745 1.43957,0.491801 z"
           style="opacity:1;fill:#ffffff;fill-opacity:1;fill-rule:nonzero;stroke:#ffffff;stroke-width:0.0654432;stroke-linecap:round;stroke-linejoin:miter;stroke-miterlimit:4;stroke-dasharray:none;stroke-opacity:1;paint-order:markers fill stroke" /><path
           sodipodi:nodetypes="cscsccccscccsscccccccccccccsccsccccc"
           inkscape:connector-curvature="0"
           id="path1835"
           d="m -241.82992,-28.846246 c -0.1662,-0.211296 -0.17944,-0.34129 -0.17944,-1.76313 0,-1.42184 0.0133,-1.984271 0.17944,-2.195568 0.1684,-0.214083 0.22415,-0.228115 0.9066,-0.228115 h 0.72716 l 0.027,-10.973938 c 0.0297,-12.523663 -0.005,-11.731293 0.54926,-12.748757 0.42445,-0.779852 1.36526,-1.437626 2.35845,-1.648931 0.26029,-0.05541 3.31314,-0.07746 13.17333,-0.06231 l 15.28065,0.02347 0.47616,0.19604 c 0.26189,0.107826 0.66128,0.332261 0.88754,0.498753 0.42434,0.312249 0.93055,1.881382 0.93055,2.08728 0,0.0977 -1.98277,0.116875 -15.61606,0.116875 -14.58025,0 -13.35337,-0.0259 -13.99931,0.449545 -0.14928,0.109875 -0.37476,0.375089 -0.50105,0.589361 -0.22868,0.387999 -0.21256,0.309658 -0.21256,1.08355 0.009,0.904717 0.0434,5.959523 0.0755,11.232893 l 0.0585,9.155517 7.63094,0.02198 10.22702,0.02197 0.0233,2.402036 0.0233,1.969602 h -12.67871 -10.16801 z m 20.59783,-0.962795 c 0.37078,-0.191738 0.52041,-0.460708 0.52041,-0.935465 0,-0.349084 -0.0428,-0.46315 -0.25307,-0.67334 l -0.25307,-0.253073 h -3.08579 c -1.95087,0 -3.14706,0.0328 -3.25236,0.08914 -0.36339,0.194486 -0.55414,0.985337 -0.33599,1.392976 0.0506,0.09465 0.21624,0.247781 0.36795,0.340289 0.25853,0.157634 0.45687,0.168215 3.1588,0.168518 2.38885,2.6e-4 2.92582,-0.02185 3.13312,-0.129045 z"
           style="opacity:1;fill:#ffffff;fill-opacity:1;fill-rule:nonzero;stroke:#ffffff;stroke-width:0.0654432;stroke-linecap:round;stroke-linejoin:miter;stroke-miterlimit:4;stroke-dasharray:none;stroke-opacity:1;paint-order:markers fill stroke" /></g></g></g></svg>