<?xml version="1.0" encoding="UTF-8" standalone="no"?>
<svg
   xmlns:dc="http://purl.org/dc/elements/1.1/"
   xmlns:cc="http://creativecommons.org/ns#"
   xmlns:rdf="http://www.w3.org/1999/02/22-rdf-syntax-ns#"
   xmlns:svg="http://www.w3.org/2000/svg"
   xmlns="http://www.w3.org/2000/svg"
   xmlns:sodipodi="http://sodipodi.sourceforge.net/DTD/sodipodi-0.dtd"
   xmlns:inkscape="http://www.inkscape.org/namespaces/inkscape"
   version="1.1"
   x="0px"
   y="0px"
   viewBox="0 0 128.14595 110.00001"
   enable-background="new 0 0 100 100"
   xml:space="preserve"
   id="svg2677"
   sodipodi:docname="Robust.svg"
   width="128.14594"
   height="110"
   inkscape:version="0.92.4 (5da689c313, 2019-01-14)"><metadata
     id="metadata2683"><rdf:RDF><cc:Work
         rdf:about=""><dc:format>image/svg+xml</dc:format><dc:type
           rdf:resource="http://purl.org/dc/dcmitype/StillImage" /><dc:title /></cc:Work></rdf:RDF></metadata><defs
     id="defs2681" /><sodipodi:namedview
     pagecolor="#ffffff"
     bordercolor="#666666"
     borderopacity="1"
     objecttolerance="10"
     gridtolerance="10"
     guidetolerance="10"
     inkscape:pageopacity="0"
     inkscape:pageshadow="2"
     inkscape:window-width="1600"
     inkscape:window-height="838"
     id="namedview2679"
     showgrid="false"
     inkscape:zoom="5.8272727"
     inkscape:cx="64.072968"
     inkscape:cy="55"
     inkscape:window-x="-8"
     inkscape:window-y="-8"
     inkscape:window-maximized="1"
     inkscape:current-layer="svg2677" /><g
     id="g1420"
     transform="scale(1.0955642)"><path
       inkscape:connector-curvature="0"
       id="path844-9-6-7"
       d="M 29.492138,0 0,50.424453 29.492138,100.40489 H 87.1878 L 116.96799,50.424453 87.1878,0 Z"
       style="fill:#fa6900;fill-opacity:1;stroke:none;stroke-width:1.00463283px;stroke-linecap:butt;stroke-linejoin:miter;stroke-opacity:1" /><g
       transform="translate(0,-1.8726345)"
       id="g3501"><g
         transform="matrix(1.0919207,0,0,1.0919207,-5.3758912,-4.7867768)"
         id="g1409"><path
           style="fill:#ffffff;stroke-width:0.48580071"
           id="path3379"
           d="m 55.928683,58.955346 a 0.9716014,0.9716014 0 0 0 -1.690587,0 l -1.457401,2.565027 a 0.9716014,0.9716014 0 0 0 1.331094,1.321378 v 2.914805 a 0.9716015,0.9716015 0 0 0 1.943203,0 v -2.914805 a 0.9716014,0.9716014 0 0 0 1.331094,-1.321378 z"
           inkscape:connector-curvature="0" /><path
           style="fill:#ffffff;stroke-width:0.48580071"
           id="path3381"
           d="m 77.916023,66.728158 a 0.9716014,0.9716014 0 0 0 0.971602,-0.971602 v -2.914805 a 0.9716014,0.9716014 0 0 0 1.331094,-1.321378 l -1.457402,-2.565027 a 0.9716014,0.9716014 0 0 0 -1.690586,0 l -1.457403,2.565027 a 0.9716014,0.9716014 0 0 0 1.331094,1.321378 v 2.914805 a 0.9716014,0.9716014 0 0 0 0.971601,0.971602 z"
           inkscape:connector-curvature="0" /><path
           style="fill:#ffffff;stroke-width:0.48580071"
           id="path3383"
           d="M 39.537767,37.422002 H 29.335952 a 1.9432029,1.9432029 0 0 0 -1.943203,1.943202 v 10.201815 a 1.9432029,1.9432029 0 0 0 1.943203,1.943203 H 39.537767 A 1.9432029,1.9432029 0 0 0 41.48097,49.567019 V 39.365204 a 1.9432029,1.9432029 0 0 0 -1.943203,-1.943202 z m -0.971602,6.315409 a 0.9716014,0.9716014 0 0 1 -1.943202,0 V 42.280009 H 35.16556 a 0.9716015,0.9716015 0 0 1 0,-1.943203 h 2.429004 a 0.9716014,0.9716014 0 0 1 0.971601,0.971601 z"
           inkscape:connector-curvature="0" /><path
           style="fill:#ffffff;stroke-width:0.48580071"
           id="path3385"
           d="M 57.512393,49.567019 V 39.365204 A 1.9432029,1.9432029 0 0 0 55.56919,37.422001 H 45.367375 a 1.9432029,1.9432029 0 0 0 -1.943203,1.943203 v 10.201815 a 1.9432029,1.9432029 0 0 0 1.943203,1.943203 H 55.56919 a 1.9432029,1.9432029 0 0 0 1.943203,-1.943203 z m -2.914804,-5.829608 a 0.9716015,0.9716015 0 0 1 -1.943203,0 v -1.457403 h -1.457402 a 0.9716015,0.9716015 0 0 1 0,-1.943203 h 2.429004 a 0.9716014,0.9716014 0 0 1 0.971601,0.971602 z"
           inkscape:connector-curvature="0" /><path
           style="fill:#ffffff;stroke-width:0.48580071"
           id="path3387"
           d="M 87.632037,37.422002 H 77.430223 a 1.9432029,1.9432029 0 0 0 -1.943204,1.943202 v 10.201815 a 1.9432029,1.9432029 0 0 0 1.943204,1.943203 h 10.201814 a 1.9432029,1.9432029 0 0 0 1.943204,-1.943203 V 39.365204 a 1.9432029,1.9432029 0 0 0 -1.943204,-1.943202 z m -0.971601,6.315409 a 0.9716015,0.9716015 0 0 1 -1.943203,0 v -1.457402 h -1.457401 a 0.9716015,0.9716015 0 0 1 0,-1.943203 h 2.429003 a 0.9716014,0.9716014 0 0 1 0.971601,0.971601 z"
           inkscape:connector-curvature="0" /><path
           style="fill:#ffffff;stroke-width:0.48580071"
           id="path3385-7"
           d="M 73.458797,63.813353 V 53.611538 A 1.9432029,1.9432029 0 0 0 71.515595,51.668335 H 61.313779 a 1.9432029,1.9432029 0 0 0 -1.943202,1.943203 v 10.201815 a 1.9432029,1.9432029 0 0 0 1.943202,1.943203 h 10.201816 a 1.9432029,1.9432029 0 0 0 1.943202,-1.943203 z m -2.914804,-5.829609 a 0.97160184,0.97160184 0 0 1 -1.943203,0 v -1.457401 h -1.457402 a 0.9716015,0.9716015 0 0 1 0,-1.943203 h 2.429003 a 0.9716014,0.9716014 0 0 1 0.971602,0.971601 z"
           inkscape:connector-curvature="0" /></g></g></g></svg>